<?xml version="1.0" encoding="utf-8"?>
<!-- Generator: Adobe Illustrator 24.1.2, SVG Export Plug-In . SVG Version: 6.00 Build 0)  -->
<svg version="1.1" id="Layer_1" xmlns="http://www.w3.org/2000/svg" xmlns:xlink="http://www.w3.org/1999/xlink" x="0px" y="0px"
	 viewBox="0 0 58 73" style="enable-background:new 0 0 58 73;" xml:space="preserve">
<style type="text/css">
	.st0{fill:none;stroke:#88CBC1;stroke-width:1.3821;}
</style>
<g id="Filigreen-2.5-Source">
	<g id="Marketplace-Brand" transform="translate(-868.000000, -270.000000)">
		<g id="Group-2" transform="translate(256.000000, 264.000000)">
			<g id="C--Flowers-Copy-6" transform="translate(592.000000, 0.000000)">
				<g id="black-icons-64px-06" transform="translate(30.937500, 15.925000)">
					<path id="Path" class="st0" d="M0.1,38.9L0.1,38.9c0.3-1.5,1.7-2.5,3.2-2.2l6.7,1.2c1.1,0.1,2,0.7,2.4,1.7s0.2,2.1-0.5,2.9
						c-0.7,0.8-1.9,1.1-2.9,0.7L2.3,42C0.8,41.8-0.2,40.4,0.1,38.9z"/>
					<path id="Path_1_" class="st0" d="M6.5,51.4L6.5,51.4c-0.6-1.4,0-3,1.4-3.6l6.2-2.8c1.3-0.4,2.8,0.2,3.4,1.5s0.1,2.8-1.1,3.5
						l-6.2,2.8c-0.7,0.3-1.4,0.3-2.1,0.1C7.3,52.6,6.8,52.1,6.5,51.4z"/>
					<path id="Path_2_" class="st0" d="M34.9,9H19.1c-0.5,0-0.9,0.3-1.2,0.6s-0.5,0.8-0.4,1.3v29.4c0,0.5,0.2,1,0.5,1.3
						s0.8,0.5,1.3,0.5h15.8c1-0.1,1.9-0.9,1.8-1.9V10.8C36.9,9.7,36,8.9,34.9,9z"/>
					<polygon id="Path_3_" class="st0" points="21.6,6.2 21.7,9 32.8,9 32.8,6.2 					"/>
					<path id="Path_4_" class="st0" d="M35,0.7H19.4c-0.7,0.1-1.2,0.7-1.2,1.4v4.1h18.2V1.9C36.3,1.2,35.7,0.7,35,0.7z"/>
					<line id="Path_5_" class="st0" x1="30.7" y1="6.2" x2="30.7" y2="4.1"/>
					<line id="Path_6_" class="st0" x1="28.6" y1="6.2" x2="28.6" y2="4.1"/>
					<line id="Path_7_" class="st0" x1="25.8" y1="6.2" x2="25.8" y2="4.1"/>
					<line id="Path_8_" class="st0" x1="23" y1="6.2" x2="23" y2="4.1"/>
					<line id="Path_9_" class="st0" x1="20.9" y1="6.2" x2="20.9" y2="4.1"/>
					<line id="Path_10_" class="st0" x1="33.5" y1="6.2" x2="33.5" y2="4.1"/>
					<path id="Path_11_" class="st0" d="M36.9,33.4c-1.7,0.8-7,0.5-7,0.4c0-0.4,0.8-1,1.3-1.3c0.7-0.4,1.6-0.6,2.4-0.6l-3.3-1.6
						c-1.9-0.9-3.3-2.5-4.1-4.5c0.6,0.2,6.9,3.6,6.6,3.1c-1-1.2-1.9-2.4-2.6-3.7c-0.7-1.7-1.3-3.5-1.8-5.3c0-0.1,2,2.4,2.1,2.5
						c0.1,0.2,3.8,5.2,3.7,5c-0.2-1.4-0.3-2.7-0.4-4.1c0.4-3,1.3-5.9,2.9-8.5"/>
				</g>
			</g>
		</g>
	</g>
</g>
</svg>
