<?xml version="1.0" encoding="utf-8"?>
<!-- Generator: Adobe Illustrator 24.1.2, SVG Export Plug-In . SVG Version: 6.00 Build 0)  -->
<svg version="1.1" id="Layer_1" xmlns="http://www.w3.org/2000/svg" xmlns:xlink="http://www.w3.org/1999/xlink" x="0px" y="0px"
	 viewBox="0 0 59 75" style="enable-background:new 0 0 59 75;" xml:space="preserve">
<style type="text/css">
	.st0{fill:none;stroke:#88CBC1;stroke-width:1.225;}
	.st1{fill:none;stroke:#88CBC1;stroke-width:1.225;stroke-linejoin:round;}
</style>
<g id="Filigreen-2.5-Source">
	<g id="Marketplace-Brand" transform="translate(-474.000000, -266.000000)">
		<g id="Group-2" transform="translate(256.000000, 264.000000)">
			<g id="C--Flowers-Copy-2" transform="translate(198.000000, 0.000000)">
				<g id="black-icons-64px-08" transform="translate(29.400000, 12.250000)">
					<path id="Rectangle" class="st0" d="M1.7,6.9l5.6-5.6c0.4-0.4,1.1-0.4,1.5,0l0,0c0.4,0.4,0.4,1.1,0,1.5L3.2,8.5
						c-0.4,0.4-1.1,0.4-1.5,0l0,0C1.3,8,1.3,7.4,1.7,6.9z"/>
					<path id="Path" class="st0" d="M25.3,27v-1.8c0-0.2,0.1-0.5,0.3-0.6c0.2-0.2,0.4-0.3,0.6-0.3h2.9c0.2,0,0.5,0.1,0.6,0.3
						c0.2,0.2,0.3,0.4,0.3,0.6V27"/>
					<path id="Rectangle_1_" class="st0" d="M24.6,26.6h6c0.4,0,0.7,0.3,0.7,0.7v1.1c0,0.4-0.3,0.7-0.7,0.7h-6
						c-0.4,0-0.7-0.3-0.7-0.7v-1.1C23.9,26.9,24.2,26.6,24.6,26.6z"/>
					<path id="Path_1_" class="st0" d="M26.6,24.3v-6.7c0-1.8,1.4-3.2,3.2-3.2h4.1"/>
					<path id="Path_2_" class="st0" d="M28.6,24.3v-6.5c0-1.2,1-1.5,2.2-1.5H34"/>
					<rect id="Rectangle_2_" x="21.3" y="42.3" class="st0" width="4" height="2.7"/>
					<rect id="Rectangle_3_" x="16.6" y="42.6" class="st0" width="4.7" height="1.7"/>
					<rect id="Rectangle_4_" x="21.3" y="36.8" class="st0" width="4" height="2.1"/>
					<line id="Path_3_" class="st0" x1="25.3" y1="29" x2="26.1" y2="34.6"/>
					<line id="Path_4_" class="st0" x1="29.9" y1="29" x2="29.3" y2="34.3"/>
					<path id="Path_5_" class="st0" d="M22.4,50.2c-0.6,0-1.2-1-1.2-1.6V25.2c0-0.2-0.1-0.5-0.3-0.6c-0.2-0.2-0.4-0.3-0.6-0.3H7.6
						c-0.5,0-0.9,0.4-0.9,0.9v23.4c0,0.7-0.5,1.6-1.2,1.6"/>
					<path id="Path_6_" class="st1" d="M38.6,14.1v2.7c0,0.5-0.4,0.9-0.9,0.9h-2.9c-0.5,0-0.9-0.4-0.9-0.9v-3.5L38.6,14.1z"/>
					<path id="Path_7_" class="st0" d="M4,7.7c4.1,4.2,6.6,9.6,7.1,15.4c0,0.3-0.1,0.6-0.3,0.9s-0.5,0.4-0.8,0.4"/>
					<path id="Path_8_" class="st0" d="M18.6,24.3c-0.7,0-1.3-0.5-1.4-1.2l0,0c-0.4-7.5-3.6-14.5-9-19.7"/>
					<path id="Rectangle_5_" class="st0" d="M27.2,34.3h1.5c1.1,0,1.9,0.9,1.9,1.9v9.5c0,1.1-0.9,1.9-1.9,1.9h-1.5
						c-1.1,0-1.9-0.9-1.9-1.9v-9.5C25.3,35.1,26.1,34.3,27.2,34.3z"/>
					<path id="Rectangle_6_" class="st0" d="M12.6,41.5h2.2c1.1,0,1.9,0.9,1.9,1.9v0.2c0,1.1-0.9,1.9-1.9,1.9h-2.2
						c-1.1,0-1.9-0.9-1.9-1.9v-0.2C10.7,42.4,11.5,41.5,12.6,41.5z"/>
					<path id="Rectangle_7_" class="st0" d="M3.3,50.2H24c1.1,0,1.9,0.9,1.9,1.9v0.2c0,1.1-0.9,1.9-1.9,1.9H3.3
						c-1.1,0-1.9-0.9-1.9-1.9v-0.2C1.4,51.1,2.2,50.2,3.3,50.2z"/>
				</g>
			</g>
		</g>
	</g>
</g>
</svg>
