<?xml version="1.0" encoding="utf-8"?>
<!-- Generator: Adobe Illustrator 24.1.2, SVG Export Plug-In . SVG Version: 6.00 Build 0)  -->
<svg version="1.1" id="Layer_1" xmlns="http://www.w3.org/2000/svg" xmlns:xlink="http://www.w3.org/1999/xlink" x="0px" y="0px"
	 viewBox="0 0 67 64" style="enable-background:new 0 0 67 64;" xml:space="preserve">
<style type="text/css">
	.st0{fill:none;stroke:#88CBC1;stroke-width:1.4489;}
	.st1{fill:none;stroke:#88CBC1;stroke-width:1.4489;stroke-miterlimit:4;}
	.st2{fill:none;stroke:#88CBC1;stroke-width:1.4488;stroke-miterlimit:3.9998;}
	.st3{fill:none;stroke:#88CBC1;stroke-width:1.4489;stroke-miterlimit:4.0001;}
	.st4{fill:none;stroke:#88CBC1;stroke-width:1.449;stroke-miterlimit:4.0002;}
</style>
<g id="Filigreen-2.5-Source">
	<g id="Marketplace-Brand" transform="translate(-1162.000000, -272.000000)">
		<g id="Group-2" transform="translate(256.000000, 264.000000)">
			<g id="C--Flowers-Copy-9" transform="translate(888.000000, 0.000000)">
				<g id="black-icons-64px-09" transform="translate(28.285714, 18.000000)">
					<path id="Path" class="st0" d="M7.8,36.6c-0.1-2.7,1-4.8,4.2-7.3c2.4-2,2.9-4.1,3.9-6c1.2-2.3,3.7-3.6,6.3-3.6
						c3-0.4,6,1,7.7,3.6c2.2,3.2,0.9,4,4.1,5.6c2.5,1.3,5.2,5.5,4.2,9.2c-1.2,4.2-4.1,5.3-7.1,5.5c-4.8,0.3-5.7-2.6-8.2-2.4
						c-2.5,0.1-4.2,2.4-8.2,2.4c-1.9,0-3.7-0.7-5-2S7.7,38.4,7.8,36.6z"/>
					
						<ellipse id="Oval" transform="matrix(0.9602 -0.2793 0.2793 0.9602 -5.4525 2.345)" class="st1" cx="5.5" cy="20.3" rx="3.8" ry="5.9"/>
					
						<ellipse id="Oval_1_" transform="matrix(0.9716 -0.2368 0.2368 0.9716 -1.4557 3.8757)" class="st2" cx="15.4" cy="8" rx="4.2" ry="6.6"/>
					
						<ellipse id="Oval_2_" transform="matrix(0.2083 -0.9781 0.9781 0.2083 16.6198 36.4292)" class="st3" cx="30.8" cy="7.9" rx="6.6" ry="4.3"/>
					
						<ellipse id="Oval_3_" transform="matrix(0.2822 -0.9594 0.9594 0.2822 9.8756 52.3876)" class="st4" cx="39.9" cy="19.6" rx="5.9" ry="3.8"/>
				</g>
			</g>
		</g>
	</g>
</g>
</svg>
