<?xml version="1.0" encoding="utf-8"?>
<!-- Generator: Adobe Illustrator 24.1.2, SVG Export Plug-In . SVG Version: 6.00 Build 0)  -->
<svg version="1.1" id="Layer_1" xmlns="http://www.w3.org/2000/svg" xmlns:xlink="http://www.w3.org/1999/xlink" x="0px" y="0px"
	 viewBox="0 0 70 69" style="enable-background:new 0 0 70 69;" xml:space="preserve">
<style type="text/css">
	.st0{fill:none;stroke:#88CBC1;stroke-width:1.6333;stroke-linejoin:round;}
</style>
<g id="Filigreen-2.5-Source">
	<g id="Marketplace-Brand" transform="translate(-369.000000, -269.000000)">
		<g id="Group-2" transform="translate(256.000000, 264.000000)">
			<g id="C--Flowers-Copy" transform="translate(99.000000, 0.000000)">
				<g id="black-icons-64px-03" transform="translate(24.750000, 15.925000)">
					<path id="Path" class="st0" d="M46.1,6.1c0,0-1.2-3.1,0.2-4.4c1-0.9,1.6-1.6,1.6-1.6l0.7,0.7c0,0-1.4,1.5-1.9,1.8
						c-1.5,1.1-4.1-0.1-5.4-0.3c-1.8-0.3-3.5,1.6-3.5,1.6L0.1,44.8L3.5,48l10.6-9.5l31.1-27.9C46.3,9.4,46.7,7.7,46.1,6.1L46.1,6.1z
						"/>
					<line id="Path_1_" class="st0" x1="9.8" y1="34.3" x2="14.1" y2="38.4"/>
				</g>
			</g>
		</g>
	</g>
</g>
</svg>
