<?xml version="1.0" encoding="utf-8"?>
<!-- Generator: Adobe Illustrator 25.0.1, SVG Export Plug-In . SVG Version: 6.00 Build 0)  -->
<svg version="1.1" id="Layer_1" xmlns="http://www.w3.org/2000/svg" xmlns:xlink="http://www.w3.org/1999/xlink" x="0px" y="0px"
	 viewBox="0 0 258 258" style="enable-background:new 0 0 258 258;" xml:space="preserve">
<style type="text/css">
	.st0{fill:none;stroke:#88CBC1;stroke-width:2;stroke-miterlimit:10;}
</style>
<rect x="112.4" y="69.3" class="st0" width="34.7" height="21.7"/>
<rect x="118.9" y="62.8" class="st0" width="21.7" height="6.5"/>
<rect x="125.4" y="52" class="st0" width="8.7" height="10.9"/>
<path class="st0" d="M159.4,55.9c-1.9-2.2-7.2-3.9-11.7-3.9h-31.1c-1.1,0-2-0.9-2-2v-0.3c0-1.1,0.9-2,2-2h31.1
	c12.5,0,15.7,6.1,15.7,7.3l0,0C163.4,56.1,161.4,58.3,159.4,55.9z"/>
<path class="st0" d="M168.8,68.6c-1.2,5.9-2.6,7.5-2.5,10.2c0.1,3.5,2.3,4.6,4.5,4.3s3.7-2.3,2.6-6.3
	C172.6,73.7,171,70.9,168.8,68.6z"/>
<path class="st0" d="M100,210.4h59.6c1.5,0,2.8-1.2,2.8-2.8v-98.5c0-10-8.1-18.1-18.1-18.1h-28.9c-10,0-18.1,8.1-18.1,18.1v98.5
	C97.2,209.1,98.5,210.4,100,210.4z"/>
<path class="st0" d="M163.1,179c-5.6,2.9-23.4,1.7-23.1,1.4c-0.1-1.4,2.7-3.2,4.4-4.2c2.5-1.5,5.3-2.2,8.1-2
	c-0.2,0-10.9-5.2-11.1-5.3c-10.9-6.1-13.9-15.1-13.6-15c2.1,0.8,22.8,12.1,22.1,10.5s-6.4-7.3-8.8-12.5c-3-6.6-5.9-17.3-6.1-17.8
	s6.7,8,7.1,8.6s12.6,17.4,12.5,16.8s-1.4-9.6-1.2-13.7c0.4-13.2,7.4-27.2,7.4-27.1"/>
</svg>
