<?xml version="1.0" encoding="utf-8"?>
<!-- Generator: Adobe Illustrator 25.1.0, SVG Export Plug-In . SVG Version: 6.00 Build 0)  -->
<svg version="1.1" id="Layer_1" xmlns="http://www.w3.org/2000/svg" xmlns:xlink="http://www.w3.org/1999/xlink" x="0px" y="0px"
	 viewBox="0 0 30 30" style="enable-background:new 0 0 30 30;" xml:space="preserve">
<style type="text/css">
	.st0{fill:#74CDC1;}
</style>
<g id="Credit_Card">
</g>
<g id="Banknote">
</g>
<g id="Wallet">
</g>
<g id="Compass">
</g>
<g id="Camera_1">
</g>
<g id="Photo">
</g>
<g id="Picture">
</g>
<g id="Camera_2">
</g>
<g id="No_Camera">
</g>
<g id="Video">
</g>
<g id="Audio">
</g>
<g id="Microphone_1">
</g>
<g id="Microphone_2">
</g>
<g id="No_Microphone">
</g>
<g id="Shopping_Cart">
</g>
<g id="Add_Shopping_Cart">
</g>
<g id="Remove_Shopping_Cart">
</g>
<g id="Shopping_Basket">
</g>
<g id="Jing-Jang">
</g>
<g id="Leaf">
</g>
<g id="Glass">
</g>
<g id="Cup">
</g>
<g id="Mug">
</g>
<g id="Refresh">
</g>
<g id="Login">
</g>
<g id="Logout">
</g>
<g id="Flowchart">
</g>
<g id="Pin_1">
</g>
<g id="Pin_2">
</g>
<g id="User_1">
</g>
<g id="User_2">
</g>
<g id="Users">
</g>
<g id="Adjustments">
</g>
<g id="Type">
</g>
<g id="Format_Size">
</g>
<g id="Menu_1">
</g>
<g id="Other">
</g>
<g id="Flash">
</g>
<g id="No_Flash">
</g>
<g id="Switch_Button_1">
</g>
<g id="Switch_Button_2">
</g>
<g id="Cut">
</g>
<g id="Crop">
</g>
<g id="Sun">
</g>
<g id="USB">
</g>
<g id="Pie_Chart_1">
</g>
<g id="Pie_Chart_2">
</g>
<g id="Line_Chart">
</g>
<g id="Bar_Chart">
</g>
<g id="Target">
</g>
<g id="Flashlight">
</g>
<g id="USB_Device">
</g>
<g id="Eject">
</g>
<g id="Lightbulb">
</g>
<g id="Information">
</g>
<g id="Deactivate_Protection">
</g>
<g id="Active_Protection">
</g>
<g id="Bug">
</g>
<g id="Protection">
</g>
<g id="Phone">
</g>
<g id="List">
</g>
<g id="Plugin_1">
</g>
<g id="Bookmarrk">
</g>
<g id="Handshake">
	<g>
		<g>
			<path class="st0" d="M3.7,18.8c-0.1,0-0.2,0-0.3-0.1l-3.2-1.9c-0.2-0.1-0.3-0.4-0.2-0.7c0.1-0.2,0.4-0.3,0.7-0.2l3.2,1.9
				c0.2,0.1,0.3,0.4,0.2,0.7C4,18.7,3.8,18.8,3.7,18.8z"/>
		</g>
		<g>
			<path class="st0" d="M14.1,6.2c0,0-0.1,0-0.1,0C11.7,5.4,9,5.3,6,5.8C4.8,6,3.5,5.7,2.6,4.9l-2.4-2C0,2.7-0.1,2.4,0.1,2.2
				C0.3,2,0.6,1.9,0.8,2.1l2.4,2C3.9,4.7,4.9,5,5.9,4.8c3.2-0.5,6-0.4,8.4,0.3c0.3,0.1,0.4,0.4,0.3,0.6C14.6,6,14.4,6.2,14.1,6.2z"
				/>
		</g>
		<g>
			<path class="st0" d="M19.1,25.7c-0.7,0-1.4-0.2-2-0.7L14,22.4c-0.2-0.2-0.2-0.5-0.1-0.7s0.5-0.2,0.7-0.1l3,2.6
				c0.4,0.3,0.9,0.5,1.4,0.5c0.6,0,1.1-0.5,1.1-1.1c0-0.3-0.1-0.6-0.4-0.8L14,18c-0.2-0.2-0.2-0.5-0.1-0.7c0.2-0.2,0.5-0.2,0.7-0.1
				l7.1,5.9c0.2,0.2,0.5,0.3,0.8,0.3h0.2c0.7,0,1.2-0.5,1.2-1.2c0-0.4-0.2-0.7-0.4-0.9l-6.9-5.8c-0.2-0.2-0.2-0.5-0.1-0.7
				c0.2-0.2,0.5-0.2,0.7-0.1l7.1,5.9c0.2,0.2,0.5,0.3,0.8,0.3h0.2c0.7,0,1.2-0.6,1.2-1.2c0-0.4-0.2-0.7-0.4-0.9l-9.5-8.3
				c-0.2-0.2-0.2-0.5,0-0.7c0.2-0.2,0.5-0.2,0.7,0l9.5,8.3c0.5,0.4,0.8,1,0.8,1.7c0,1.2-1,2.2-2.2,2.2h-0.2c0,0-0.1,0-0.1,0
				c0,0.1,0,0.2,0,0.3c0,1.2-1,2.2-2.2,2.2h-0.2c-0.5,0-1-0.2-1.4-0.5C21,25,20.1,25.7,19.1,25.7z"/>
		</g>
		<g>
			<path class="st0" d="M15.6,27c-0.5,0-0.9-0.2-1.2-0.5L12.8,25c-0.2-0.2-0.2-0.5,0-0.7c0.2-0.2,0.5-0.2,0.7,0l1.6,1.5
				c0.3,0.3,0.8,0.3,1.1,0c0.4-0.4,0.5-1.1,0.3-1.3c-0.2-0.2-0.2-0.5,0-0.7s0.5-0.2,0.7,0c0.8,0.8,0.3,2.1-0.3,2.7
				C16.5,26.8,16.1,27,15.6,27z"/>
		</g>
		<g>
			<path class="st0" d="M26.3,18.8c-0.2,0-0.3-0.1-0.4-0.2c-0.1-0.2-0.1-0.5,0.2-0.7l3.2-1.9c0.2-0.1,0.5-0.1,0.7,0.2
				c0.1,0.2,0.1,0.5-0.2,0.7l-3.2,1.9C26.5,18.8,26.4,18.8,26.3,18.8z"/>
		</g>
		<g>
			<path class="st0" d="M11.1,14.4h-0.5c-1,0-1.9-0.6-2.3-1.4c-0.5-1-0.3-2.2,0.5-3l3.3-3.3c0,0,0.1-0.1,0.1-0.1
				c0.2-0.1,0.5-0.3,0.7-0.5c1.1-0.7,2.3-1.5,4-1.5c1,0,1.9,0.3,2.8,0.6c1.4,0.5,3,1,5.2,0.7l4.3-3.7c0.2-0.2,0.5-0.2,0.7,0.1
				c0.2,0.2,0.2,0.5-0.1,0.7l-4.4,3.8c-0.1,0.1-0.2,0.1-0.2,0.1c-2.5,0.4-4.2-0.2-5.8-0.7c-0.9-0.3-1.7-0.6-2.5-0.6
				c-1.4,0-2.4,0.7-3.4,1.3C13.2,7,13,7.2,12.8,7.3l-3.3,3.3c-0.5,0.5-0.6,1.2-0.3,1.9c0.3,0.5,0.8,0.9,1.4,0.9h0.5
				c0.4,0,0.7-0.1,1-0.4c0.2-0.2,0.5-0.4,0.8-0.7c1.3-1.1,2.8-2.4,3.8-2.7c0.3-0.1,0.5,0,0.6,0.3c0.1,0.3,0,0.5-0.3,0.6
				c-0.8,0.3-2.3,1.6-3.5,2.5c-0.3,0.3-0.6,0.5-0.8,0.7C12.3,14.2,11.7,14.4,11.1,14.4z"/>
		</g>
		<g>
			<path class="st0" d="M4.9,21.3c-1,0-1.7-0.8-1.7-1.7v-0.3c0-0.3,0.1-0.7,0.3-1l0.7-1c0.3-0.5,0.9-0.8,1.4-0.8
				c1,0,1.7,0.8,1.7,1.7v0.3c0,0.3-0.1,0.7-0.3,1l-0.7,1C6,21,5.5,21.3,4.9,21.3z M5.6,17.5c-0.2,0-0.5,0.1-0.6,0.3l-0.7,1
				c-0.1,0.1-0.1,0.3-0.1,0.4v0.3c0,0.4,0.3,0.7,0.7,0.7c0.2,0,0.5-0.1,0.6-0.3l0.7-1c0.1-0.1,0.1-0.3,0.1-0.4v-0.3
				C6.3,17.9,6,17.5,5.6,17.5z"/>
		</g>
		<g>
			<path class="st0" d="M6.8,23.2c-1,0-1.8-0.8-1.8-1.7v-0.2c0-0.4,0.1-0.7,0.3-1l1.3-1.7C7,18,7.5,17.8,8.1,17.8
				c1,0,1.8,0.8,1.8,1.7v0.2c0,0.4-0.1,0.7-0.3,1l-1.3,1.7C7.9,23,7.4,23.2,6.8,23.2z M8.1,18.8c-0.3,0-0.5,0.1-0.6,0.3l-1.3,1.7
				C6.1,20.9,6,21.1,6,21.2v0.2c0,0.4,0.3,0.7,0.7,0.7c0.3,0,0.5-0.1,0.6-0.3l1.3-1.7c0.1-0.1,0.1-0.3,0.1-0.4v-0.2
				C8.8,19.1,8.5,18.8,8.1,18.8z"/>
		</g>
		<g>
			<path class="st0" d="M9.3,24.5c-1,0-1.8-0.8-1.8-1.7v-0.3c0-0.4,0.1-0.7,0.3-1l1.3-1.7c0.3-0.4,0.8-0.7,1.4-0.7
				c1,0,1.8,0.8,1.8,1.7V21c0,0.4-0.1,0.7-0.3,1l-1.3,1.7C10.4,24.2,9.9,24.5,9.3,24.5z M10.6,20.1c-0.3,0-0.5,0.1-0.6,0.3L8.7,22
				c-0.1,0.1-0.1,0.3-0.1,0.4v0.2c0,0.4,0.3,0.7,0.7,0.7c0.3,0,0.5-0.1,0.6-0.3l1.3-1.7c0.1-0.1,0.1-0.3,0.1-0.4v-0.2
				C11.3,20.4,11,20.1,10.6,20.1z"/>
		</g>
		<g>
			<path class="st0" d="M11.9,25.7c-1,0-1.8-0.8-1.8-1.7v-0.2c0-0.4,0.1-0.7,0.3-1l1.3-1.7c0.3-0.4,0.8-0.7,1.4-0.7
				c1,0,1.8,0.8,1.8,1.7v0.2c0,0.4-0.1,0.7-0.3,1L13.2,25C12.9,25.5,12.4,25.7,11.9,25.7z M13.1,21.3c-0.3,0-0.5,0.1-0.6,0.3
				l-1.3,1.7c-0.1,0.1-0.1,0.3-0.1,0.4V24c0,0.4,0.3,0.7,0.7,0.7c0.3,0,0.5-0.1,0.6-0.3l1.3-1.7c0.1-0.1,0.1-0.3,0.1-0.4V22
				C13.9,21.6,13.5,21.3,13.1,21.3z"/>
		</g>
	</g>
</g>
<g id="Minimize">
</g>
<g id="Maximize">
</g>
<g id="Diamond">
</g>
<g id="Stop">
</g>
<g id="Shuffle">
</g>
<g id="Undo">
</g>
<g id="Upgrade">
</g>
<g id="Coding">
</g>
<g id="Syncronizaion">
</g>
<g id="Radio">
</g>
<g id="Presentation">
</g>
<g id="Door">
</g>
<g id="Thumbs_Up">
</g>
<g id="Thumbs_Down">
</g>
<g id="Keyboard">
</g>
<g id="_x33_D_Cube">
</g>
<g id="Signal">
</g>
<g id="Dice">
</g>
<g id="Upload">
</g>
<g id="Download">
</g>
<g id="Plugin_2">
</g>
<g id="Shopping_Bag">
</g>
<g id="Lifebelt">
</g>
<g id="Glasses">
</g>
<g id="Parabolic_Antenna">
</g>
<g id="Loudspeaker">
</g>
<g id="Play">
</g>
<g id="Pause">
</g>
<g id="Signpost">
</g>
<g id="Bluetooth">
</g>
<g id="Present">
</g>
<g id="Ruler">
</g>
<g id="Connection">
</g>
<g id="Money">
</g>
<g id="Paper_Plane">
</g>
<g id="Wallet_2">
</g>
</svg>
