<?xml version="1.0" encoding="utf-8"?>
<!-- Generator: Adobe Illustrator 25.1.0, SVG Export Plug-In . SVG Version: 6.00 Build 0)  -->
<svg version="1.1" id="Layer_1" xmlns="http://www.w3.org/2000/svg" xmlns:xlink="http://www.w3.org/1999/xlink" x="0px" y="0px"
	 viewBox="0 0 30 30" style="enable-background:new 0 0 30 30;" xml:space="preserve">
<style type="text/css">
	.st0{fill:#74CDC1;}
</style>
<g>
	<g>
		<path class="st0" d="M14.5,12c1.9,0,3.5-1.6,3.5-3.5S16.4,5,14.5,5S11,6.6,11,8.5S12.6,12,14.5,12z M14.5,6C15.9,6,17,7.1,17,8.5
			S15.9,11,14.5,11S12,9.9,12,8.5S13.1,6,14.5,6z M19,21h-1v-7.5c0-0.3-0.2-0.5-0.5-0.5H12c-1.1,0-2,0.9-2,2s0.9,2,2,2h1v4h-1
			c-1.1,0-2,0.9-2,2s0.9,2,2,2h7c1.1,0,2-0.9,2-2S20.1,21,19,21z M19,24h-7c-0.6,0-1-0.4-1-1s0.4-1,1-1h1.5c0.3,0,0.5-0.2,0.5-0.5
			v-5c0-0.3-0.2-0.5-0.5-0.5H12c-0.6,0-1-0.4-1-1s0.4-1,1-1h5v7.5c0,0.3,0.2,0.5,0.5,0.5H19c0.6,0,1,0.4,1,1S19.6,24,19,24z M15,0
			C6.7,0,0,6.7,0,15s6.7,15,15,15s15-6.7,15-15S23.3,0,15,0z M15,29C7.3,29,1,22.7,1,15S7.3,1,15,1s14,6.3,14,14S22.7,29,15,29z"/>
	</g>
</g>
</svg>
