<?xml version="1.0" encoding="utf-8"?>
<!-- Generator: Adobe Illustrator 25.1.0, SVG Export Plug-In . SVG Version: 6.00 Build 0)  -->
<svg version="1.1" id="Layer_1" xmlns="http://www.w3.org/2000/svg" xmlns:xlink="http://www.w3.org/1999/xlink" x="0px" y="0px"
	 viewBox="0 0 30 30" style="enable-background:new 0 0 30 30;" xml:space="preserve">
<style type="text/css">
	.st0{fill:#74CDC1;}
</style>
<g>
	<g>
		<path class="st0" d="M5.5,22h20c0.3,0,0.5-0.2,0.5-0.5v-10c0-0.3-0.2-0.5-0.5-0.5H16V7.5C16,7.2,15.8,7,15.5,7h-10
			C5.2,7,5,7.2,5,7.5v14C5,21.8,5.2,22,5.5,22z M20,12h1v1h-1V12z M16,12h3v1.5c0,0.3,0.2,0.5,0.5,0.5h2c0.3,0,0.5-0.2,0.5-0.5V12h3
			v9h-9V12z M10,8h1v3h-1V8z M6,8h3v3.5C9,11.8,9.2,12,9.5,12h2c0.3,0,0.5-0.2,0.5-0.5V8h3v13H6V8z M28,23c-0.1,0-0.2,0-0.3,0
			c-0.1,0-0.1,0-0.2,0H4V3.5c0-0.2-0.1-0.3-0.2-0.4C3.7,3,3.5,3,3.3,3l-3,1C0.1,4.1-0.1,4.4,0,4.7C0.1,4.9,0.4,5.1,0.7,5L3,4.2V23
			c-1.1,0-2,0.9-2,2s0.9,2,2,2s2-0.9,2-2c0-0.4-0.1-0.7-0.3-1h21.6c-0.2,0.3-0.3,0.6-0.3,1c0,1.1,0.9,2,2,2s2-0.9,2-2S29.1,23,28,23
			z M3,26c-0.6,0-1-0.4-1-1s0.4-1,1-1s1,0.4,1,1S3.6,26,3,26z M28,26c-0.6,0-1-0.4-1-1s0.4-1,1-1s1,0.4,1,1S28.6,26,28,26z"/>
	</g>
</g>
</svg>
