<?xml version="1.0" encoding="utf-8"?>
<!-- Generator: Adobe Illustrator 25.1.0, SVG Export Plug-In . SVG Version: 6.00 Build 0)  -->
<svg version="1.1" id="Layer_1" xmlns="http://www.w3.org/2000/svg" xmlns:xlink="http://www.w3.org/1999/xlink" x="0px" y="0px"
	 viewBox="0 0 30 30" style="enable-background:new 0 0 30 30;" xml:space="preserve">
<style type="text/css">
	.st0{fill:#74CDC1;}
</style>
<g id="Flag">
</g>
<g id="Umbrella">
</g>
<g id="Briefcase">
</g>
<g id="Box">
</g>
<g id="Magnet">
</g>
<g id="Percent">
</g>
<g id="Rocket">
</g>
<g id="Share">
</g>
<g id="Transmitter">
</g>
<g id="Record_2">
</g>
<g id="Record_1">
</g>
<g id="Anchor">
</g>
<g id="Airplane">
</g>
<g id="Car">
</g>
<g id="Newsfeed">
</g>
<g id="Wifi_Tethering">
</g>
<g id="No_Wifi_Tethering">
</g>
<g id="Bar_Chart_2">
	<g>
		<g>
			<path class="st0" d="M29.5,30h-29C0.2,30,0,29.8,0,29.5S0.2,29,0.5,29h29c0.3,0,0.5,0.2,0.5,0.5S29.8,30,29.5,30z"/>
		</g>
		<g>
			<path class="st0" d="M6.5,30h-4C2.2,30,2,29.8,2,29.5v-8C2,21.2,2.2,21,2.5,21h4C6.8,21,7,21.2,7,21.5v8C7,29.8,6.8,30,6.5,30z
				 M3,29h3v-7H3V29z"/>
		</g>
		<g>
			<path class="st0" d="M13.5,30h-4C9.2,30,9,29.8,9,29.5v-14C9,15.2,9.2,15,9.5,15h4c0.3,0,0.5,0.2,0.5,0.5v14
				C14,29.8,13.8,30,13.5,30z M10,29h3V16h-3V29z"/>
		</g>
		<g>
			<path class="st0" d="M20.5,30h-4c-0.3,0-0.5-0.2-0.5-0.5v-11c0-0.3,0.2-0.5,0.5-0.5h4c0.3,0,0.5,0.2,0.5,0.5v11
				C21,29.8,20.8,30,20.5,30z M17,29h3V19h-3V29z"/>
		</g>
		<g>
			<path class="st0" d="M27.5,30h-4c-0.3,0-0.5-0.2-0.5-0.5v-19c0-0.3,0.2-0.5,0.5-0.5h4c0.3,0,0.5,0.2,0.5,0.5v19
				C28,29.8,27.8,30,27.5,30z M24,29h3V11h-3V29z"/>
		</g>
		<g>
			<path class="st0" d="M4.5,16C3.1,16,2,14.9,2,13.5S3.1,11,4.5,11S7,12.1,7,13.5S5.9,16,4.5,16z M4.5,12C3.7,12,3,12.7,3,13.5
				S3.7,15,4.5,15S6,14.3,6,13.5S5.3,12,4.5,12z"/>
		</g>
		<g>
			<path class="st0" d="M11.5,10C10.1,10,9,8.9,9,7.5S10.1,5,11.5,5S14,6.1,14,7.5S12.9,10,11.5,10z M11.5,6C10.7,6,10,6.7,10,7.5
				S10.7,9,11.5,9S13,8.3,13,7.5S12.3,6,11.5,6z"/>
		</g>
		<g>
			<path class="st0" d="M18.5,13c-1.4,0-2.5-1.1-2.5-2.5S17.1,8,18.5,8S21,9.1,21,10.5S19.9,13,18.5,13z M18.5,9
				C17.7,9,17,9.7,17,10.5s0.7,1.5,1.5,1.5s1.5-0.7,1.5-1.5S19.3,9,18.5,9z"/>
		</g>
		<g>
			<path class="st0" d="M25.5,5C24.1,5,23,3.9,23,2.5S24.1,0,25.5,0S28,1.1,28,2.5S26.9,5,25.5,5z M25.5,1C24.7,1,24,1.7,24,2.5
				S24.7,4,25.5,4S27,3.3,27,2.5S26.3,1,25.5,1z"/>
		</g>
		<g>
			<path class="st0" d="M6,12.7c-0.1,0-0.3-0.1-0.4-0.2c-0.2-0.2-0.2-0.5,0.1-0.7l4-3.4c0.2-0.2,0.5-0.2,0.7,0.1
				c0.2,0.2,0.2,0.5-0.1,0.7l-4,3.4C6.2,12.7,6.1,12.7,6,12.7z"/>
		</g>
		<g>
			<path class="st0" d="M19.8,9.5c-0.1,0-0.2,0-0.3-0.1c-0.2-0.2-0.2-0.5,0-0.7l4.4-5c0.2-0.2,0.5-0.2,0.7,0c0.2,0.2,0.2,0.5,0,0.7
				l-4.4,5C20.1,9.4,19.9,9.5,19.8,9.5z"/>
		</g>
		<g>
			<path class="st0" d="M16.7,10.2c-0.1,0-0.1,0-0.2,0l-3.3-1.4c-0.3-0.1-0.4-0.4-0.3-0.7c0.1-0.3,0.4-0.4,0.7-0.3l3.3,1.4
				c0.3,0.1,0.4,0.4,0.3,0.7C17,10.1,16.9,10.2,16.7,10.2z"/>
		</g>
	</g>
</g>
<g id="Shop">
</g>
<g id="Alarm">
</g>
<g id="Sim_Card">
</g>
<g id="Radar">
</g>
<g id="Hand_2">
</g>
<g id="Palette">
</g>
<g id="Cake">
</g>
<g id="Blende">
</g>
<g id="Feather_Pen">
</g>
<g id="Ticket">
</g>
<g id="Medal">
</g>
<g id="Mouse_Pointer_1">
</g>
<g id="Mouse_Pointer_2">
</g>
<g id="Fingerprint">
</g>
<g id="Earth">
</g>
</svg>
