<?xml version="1.0" encoding="utf-8"?>
<!-- Generator: Adobe Illustrator 25.1.0, SVG Export Plug-In . SVG Version: 6.00 Build 0)  -->
<svg version="1.1" id="Layer_1" xmlns="http://www.w3.org/2000/svg" xmlns:xlink="http://www.w3.org/1999/xlink" x="0px" y="0px"
	 viewBox="0 0 30 30" style="enable-background:new 0 0 30 30;" xml:space="preserve">
<style type="text/css">
	.st0{fill:#74CDC1;}
</style>
<g>
	<g>
		<path class="st0" d="M7.5,17h6c0.3,0,0.5-0.2,0.5-0.5v-6c0-0.3-0.2-0.5-0.5-0.5h-6C7.2,10,7,10.2,7,10.5v6C7,16.8,7.2,17,7.5,17z
			 M8,11h5v5H8V11z M13.5,23.5c-0.3,0-0.5,0.2-0.5,0.5v2H8v-5h4c0.3,0,0.5-0.2,0.5-0.5S12.3,20,12,20H7.5C7.2,20,7,20.2,7,20.5v6
			C7,26.8,7.2,27,7.5,27h6c0.3,0,0.5-0.2,0.5-0.5V24C14,23.7,13.8,23.5,13.5,23.5z M22.5,23h-7c-0.3,0-0.5,0.2-0.5,0.5
			s0.2,0.5,0.5,0.5h7c0.3,0,0.5-0.2,0.5-0.5S22.8,23,22.5,23z M14.1,20.1l-3.6,3.6l-1.1-1.1c-0.2-0.2-0.5-0.2-0.7,0s-0.2,0.5,0,0.7
			l1.5,1.5c0.1,0.1,0.2,0.1,0.4,0.1s0.3,0,0.4-0.1l4-4c0.2-0.2,0.2-0.5,0-0.7S14.3,20,14.1,20.1z M24.3,2h-3.4c-0.2-0.6-0.8-1-1.4-1
			H17c-0.5-0.6-1.2-1-2-1s-1.5,0.4-2,1h-2.5C9.9,1,9.3,1.4,9.1,2H5.7C4.8,2,4,2.8,4,3.8v24.4c0,1,0.8,1.8,1.7,1.8h18.5
			c1,0,1.7-0.8,1.7-1.8V3.8C26,2.8,25.2,2,24.3,2z M10,2.5C10,2.2,10.2,2,10.5,2h2.8c0.2,0,0.3-0.1,0.4-0.2C14,1.3,14.5,1,15,1
			s1,0.3,1.3,0.8C16.4,1.9,16.5,2,16.7,2h2.8C19.8,2,20,2.2,20,2.5V3H10V2.5z M25,28.2c0,0.4-0.3,0.8-0.7,0.8H5.7
			C5.3,29,5,28.6,5,28.2V3.8C5,3.4,5.3,3,5.7,3H9v0.5C9,3.8,9.2,4,9.5,4h11C20.8,4,21,3.8,21,3.5V3h3.3C24.7,3,25,3.4,25,3.8V28.2z
			 M22.5,13h-7c-0.3,0-0.5,0.2-0.5,0.5s0.2,0.5,0.5,0.5h7c0.3,0,0.5-0.2,0.5-0.5S22.8,13,22.5,13z"/>
	</g>
</g>
</svg>
