<?xml version="1.0" encoding="utf-8"?>
<!-- Generator: Adobe Illustrator 25.1.0, SVG Export Plug-In . SVG Version: 6.00 Build 0)  -->
<svg version="1.1" id="Layer_1" xmlns="http://www.w3.org/2000/svg" xmlns:xlink="http://www.w3.org/1999/xlink" x="0px" y="0px"
	 viewBox="0 0 30 30" style="enable-background:new 0 0 30 30;" xml:space="preserve">
<style type="text/css">
	.st0{fill:#74CDC1;}
</style>
<g>
	<g>
		<path id="XMLID_14_" class="st0" d="M19.5,19h-1c-0.3,0-0.5-0.2-0.5-0.5s0.2-0.5,0.5-0.5h1c0.3,0,0.5,0.2,0.5,0.5S19.8,19,19.5,19
			z"/>
	</g>
	<g>
		<path id="XMLID_13_" class="st0" d="M21.5,24h-13C8.2,24,8,23.8,8,23.5S8.2,23,8.5,23h13c0.3,0,0.5,0.2,0.5,0.5S21.8,24,21.5,24z"
			/>
	</g>
	<g>
		<path id="XMLID_12_" class="st0" d="M23.5,16h-8c-0.3,0-0.5-0.2-0.5-0.5v-5c0-0.3,0.2-0.5,0.5-0.5s0.5,0.2,0.5,0.5V15h7.5
			c0.3,0,0.5,0.2,0.5,0.5S23.8,16,23.5,16z"/>
	</g>
	<g>
		<path id="XMLID_11_" class="st0" d="M11.5,12h-7C4.2,12,4,11.8,4,11.5S4.2,11,4.5,11h7c0.3,0,0.5,0.2,0.5,0.5S11.8,12,11.5,12z"/>
	</g>
	<g>
		<path id="XMLID_10_" class="st0" d="M14.5,9h-10C4.2,9,4,8.8,4,8.5S4.2,8,4.5,8h10C14.8,8,15,8.2,15,8.5S14.8,9,14.5,9z"/>
	</g>
	<g>
		<path id="XMLID_9_" class="st0" d="M11.5,15h-7C4.2,15,4,14.8,4,14.5S4.2,14,4.5,14h7c0.3,0,0.5,0.2,0.5,0.5S11.8,15,11.5,15z"/>
	</g>
	<g>
		<path id="XMLID_8_" class="st0" d="M27,24c-0.3,0-0.5-0.2-0.5-0.5S26.7,23,27,23c1.1,0,2-0.9,2-2v-3.8c0-0.3-0.2-0.6-0.6-0.7
			c-1.1-0.3-2.1-0.8-2.9-1.6l-5.7-5.6c-0.4-0.4-0.9-0.6-1.4-0.6c-0.2,0-0.3-0.1-0.4-0.2l-2.4-3.2C15.5,5.1,15.2,5,15,5H1.8
			C1.3,5,1,5.3,1,5.7L1,21c0,1.1,0.9,2,2,2c0.3,0,0.5,0.2,0.5,0.5S3.3,24,3,24c-1.7,0-3-1.3-3-3L0,5.7C0,4.8,0.8,4,1.8,4H15
			c0.6,0,1.1,0.3,1.4,0.7l2.2,3c0.7,0.1,1.4,0.4,1.9,0.9l5.7,5.6c0.7,0.7,1.5,1.1,2.5,1.4c0.8,0.2,1.3,0.9,1.3,1.7V21
			C30,22.7,28.6,24,27,24z"/>
	</g>
	<g>
		<path id="XMLID_5_" class="st0" d="M24,26c-1.7,0-3-1.4-3-3c0-1.7,1.4-3,3-3s3,1.4,3,3C27,24.7,25.7,26,24,26z M24,21
			c-1.1,0-2,0.9-2,2c0,1.1,0.9,2,2,2s2-0.9,2-2C26,21.9,25.1,21,24,21z"/>
	</g>
	<g>
		<path id="XMLID_2_" class="st0" d="M6,26c-1.7,0-3-1.3-3-3s1.3-3,3-3s3,1.3,3,3S7.7,26,6,26z M6,21c-1.1,0-2,0.9-2,2s0.9,2,2,2
			s2-0.9,2-2S7.1,21,6,21z"/>
	</g>
</g>
<g id="XMLID_1_">
</g>
<g id="XMLID_15_">
</g>
<g id="XMLID_16_">
</g>
<g id="XMLID_17_">
</g>
<g id="XMLID_18_">
</g>
<g id="XMLID_19_">
</g>
<g id="XMLID_20_">
</g>
<g id="XMLID_21_">
</g>
<g id="XMLID_22_">
</g>
<g id="XMLID_23_">
</g>
<g id="XMLID_24_">
</g>
<g id="XMLID_25_">
</g>
<g id="XMLID_26_">
</g>
<g id="XMLID_27_">
</g>
<g id="XMLID_28_">
</g>
</svg>
