<?xml version="1.0" encoding="UTF-8"?>
<svg width="76px" height="72px" viewBox="0 0 76 72" version="1.1" xmlns="http://www.w3.org/2000/svg" xmlns:xlink="http://www.w3.org/1999/xlink">
    <title>5DE286EC-0CE6-4DC5-8375-FC85ACAE9A61</title>
    <defs>
        <filter x="-1.1%" y="-13.3%" width="102.2%" height="126.5%" filterUnits="objectBoundingBox" id="filter-1">
            <feOffset dx="0" dy="0" in="SourceAlpha" result="shadowOffsetOuter1"></feOffset>
            <feGaussianBlur stdDeviation="3" in="shadowOffsetOuter1" result="shadowBlurOuter1"></feGaussianBlur>
            <feColorMatrix values="0 0 0 0 0   0 0 0 0 0   0 0 0 0 0  0 0 0 0.260462194 0" type="matrix" in="shadowBlurOuter1" result="shadowMatrixOuter1"></feColorMatrix>
            <feMerge>
                <feMergeNode in="shadowMatrixOuter1"></feMergeNode>
                <feMergeNode in="SourceGraphic"></feMergeNode>
            </feMerge>
        </filter>
    </defs>
    <g id="Filigreen-2.5-Source" stroke="none" stroke-width="1" fill="none" fill-rule="evenodd">
        <g id="Marketplace-Brand" transform="translate(-663.000000, -268.000000)" stroke="#195458" stroke-width="1.40804258">
            <g id="Group-2" filter="url(#filter-1)" transform="translate(256.000000, 264.000000)">
                <g id="C--Flowers-Copy-4" transform="translate(395.000000, 0.000000)">
                    <g id="black-icons-64px-01" transform="translate(22.224490, 13.000000)">
                        <path d="M51.7372579,27.6671746 C51.7136998,41.7758264 40.1447371,53.196431 25.8921086,53.1809065 C11.6394802,53.1653503 0.0959612274,41.7195451 0.103796953,27.6108762 C0.11164066,13.5022072 11.6678727,2.06896052 25.9205098,2.06896052 C27.1013431,2.08598918 28.2797578,2.18006269 29.4480875,2.35056904 C29.4480875,2.35056904 26.3187847,5.82843421 27.8265397,9.10917342 C29.1493813,11.9956607 32.5916144,11.6436501 32.7765277,12.3335909 C32.9614411,13.0235318 29.376967,17.9657612 34.0851453,21.8801196 C38.7933236,25.794478 43.4019331,22.4292562 44.0420178,22.7953473 C44.6821025,23.1614384 44.9665845,26.0056844 47.9394222,27.1039576 C49.1578338,27.5283976 50.4466868,27.7195338 51.7372579,27.6671746 Z" id="Path"></path>
                        <path d="M43.103227,1.29453711 C44.4405597,0.508223955 46.1503663,0.748341492 47.2139929,1.87183456 C47.8823057,3.06783029 47.4658479,4.57317152 46.2752021,5.26521718 C45.2113678,6.14139083 43.6339658,6.0097007 42.7334003,4.96952824 C41.8676594,3.83706273 42.0288117,2.2356826 43.103227,1.29453711 L43.103227,1.29453711 Z" id="Path"></path>
                        <path d="M43.9424491,13.5445075 C43.9424491,14.6709416 42.2497807,15.6002497 41.86573,15.6002497 C40.6627175,15.6153788 39.6429716,14.7275533 39.5045288,13.5445075 C39.6362198,12.355868 40.6578489,11.4603108 41.86573,11.474685 C42.4189835,11.4746721 42.9493722,11.6931904 43.3392441,12.0817675 C43.7291159,12.4703447 43.9462385,12.9968553 43.9424491,13.5445075 Z" id="Path"></path>
                        <path d="M54.4398375,16.7970859 C54.4398375,17.4588659 53.6148395,17.9798417 53.0174272,17.9798417 C52.6980826,17.9836053 52.3905073,17.8606573 52.1633483,17.6384383 C51.9361894,17.4162194 51.8083784,17.1132271 51.8083784,16.7970859 C51.8083784,16.1353059 52.3488943,15.3186412 53.0174272,15.3186412 C53.7657998,15.45301 54.3407433,16.0506028 54.4398375,16.7970859 L54.4398375,16.7970859 Z" id="Path"></path>
                        <path d="M47.9394222,27.1039576 C44.9808086,25.9493627 44.5825337,23.1614384 44.0277937,22.7953473 C43.7575357,22.6123018 42.5200387,23.3304035 40.770474,23.6542533 C40.8725815,24.3065158 40.9248847,24.9654684 40.9269391,25.6255129 C40.9653986,29.5083049 39.4232335,33.2429557 36.6481981,35.9873115 C33.8731627,38.7316673 30.0989171,40.254651 26.1765437,40.212834 C22.2697028,40.1619416 18.5379238,38.6004204 15.7787239,35.8619824 L17.1157897,34.1864117 C19.5975463,36.2678963 22.6777822,37.5239968 25.9205098,37.7769203 C36.2756572,37.5938748 39.7605626,28.9344129 38.4519451,23.6964945 C36.8901464,23.4384805 35.4210902,22.7889301 34.184714,21.8097175 C29.4765357,17.8812787 33.0752339,12.9390492 32.8760965,12.2631888 C32.676959,11.5873284 29.2489501,11.9252586 27.9261084,9.03877129 C26.361457,5.82843421 29.4480875,2.35056904 29.4480875,2.35056904 C28.2797578,2.18006269 27.1013431,2.08598918 25.9205098,2.06896052 C11.6678727,2.06896052 0.11164066,13.5022072 0.103796953,27.6108762 C0.0959612274,41.7195451 11.6394802,53.1653503 25.8921086,53.1809065 C40.1447371,53.196431 51.7136998,41.7758264 51.7372579,27.6671746 C50.4466868,27.7195338 49.1578338,27.5283976 47.9394222,27.1039576 L47.9394222,27.1039576 Z M18.0688046,22.753106 C18.2932803,23.6118513 18.0959012,24.5251006 17.5361245,25.2177537 C16.9763477,25.9104067 16.1196083,26.3014959 15.2239839,26.2732125 M26.6032668,14.8680676 C26.6423942,15.5680353 26.38852,16.2530491 25.9013901,16.7618999 C25.4142602,17.2707507 24.7368952,17.5584997 24.028704,17.5574319" id="Shape" stroke-linecap="round" stroke-linejoin="round"></path>
                    </g>
                </g>
            </g>
        </g>
    </g>
</svg>