<?xml version="1.0" encoding="UTF-8"?>
<svg width="72px" height="72px" viewBox="0 0 72 72" version="1.1" xmlns="http://www.w3.org/2000/svg" xmlns:xlink="http://www.w3.org/1999/xlink">
    <title>3BE19B1B-5095-4D2A-8FFE-E2B0BFAD98D3</title>
    <defs>
        <filter x="-1.1%" y="-13.3%" width="102.2%" height="126.5%" filterUnits="objectBoundingBox" id="filter-1">
            <feOffset dx="0" dy="0" in="SourceAlpha" result="shadowOffsetOuter1"></feOffset>
            <feGaussianBlur stdDeviation="3" in="shadowOffsetOuter1" result="shadowBlurOuter1"></feGaussianBlur>
            <feColorMatrix values="0 0 0 0 0   0 0 0 0 0   0 0 0 0 0  0 0 0 0.260462194 0" type="matrix" in="shadowBlurOuter1" result="shadowMatrixOuter1"></feColorMatrix>
            <feMerge>
                <feMergeNode in="shadowMatrixOuter1"></feMergeNode>
                <feMergeNode in="SourceGraphic"></feMergeNode>
            </feMerge>
        </filter>
    </defs>
    <g id="Filigreen-2.5-Source" stroke="none" stroke-width="1" fill="none" fill-rule="evenodd" stroke-linejoin="round">
        <g id="Marketplace-Brand" transform="translate(-270.000000, -268.000000)" stroke="#195458" stroke-width="1.225">
            <g id="Group-2" filter="url(#filter-1)" transform="translate(256.000000, 264.000000)">
                <g id="black-icons-64px-04" transform="translate(23.512500, 14.700000)">
                    <path d="M29.464875,29.2775 C29.464875,29.547 28.549125,34.1775 28.598625,34.1775 C28.648125,34.1775 33.63525,21.32725 34.117875,20.54325 C34.439625,20.00425 34.711875,19.39175 34.984125,18.816 C35.256375,18.24025 38.696625,12.53175 39.3525,11.72325 C39.562875,11.466 42.483375,6.958 42.966,6.0025 C42.966,5.929 43.176375,6.16175 43.126875,6.33325 C42.89175,7.21525 42.607125,8.09725 42.433875,8.9915 C42.2876369,9.74206608 42.2212744,10.5057381 42.235875,11.27 C41.9387707,13.9696211 41.4382516,16.6434853 40.7385,19.26925 C39.269812,23.2333035 37.3955678,27.0383358 35.145,30.625 C34.835625,31.05375 33.9075,32.67075 33.68475,33.0015 C33.462,33.33225 31.865625,35.574 31.296375,36.27225 C31.172625,36.4315 36.246375,32.35225 40.627125,29.16725 C42.9885254,27.4652494 45.5530182,26.0581224 48.2625,24.97775 C49.3313713,24.6357176 50.3771187,24.2265538 51.393375,23.75275 C51.814125,23.569 51.678,24.2305 51.145875,24.70825 C48.9020135,27.4237023 46.4838883,29.9933491 43.9065,32.40125 C41.6941166,34.2971153 39.3218296,36.0020071 36.815625,37.49725 C36.2094827,37.9605845 35.5635152,38.3704836 34.885125,38.72225 C33.796125,39.26125 32.64525,39.7145 31.543875,40.229 C31.370625,40.3025 31.147875,40.5475 31.16025,40.6945 C31.172625,40.8415 31.469625,40.8905 31.692375,40.866 C32.4225,40.768 36.716625,40.65775 36.790875,40.6455 C37.4715,40.6455 40.082625,41.02525 40.354875,41.0375 C40.627125,41.04975 42.075,41.405 42.235875,41.46625 C44.166375,41.944 46.616625,43.35275 46.20825,43.57325 C45.552375,43.9285 44.6985,43.57325 43.956,43.57325 C43.5393647,43.5958944 43.1253992,43.6532642 42.7185,43.74475 C41.65425,43.96525 36.432,45.129 32.8185,43.9285 C31.878,43.69575 30.974625,43.316 30.058875,43.00975 C29.502,42.826 29.3535,42.61775 28.821375,42.44625 C28.28925,42.27475 28.301625,42.44625 28.23975,42.875 C28.153125,44.40625 28.747125,46.991 28.054125,50.225 C28.054125,50.813 26.816625,50.6415 26.816625,50.50675 C27.1402725,48.5351636 27.2233684,46.5322173 27.064125,44.541 C27.0263461,44.1269855 26.9518082,43.7170688 26.841375,43.316 C26.7795,43.00975 26.60625,42.8995 26.296875,43.0955 C24.9583878,43.748259 23.5871025,44.3329369 22.188375,44.84725 C21.569625,45.1045 20.950875,45.325 20.307375,45.55775 C20.084625,45.6435 19.8495,45.68025 19.62675,45.75375 C17.1102821,46.3296432 14.5660425,46.7793825 12.00375,47.10125 C13.2244149,45.7324976 14.5617156,44.4701815 16.000875,43.32825 C18.1665989,41.9076433 20.771974,41.2954426 23.351625,41.601 C23.5125,41.601 23.054625,41.17225 22.94325,41.07425 C22.7602477,40.8986264 22.5405985,40.7648231 22.29975,40.68225 C20.777625,40.131 19.2555,39.60425 17.721,39.08975 C17.362125,38.96725 13.575375,36.86025 13.352625,36.76225 C10.731018,35.0802604 8.33226855,33.0802316 6.21225,30.80875 C5.952375,30.66175 1.26225,25.90875 0.6435,25.44325 C0.51975,25.3575 0.86625,25.235 1.150875,25.34525 L6.9795,27.489 C7.69725,27.7585 8.427375,27.9545 9.13275,28.224 C9.367875,28.322 11.521125,29.449 11.85525,29.70625 C12.189375,29.9635 14.33025,31.32325 14.689125,31.5805 C15.048,31.83775 15.555375,32.242 15.926625,32.5605 C16.000875,32.5605 23.450625,37.6075 23.351625,37.52175 C23.079375,37.22775 22.77,36.9705 22.485375,36.6765 C22.3194559,36.5170573 22.1663658,36.3450346 22.0275,36.162 C21.65625,35.721 21.322125,35.2555 20.950875,34.82675 C20.579625,34.398 20.257875,34.11625 19.911375,33.74875 C19.342125,33.13625 18.772875,32.52375 18.216,31.88675 C16.1656118,29.3487457 14.4367568,26.5718479 13.068,23.618 C11.1892438,19.2476297 9.64624024,14.7431808 8.452125,10.143 C8.37619243,9.78305571 8.28118619,9.42731426 8.1675,9.07725 C8.03494387,8.61213751 7.87798082,8.1541826 7.69725,7.70525 C7.54588455,7.37831004 7.44173886,7.03191518 7.387875,6.67625 C8.155125,7.90125 13.699125,14.8715 14.045625,15.4105 C14.392125,15.9495 19.837125,24.353 19.985625,24.745 C20.134125,25.137 21.866625,27.685 22.064625,28.224 C22.262625,28.763 25.405875,34.50825 25.3935,34.349 C25.3935,33.7365 25.26975,33.124 25.207875,32.536 C25.146,31.948 25.07175,31.311 24.9975,30.78425 C24.9432253,30.562203 24.901907,30.3372477 24.87375,30.1105 C24.87375,29.645 24.87375,29.16725 24.7995,28.6895 C24.7805257,28.4623431 24.7432827,28.2370457 24.688125,28.01575 C24.3004401,25.4660239 24.1307134,22.8884698 24.18075,20.3105 C24.2883976,17.6441366 24.5778059,14.9880115 25.047,12.36025 C25.047,12.18875 26.01225,7.63175 26.222625,7.2275 C26.433,6.82325 27.559125,1.77625 27.732375,0.69825 C27.732375,0.55125 27.979875,0.35525 27.979875,0.4165 C28.33875,2.70725 30.26925,12.80125 30.454875,18.14225 C30.4129244,21.8735948 30.0819539,25.5962603 29.464875,29.2775 L29.464875,29.2775 Z" id="Path"></path>
                </g>
            </g>
        </g>
    </g>
</svg>