<?xml version="1.0" encoding="UTF-8"?>
<svg width="54px" height="82px" viewBox="0 0 54 82" version="1.1" xmlns="http://www.w3.org/2000/svg" xmlns:xlink="http://www.w3.org/1999/xlink">
    <title>C22DEDC3-CE03-4D6A-8104-5CCCEA66B348</title>
    <defs>
        <filter x="-1.1%" y="-13.3%" width="102.2%" height="126.5%" filterUnits="objectBoundingBox" id="filter-1">
            <feOffset dx="0" dy="0" in="SourceAlpha" result="shadowOffsetOuter1"></feOffset>
            <feGaussianBlur stdDeviation="3" in="shadowOffsetOuter1" result="shadowBlurOuter1"></feGaussianBlur>
            <feColorMatrix values="0 0 0 0 0   0 0 0 0 0   0 0 0 0 0  0 0 0 0.260462194 0" type="matrix" in="shadowBlurOuter1" result="shadowMatrixOuter1"></feColorMatrix>
            <feMerge>
                <feMergeNode in="shadowMatrixOuter1"></feMergeNode>
                <feMergeNode in="SourceGraphic"></feMergeNode>
            </feMerge>
        </filter>
    </defs>
    <g id="Filigreen-2.5-Source" stroke="none" stroke-width="1" fill="none" fill-rule="evenodd" stroke-linejoin="round">
        <g id="Marketplace-Brand" transform="translate(-772.000000, -265.000000)" stroke="#195458" stroke-width="1.45031712">
            <g id="Group-2" filter="url(#filter-1)" transform="translate(256.000000, 264.000000)">
                <g id="C--Flowers-Copy-5" transform="translate(493.000000, 0.000000)">
                    <g id="black-icons-64px-02" transform="translate(33.412500, 11.025000)">
                        <rect id="Rectangle" x="15.6066279" y="31.779556" width="17.5813953" height="29.0063425" rx="1.62435518"></rect>
                        <rect id="Rectangle" x="18.5368605" y="28.8789218" width="11.7209302" height="2.90063425"></rect>
                        <path d="M2.71360465,38.7700846 C3.75383721,42.1783298 4.64755814,43.0340169 4.73546512,44.5713531 C4.83802326,46.6163002 3.59267442,47.3849683 2.27406977,47.3124524 C0.955465116,47.2399366 -0.0554651163,46.1376956 0.413372093,43.7591755 C0.720113964,41.9238017 1.51393362,40.2020461 2.71360465,38.7700846 L2.71360465,38.7700846 Z" id="Path"></path>
                        <path d="M32.1038372,5.15173362 C32.8183269,4.29678876 33.0177808,3.12946166 32.6270665,2.08947318 C32.2363522,1.04948469 31.3148285,0.294833819 30.2096246,0.10979025 C29.1044206,-0.0752533193 27.9834431,0.337422939 27.2689535,1.19236786 L21.8333721,7.71879493 L26.7122093,11.6636575 L32.1038372,5.15173362 Z" id="Path"></path>
                        <path d="M2.8894186,33.2588795 C2.65111894,33.5281544 2.53500043,33.8824949 2.56824121,34.2389658 C2.60148198,34.5954368 2.78116429,34.9227484 3.06523256,35.1442918 C3.33256117,35.3654107 3.67815775,35.471445 4.02495772,35.4387501 C4.37175768,35.4060551 4.69092158,35.2373498 4.91127907,34.9702537 L21.2766279,15.3039535 L19.2401163,13.650592 L2.8894186,33.2588795 Z" id="Path"></path>
                        <path d="M17.2661465,8.99817981 L27.2292187,8.9485693 C28.9333493,8.94008369 30.321699,10.3146755 30.3301846,12.0188061 C30.3302357,12.0290589 30.3302356,12.0393119 30.3301845,12.0495648 L30.3299667,12.0932238 C30.3214752,13.7952472 28.9438045,15.1729047 27.241781,15.1813798 L17.2787088,15.2309904 C15.5745783,15.239476 14.1862286,13.8648841 14.1777429,12.1607536 C14.1776919,12.1505007 14.1776919,12.1402477 14.1777431,12.1299949 L14.1779609,12.0863358 C14.1864523,10.3843125 15.5641231,9.00665493 17.2661465,8.99817981 Z" id="Rectangle" transform="translate(22.253964, 12.089780) rotate(39.540000) translate(-22.253964, -12.089780) "></path>
                        <rect id="Rectangle" x="15.972907" y="26.7034461" width="16.8488372" height="2.17547569" rx="1.08773784"></rect>
                        <path d="M33.2026744,56.507463 C31.4298837,57.4066596 26.5656977,57.0440803 26.6682558,56.9570613 C26.6682558,56.507463 27.5180233,55.9708457 28.0454651,55.6372727 C28.8171545,55.1785044 29.7108213,54.9611358 30.6094186,55.0136364 L27.1077907,53.3457717 C25.1323477,52.3789536 23.6027386,50.7040454 22.8296512,48.6612474 C23.4889535,48.8932981 30.0233721,52.4175687 29.7889535,51.9244609 C28.7549406,50.7066028 27.8238935,49.4066018 27.0052326,48.037611 C26.2602668,46.2198963 25.6242783,44.36026 25.1005814,42.4683932 C25.1005814,42.3233615 27.2103488,44.9629387 27.3275581,45.1514799 C27.4447674,45.3400211 31.2833721,50.5901691 31.2687209,50.3726216 C31.0474701,48.96083 30.9153534,47.5367568 30.8731395,46.1086892 C31.114534,43.1718489 31.9044194,40.3048574 33.2026744,37.6533404" id="Path"></path>
                    </g>
                </g>
            </g>
        </g>
    </g>
</svg>