<?xml version="1.0" encoding="UTF-8"?>
<svg width="43px" height="67px" viewBox="0 0 43 67" version="1.1" xmlns="http://www.w3.org/2000/svg" xmlns:xlink="http://www.w3.org/1999/xlink">
    <title>AE0D2628-F0DA-4CF3-9789-C223D78C8302</title>
    <defs>
        <filter x="-1.1%" y="-13.3%" width="102.2%" height="126.5%" filterUnits="objectBoundingBox" id="filter-1">
            <feOffset dx="0" dy="0" in="SourceAlpha" result="shadowOffsetOuter1"></feOffset>
            <feGaussianBlur stdDeviation="3" in="shadowOffsetOuter1" result="shadowBlurOuter1"></feGaussianBlur>
            <feColorMatrix values="0 0 0 0 0   0 0 0 0 0   0 0 0 0 0  0 0 0 0.260462194 0" type="matrix" in="shadowBlurOuter1" result="shadowMatrixOuter1"></feColorMatrix>
            <feMerge>
                <feMergeNode in="shadowMatrixOuter1"></feMergeNode>
                <feMergeNode in="SourceGraphic"></feMergeNode>
            </feMerge>
        </filter>
    </defs>
    <g id="Filigreen-2.5-Source" stroke="none" stroke-width="1" fill="none" fill-rule="evenodd">
        <g id="Marketplace-Brand" transform="translate(-976.000000, -271.000000)" stroke="#195458" stroke-width="1.15834897">
            <g id="Group-2" filter="url(#filter-1)" transform="translate(256.000000, 264.000000)">
                <g id="C--Flowers-Copy-7" transform="translate(691.000000, 0.000000)">
                    <g id="black-icons-64px-07" transform="translate(38.387755, 17.000000)">
                        <rect id="Rectangle" x="5.09023452" y="6.46358724" width="10.1570657" height="6.27825141"></rect>
                        <rect id="Rectangle" x="6.99760976" y="4.58706191" width="6.3423152" height="1.88810882"></rect>
                        <rect id="Rectangle" x="8.90498499" y="1.44793621" width="2.53926642" height="3.1391257"></rect>
                        <path d="M18.8514203,2.57153471 C17.8932367,1.78591521 16.6780722,1.37396651 15.4345272,1.41318574 L6.33061351,1.41318574 C6.00101764,1.41318574 5.73382739,1.14869439 5.73382739,0.822427767 L5.73382739,0.74134334 C5.73382739,0.41507672 6.00101764,0.150585366 6.33061351,0.150585366 L15.4345272,0.150585366 C19.0971557,0.150585366 20.0215891,1.92285929 20.0215891,2.25878049 L20.0215891,2.25878049 C20.0150522,2.53595383 19.8249779,2.77579615 19.5545825,2.84806546 C19.2841871,2.92033477 18.9979961,2.80778519 18.8514203,2.57153471 L18.8514203,2.57153471 Z" id="Path"></path>
                        <path d="M21.5779137,6.25508443 C21.2586363,7.21550491 21.0160555,8.19926541 20.852409,9.19729081 C20.852409,10.2050544 21.5311069,10.5293921 22.1746998,10.4367242 C22.8182927,10.3440563 23.2629568,9.75329831 22.9353096,8.61811632 C22.702466,7.72524906 22.2339993,6.90971561 21.5779137,6.25508443 Z" id="Path"></path>
                        <path d="M1.46271107,47.3069719 L18.8865253,47.3069719 C19.3324492,47.3069719 19.6939418,46.9491306 19.6939418,46.5077111 L19.6939418,17.9891595 C19.6939418,15.0956618 17.3277946,12.7482261 14.4047786,12.7418386 L5.94445779,12.7418386 C3.02600339,12.7482091 0.661729984,15.0886009 0.655294559,17.977576 L0.655294559,46.5077111 C0.655294559,46.9491306 1.01678724,47.3069719 1.46271107,47.3069719 Z" id="Path"></path>
                        <path d="M19.8928705,38.2255159 C18.2429325,39.0595272 13.0473827,38.723606 13.1409962,38.6425216 C13.1409962,38.2255159 13.9367111,37.7274259 14.428182,37.4146717 C15.1323098,36.9954277 15.9483613,36.7975146 16.7685197,36.8470807 L13.5739587,35.2833096 C11.7468214,34.3773406 10.3277696,32.8280193 9.59538462,30.9395009 C10.2155741,31.1595872 16.2770488,34.4145478 16.0547167,33.9627917 C15.1038746,32.8255168 14.243191,31.6172404 13.4803452,30.348743 C12.7839213,28.6672584 12.1899701,26.9459523 11.7016886,25.1940901 C11.7016886,25.0550882 13.6558705,27.510788 13.7728874,27.6729568 C13.8899043,27.8351257 17.4472176,32.7233583 17.4238143,32.526439 C17.2254739,31.2139923 17.1043523,29.8912445 17.0610619,28.5648856 C17.2891875,25.8376065 18.0230446,23.175286 19.2258743,20.7112795" id="Path"></path>
                    </g>
                </g>
            </g>
        </g>
    </g>
</svg>