<svg id="Layer_1" data-name="Layer 1" xmlns="http://www.w3.org/2000/svg" viewBox="0 0 258 258"><defs><style>.cls-1,.cls-2{fill:none;stroke:#075e66;stroke-width:2px;}.cls-1{stroke-miterlimit:10;}.cls-2{stroke-linejoin:round;}</style></defs><title>Jade_Icons_256px</title><circle class="cls-1" cx="129" cy="129.25" r="128"/><rect class="cls-2" x="109.67" y="132.99" width="48" height="80" rx="4.49"/><rect class="cls-2" x="117.67" y="124.99" width="32" height="8"/><path class="cls-2" d="M74.47,152.26c2.84,9.39,5.3,11.75,5.52,16.09.28,5.68-3.09,7.79-6.7,7.59s-6.37-3.25-5.11-9.81C69.94,157,74.47,152.26,74.47,152.26Z"/><path class="cls-2" d="M154.71,59.51a8.56,8.56,0,1,0-13.2-10.89l-14.84,18,13.21,10.9Z"/><path class="cls-2" d="M75,137.05a3.59,3.59,0,0,0,5.54,4.57l44.64-54.09L119.61,83Z"/><rect class="cls-2" x="105.7" y="70.08" width="44.26" height="17.12" rx="2.24" transform="translate(79.31 -63.38) rotate(39.54)"/><rect class="cls-2" x="110.67" y="118.99" width="46" height="6" rx="3"/><path class="cls-2" d="M157.74,201.17c-4.86,2.47-18.13,1.47-17.88,1.24-.12-1.24,2.35-2.73,3.79-3.66a12.47,12.47,0,0,1,7-1.71c-.15,0-9.34-4.5-9.56-4.59-9.35-5.28-12-13-11.7-12.92,1.81.66,19.64,10.38,19,9s-5.54-6.26-7.58-10.74c-2.57-5.66-5-14.91-5.21-15.34s5.76,6.86,6.09,7.37,10.81,15,10.74,14.43-1.16-8.23-1-11.76c.37-11.33,6.36-23.39,6.37-23.33"/></svg>