<svg id="Layer_1" data-name="Layer 1" xmlns="http://www.w3.org/2000/svg" viewBox="0 0 258 258"><defs><style>.cls-1,.cls-2{fill:none;stroke:#075e66;stroke-width:2px;}.cls-1{stroke-miterlimit:10;}.cls-2{stroke-linejoin:round;}</style></defs><title>Jade_Icons_256px</title><circle class="cls-1" cx="129" cy="129.25" r="128"/><path class="cls-2" d="M139.23,141.85c-.1.87-3,16-2.78,15.89.45-.28,16.26-41.95,17.82-44.54a60.21,60.21,0,0,0,2.8-5.63c.82-1.78,11.94-20.53,14.12-23.16.69-.84,10.14-15.57,11.68-18.66.12-.25.68.51.54,1-.75,2.9-1.69,5.77-2.25,8.7a38.38,38.38,0,0,0-.65,7.41,174.11,174.11,0,0,1-4.85,26.14c-3.08,11.09-15.72,33.78-18.06,37-1,1.4-3.86,6.7-4.73,7.76-.63.78-5.86,8.41-7.7,10.7-.4.5,15.92-12.81,30.13-23.21A116.24,116.24,0,0,1,200,127.79a87.31,87.31,0,0,0,10.11-4.15c1.36-.6.93,1.57-.8,3.12-.9.8-11.46,14.35-23.4,25.15-10.26,9.27-22.14,16-22.91,16.6a38.67,38.67,0,0,1-6.25,4c-3.54,1.77-7.23,3.23-10.82,4.92-.55.26-1.26,1.06-1.2,1.53.1.93,1,.64,1.71.55,2.33-.3,16.23-.69,16.46-.7,2.23-.13,10.64,1.22,11.55,1.25.54,0,5.55,1.23,6.06,1.42,6.23,1.55,14.16,6.14,12.85,6.86-2.14,1.16-4.88,0-7.31,0A25.43,25.43,0,0,0,182,189c-3.47.72-20.35,4.53-32,.61-3-.77-6-2-8.94-3-1.77-.61-2.29-1.28-4.08-1.85-1.23-.39-1.67.14-1.89,1.4-.27,5,1.67,13.43-.59,23.91-.11,1.91-4.19,1.34-4.1.89,1.32-6.45,1-13,.77-19.46a22.59,22.59,0,0,0-.7-4.05c-.22-1-.75-1.34-1.77-.73-3,1.83-12.36,5.33-13.28,5.72-2,.85-4,1.59-6.09,2.34-.71.26-1.47.4-2.19.64-1.49.49-25.52,5.16-24.65,4.39,2.34-2,8-9.21,13-12.31,12.49-7.88,22.37-5.51,23.76-5.64.51,0-1-1.43-1.35-1.75a6.75,6.75,0,0,0-2.06-1.27c-4.92-1.78-9.86-3.5-14.8-5.21-1.15-.39-13.38-7.26-14.11-7.58-14-8.81-22.16-18.86-23.08-19.43s-15.93-16.13-18-17.52c-.42-.28.73-.68,1.62-.35,6.29,2.33,12.56,4.71,18.85,7,2.3.85,4.68,1.51,7,2.4A100.16,100.16,0,0,1,82,143c.71.56,8.11,5.27,9.14,6.09q2.07,1.65,4.2,3.22c.24.17,24.3,16.5,24,16.21-.88-1-1.89-1.83-2.81-2.76a20.13,20.13,0,0,1-1.49-1.7c-1.16-1.44-2.26-2.94-3.47-4.35-1-1.22-2.24-2.33-3.34-3.53-1.84-2-3.67-4-5.48-6.08a127.55,127.55,0,0,1-16.65-27c-8.6-19.27-14.71-43.19-14.91-44.2a36.06,36.06,0,0,0-.92-3.5c-.47-1.5-.94-3-1.52-4.46a15.63,15.63,0,0,1-1-3.35c2.5,4,20.42,26.76,21.52,28.51,1,1.56,18.75,29.18,19.22,30.5.28.77,6.07,9.57,6.71,11.36.42,1.17,10.79,20.48,10.76,20-.11-2-.38-3.94-.6-5.91s-.43-3.8-.68-5.7c-.09-.74-.35-1.47-.41-2.21-.11-1.54-.11-3.08-.22-4.62a13,13,0,0,0-.38-2.23,156.11,156.11,0,0,1-1.61-25.13,189.12,189.12,0,0,1,2.78-26c0-.55,3.12-15.45,3.8-16.77.42-.8,4.31-17.8,4.89-21.31.08-.47.78-1.11.81-.92,1.14,7.49,7.4,40.44,7.78,57.87C142.47,121.85,139.4,140.48,139.23,141.85Z"/></svg>