<svg id="Layer_1" data-name="Layer 1" xmlns="http://www.w3.org/2000/svg" viewBox="0 0 258 258"><defs><style>.cls-1{fill:none;stroke:#075e66;stroke-miterlimit:10;stroke-width:2px;}</style></defs><title>Jade_Icons_256px</title><circle class="cls-1" cx="129.04" cy="129" r="128"/><path class="cls-1" d="M88.11,168.06c-.4-7.56,2.78-13.13,11.53-20.28,6.66-5.45,7.83-11.2,10.74-16.71,3.58-6.76,9.94-9.54,17.1-9.94s15.11,1.2,21.08,9.94,2.49,10.94,11.13,15.51c6.76,3.58,14.32,15.12,11.53,25.45-3.14,11.68-11.14,14.61-19.48,15.12-13.12.79-15.51-7.16-22.27-6.76s-11.53,6.76-22.27,6.76S88.73,179.74,88.11,168.06Z"/><ellipse class="cls-1" cx="81.96" cy="123" rx="10.41" ry="16.38" transform="translate(-31.1 27.79) rotate(-16.22)"/><ellipse class="cls-1" cx="108.96" cy="89" rx="11.51" ry="18.31" transform="translate(-17.98 28.34) rotate(-13.7)"/><ellipse class="cls-1" cx="150.96" cy="89" rx="18.23" ry="11.64" transform="translate(32.48 218.12) rotate(-77.98)"/><ellipse class="cls-1" cx="175.96" cy="121" rx="16.39" ry="10.4" transform="translate(10.24 255.68) rotate(-73.61)"/></svg>