<svg id="Layer_1" data-name="Layer 1" xmlns="http://www.w3.org/2000/svg" viewBox="0 0 258 258"><defs><style>.cls-1,.cls-2{fill:none;stroke:#075e66;stroke-width:2px;}.cls-1{stroke-miterlimit:10;}.cls-2{stroke-linecap:round;stroke-linejoin:round;}</style></defs><title>Jade_Icons_256px</title><circle class="cls-1" cx="129" cy="129.08" r="128"/><path class="cls-2" d="M84.2,119.09l-8.63,9.54-26.4-12.39s-3.76-1.42-1.46-5.55c2.74-4.9,24.85-43.52,24.85-43.52l31-15.59c0,8.37,10.53,15.15,23.52,15.15S150.6,60,150.6,51.58l32.89,15.15,27.34,45.85s1.1,2.21-1.76,3.53S180.86,130,180.86,130l-7.28-12.7"/><path class="cls-2" d="M84.5,112.68c-1.19,28-5.08,92.66-5.08,92.66s-.68,4.85,3.72,5.29,86.45,0,86.45,0,6.55.26,6.55-7.12c0-7.85-2.25-67.7-2.71-93.28"/><path class="cls-2" d="M156,54.35c0,10.17-12.82,18.42-28.64,18.42S98.67,64.52,98.67,54.35"/><path class="cls-2" d="M103.56,51.58c2.94-1.63,16-4.21,24.2-4.24,14.32-.05,22.84,4.24,22.84,4.24"/></svg>