<svg id="Layer_1" data-name="Layer 1" xmlns="http://www.w3.org/2000/svg" viewBox="0 0 258 258"><defs><style>.cls-1,.cls-2{fill:none;stroke:#075e66;stroke-width:2px;}.cls-1{stroke-miterlimit:10;}.cls-2{stroke-linejoin:round;}</style></defs><title>Jade_Icons_256px</title><circle class="cls-1" cx="129" cy="129" r="128"/><rect class="cls-1" x="80.79" y="47.53" width="32.75" height="7.06" rx="1.57" transform="translate(-7.64 83.66) rotate(-45)"/><path class="cls-1" d="M162.54,123.07v-5.81a2.87,2.87,0,0,1,2.87-2.86h9.45a2.87,2.87,0,0,1,2.87,2.86v5.81"/><rect class="cls-1" x="158.2" y="123.07" width="23.86" height="4.34" rx="0.85"/><rect class="cls-1" x="158.2" y="129.58" width="23.86" height="4.34" rx="0.85"/><path class="cls-1" d="M166.88,114.4v-22a10.54,10.54,0,0,1,10.51-10.51h13.36"/><path class="cls-1" d="M173.39,114.4V93.26c0-3.9,3.16-4.9,7.07-4.9h10.29"/><rect class="cls-1" x="149.53" y="172.97" width="13.02" height="8.68"/><rect class="cls-1" x="134.34" y="175.14" width="15.19" height="4.34"/><rect class="cls-1" x="149.53" y="157.79" width="13.02" height="4.34"/><line class="cls-1" x1="162.54" y1="133.92" x2="164.83" y2="146.11"/><line class="cls-1" x1="177.73" y1="133.92" x2="175.56" y2="146.94"/><path class="cls-1" d="M153.29,199c-2.09,0-3.76-3.14-3.76-5.28V117.26a2.87,2.87,0,0,0-2.87-2.86h-42a2.87,2.87,0,0,0-2.86,2.86v76.47c0,2.14-1.68,5.28-3.77,5.28"/><path class="cls-2" d="M205.93,81v8.86a2.87,2.87,0,0,1-2.86,2.86h-9.46a2.87,2.87,0,0,1-2.86-2.86V78.28Z"/><path class="cls-1" d="M93.08,60.21c11.28,11.24,21.64,29.86,23.25,50.19a3.72,3.72,0,0,1-3.69,4"/><path class="cls-1" d="M140.85,114.4c-2.24,0-4.65-1.77-4.65-4h0c-1-26.95-14.15-49.78-29.31-64.34"/><rect class="cls-1" x="162.54" y="146.94" width="17.36" height="43.39" rx="1.56"/><rect class="cls-1" x="114.81" y="170.8" width="19.53" height="13.02" rx="1.56"/><rect class="cls-1" x="84.44" y="199.01" width="80.27" height="13.02" rx="1.56"/></svg>