<svg id="Layer_1" data-name="Layer 1" xmlns="http://www.w3.org/2000/svg" viewBox="0 0 258 258"><defs><style>.cls-1{fill:none;stroke:#075e66;stroke-miterlimit:10;stroke-width:2px;}</style></defs><title>Jade_Icons_256px</title><circle class="cls-1" cx="129" cy="129" r="128"/><rect class="cls-1" x="112.42" y="69.34" width="34.71" height="21.69"/><rect class="cls-1" x="118.93" y="62.83" width="21.69" height="6.51"/><rect class="cls-1" x="125.44" y="51.98" width="8.68" height="10.85"/><path class="cls-1" d="M159.43,55.89c-1.86-2.25-7.17-3.91-11.67-3.91H116.63a2,2,0,0,1-2-2v-.26a2,2,0,0,1,2-2h31.13c12.52,0,15.69,6.1,15.69,7.3h0C163.45,56.13,161.44,58.32,159.43,55.89Z"/><path class="cls-1" d="M168.77,68.6c-1.22,5.91-2.59,7.49-2.48,10.16.14,3.5,2.32,4.6,4.52,4.28s3.73-2.34,2.59-6.3A17.86,17.86,0,0,0,168.77,68.6Z"/><path class="cls-1" d="M100,210.36h59.57a2.77,2.77,0,0,0,2.76-2.76V109.1A18.12,18.12,0,0,0,144.25,91H115.3A18.12,18.12,0,0,0,97.23,109.1v98.5A2.77,2.77,0,0,0,100,210.36Z"/><path class="cls-1" d="M163.09,179c-5.64,2.86-23.4,1.7-23.1,1.44-.14-1.44,2.73-3.18,4.41-4.25a14.36,14.36,0,0,1,8.13-2c-.18,0-10.86-5.23-11.11-5.34-10.87-6.14-13.91-15.13-13.6-15,2.11.76,22.83,12.06,22.08,10.47s-6.45-7.28-8.82-12.49c-3-6.58-5.86-17.33-6.06-17.83s6.7,8,7.08,8.58,12.57,17.43,12.49,16.76-1.35-9.56-1.22-13.66c.42-13.17,7.39-27.19,7.4-27.12"/></svg>