<svg id="Layer_1" data-name="Layer 1" xmlns="http://www.w3.org/2000/svg" viewBox="0 0 258 258"><defs><style>.cls-1{fill:none;stroke:#075e66;stroke-miterlimit:10;stroke-width:2px;}</style></defs><title>Jade_Icons_256px</title><circle class="cls-1" cx="129" cy="129" r="128"/><path class="cls-1" d="M63.19,163.55h0a8,8,0,0,1,9.25-6.36l19.24,3.56a7.94,7.94,0,1,1-2.89,15.61L69.55,172.8A8,8,0,0,1,63.19,163.55Z"/><path class="cls-1" d="M81.54,199.81h0a8,8,0,0,1,3.88-10.53l17.77-8.19a7.94,7.94,0,1,1,6.64,14.42L92.07,203.7A8,8,0,0,1,81.54,199.81Z"/><path class="cls-1" d="M163.11,77H117.7c-2.92,0-4.72,2.7-4.7,5.63v85.11a5.3,5.3,0,0,0,5.33,5.26h45.4a5.56,5.56,0,0,0,5.27-5.63V82.26C169,79.33,166,77,163.11,77Z"/><polygon class="cls-1" points="125 69 125.05 77 157 77 156.95 69 125 69"/><path class="cls-1" d="M163.26,53H118.53A3.86,3.86,0,0,0,115,57V69h52V56.64A3.73,3.73,0,0,0,163.26,53Z"/><line class="cls-1" x1="151" y1="69" x2="150.95" y2="63"/><line class="cls-1" x1="145" y1="69" x2="144.95" y2="63"/><line class="cls-1" x1="137" y1="69" x2="136.95" y2="63"/><line class="cls-1" x1="129" y1="69" x2="128.95" y2="63"/><line class="cls-1" x1="123" y1="69" x2="122.95" y2="63"/><line class="cls-1" x1="159" y1="69" x2="158.95" y2="63"/><path class="cls-1" d="M168.73,147.63c-4.86,2.46-20.14,1.46-19.88,1.24-.12-1.24,2.35-2.73,3.79-3.66a12.45,12.45,0,0,1,7-1.71c-.15,0-9.34-4.5-9.55-4.59-9.35-5.28-12-13-11.71-12.92,1.82.66,19.65,10.38,19,9s-5.55-6.27-7.58-10.74c-2.57-5.67-5-14.92-5.22-15.35s5.77,6.87,6.09,7.38,10.82,15,10.75,14.42a101,101,0,0,1-1-11.75c.37-11.33,8.31-24.79,8.32-24.74"/></svg>