<svg id="Layer_1" data-name="Layer 1" xmlns="http://www.w3.org/2000/svg" viewBox="0 0 258 258"><defs><style>.cls-1,.cls-2{fill:none;stroke:#075e66;stroke-width:2px;}.cls-1{stroke-miterlimit:10;}.cls-2{stroke-linejoin:round;}</style></defs><title>Jade_Icons_256px</title><circle class="cls-1" cx="129" cy="129" r="128"/><path class="cls-2" d="M166.77,102.44l-93.7,93.69a7.94,7.94,0,0,1-11.2,0h0a7.94,7.94,0,0,1,0-11.2l93.69-93.7Z"/><path class="cls-2" d="M198,66.43l-19.3,19.3a4.54,4.54,0,0,1-6.4,0h0a4.54,4.54,0,0,1,0-6.4L191.57,60"/><path class="cls-2" d="M166.34,102,156,91.66a.61.61,0,0,1,0-.85l10.23-10.23,24.2-20.84a.6.6,0,0,1,.86,0l7,7a.6.6,0,0,1,0,.86l-20.84,24.2L167.19,102A.61.61,0,0,1,166.34,102Z"/><line class="cls-2" x1="150.76" y1="96.03" x2="161.97" y2="107.24"/><line class="cls-2" x1="113.16" y1="133.64" x2="124.36" y2="144.84"/><circle class="cls-2" cx="113" cy="145" r="2"/></svg>