<svg id="Layer_1" data-name="Layer 1" xmlns="http://www.w3.org/2000/svg" viewBox="0 0 258 258"><defs><style>.cls-1,.cls-2{fill:none;stroke:#075e66;stroke-width:2px;}.cls-1{stroke-miterlimit:10;}.cls-2{stroke-linecap:round;stroke-linejoin:round;}</style></defs><title>Jade_Icons_256px</title><circle class="cls-1" cx="129" cy="129" r="128"/><path class="cls-2" d="M107.22,87c-3.76,3.76-46.76,44.74-45.36,79.86S94.17,216,133.51,214.63s64.4-16.5,62.57-48c-1.18-20.33-8.79-32.53-17.23-46.59C167.42,101,158.17,87,156.49,87Z"/><rect class="cls-2" x="105" y="77" width="54" height="10" rx="1.56"/><path class="cls-2" d="M155.83,77S173.14,51.5,170,49s-19,10.39-20.11,9.46c-1.65-1.4-11.5-12.64-16.43-12.64S116.82,57,115.18,58.43s-18-12.65-20.9-10.55C89.3,51.5,108.71,77,108.71,77Z"/><path class="cls-2" d="M116.34,197.3c1.12.64,5,2.15,6.63,1.92s4.72-2.35,6.52-3.3,7.61-2.2,3.95-9.27-7.14-12-9.2-13.38"/><path class="cls-2" d="M120.2,186.62s7.32-1.74,7.21-3.67-1.94-4.92-2.61-6.62-.26-4.5-1.23-5.86-4.37-1.24-6.36-5.1c-.93-1.82.08-3.11-1.23-4.77s-2.54-2-4.86-3.51-6.38-1.37-7.12-2.6c-1.27-2.12-5.5-2.38-6.63-.83S90,155.34,89.68,159c-.24,2.91-2,8.84-1.93,11.09.06,5.77,2.26,6.48,2.26,6.48"/><path class="cls-2" d="M88.14,166.47c-.56.23-3.08,1.17-3.83,3.67s-3.4,8.41-3.65,10,.55,4.16,2.76,4.8,5.39,3.74,6.18,5.17,4.45,1.93,7.3,1.43a56.81,56.81,0,0,1,8.36-.31"/><path class="cls-2" d="M96.53,191.73c.14.37,3.44,2.11,4.3,3.74s2.5,3.59,5.2,2.71c1.17-.38,3-1.3,5.06-1,1,.17,5.28.71,7.8-1.18"/><path class="cls-2" d="M87.84,166.67c-1.6-.4-9.35-6-10.35-6.43s-.85-1.11-.17-2,.94-1.84,2.32-.93,9.13,5.21,9.13,5.21"/><path class="cls-2" d="M150,185.09c-.45-1-3.29-3.81-3.07-5.67.24-2.07.9-2.32,1.1-4.15a12.3,12.3,0,0,0,0-4,3.82,3.82,0,0,1,1-3.44"/><path class="cls-2" d="M147.82,182a20.45,20.45,0,0,0-.37,4.91c.18,1.78,3.23,6.2,4.3,7.14s4.52,2.32,6,1.09,3.44-4.1,6.31-5.69,3.47-2.85,4-3.87l1.28-2.38"/><path class="cls-2" d="M163.37,151.81c3.53.27,4.71.31,8.82.37,4.43.06,5.65,3.65,7.39,5a4,4,0,0,1,1,5.42c-1.1,2,.16,7.5-2.29,10.91-1.49,2.08-3.49,1.6-5,2.68-.82.58-1.45,4.06-3.34,6.36s-4.35,2.86-6,3.77"/><path class="cls-2" d="M165.09,151.88c0-1.49,5.56-11.31,5.73-12.27s.79-1,1.71-.56,1.77.45,1.27,1.85.17,1.15-1.43,4a25.67,25.67,0,0,0-2.43,4.66,4.38,4.38,0,0,0-.09,2.6"/><path class="cls-2" d="M127.1,151.21a9.67,9.67,0,0,0,3.07,2.63c.93.28,3.07-.11,4.25-.17s4.57.67,4.31-4-.93-8.14-1.7-9.37"/><path class="cls-2" d="M134.82,147.37a1.9,1.9,0,0,0,1.59-1.13c.4-1.05.14-3.09.19-4.16s.93-2.46.74-3.42-2-1.72-2.17-4.26c-.06-1.2.78-1.64.48-2.84s-.86-1.71-1.75-3.06-3.06-2.28-3.16-3.11c-.17-1.44-2.36-2.61-3.33-2s-4.33-.9-5.35,1c-.83,1.49-3.15,4.24-3.67,5.44-1.34,3.1,2.86,6.95,2.86,6.95"/><path class="cls-2" d="M119.45,127.92a3.58,3.58,0,0,0-2.91,1c-1,1.15-3.81,3.66-4.33,4.46a2.63,2.63,0,0,0,.32,3.23,8.43,8.43,0,0,1,2,4.26c.08.95,1.92,2.11,3.55,2.53s7.94.1,7.94.1"/><path class="cls-2" d="M117.89,143.42c0,.24,1.33,2,1.4,3s.48,2.52,2.12,2.71a5.92,5.92,0,0,1,2.92.73c.49.33,2.64,1.66,4.42,1.26"/><path class="cls-2" d="M119.24,128a8,8,0,0,1-2.34-4,8,8,0,0,0-2-3.49c-.42-.47-.18-.8.39-1.11s.94-.75,1.46.07a6.33,6.33,0,0,1,1.46,2.33,17.12,17.12,0,0,0,1.42,3.13,3,3,0,0,0,1.07,1.07"/><path class="cls-2" d="M167.47,158.26c-2.15-.39-4.31-7.86-6.38-8.23-.71-.14-3.78.25-4.12.21-1.6-.18-2.74.86-3.9,3.3-2,4.12-6.66,4.88-5.21,10s2.28,7.35,2.66,8.7c1.27,4.52,6.82,3.46,6.82,3.46"/></svg>