<svg id="Layer_1" data-name="Layer 1" xmlns="http://www.w3.org/2000/svg" viewBox="0 0 258 258"><defs><style>.cls-1,.cls-2{fill:none;stroke:#075e66;stroke-width:2px;}.cls-1{stroke-miterlimit:10;}.cls-2{stroke-linecap:round;stroke-linejoin:round;}</style></defs><title>Jade_Icons_256px</title><circle class="cls-1" cx="129" cy="129.25" r="128"/><path class="cls-1" d="M202.69,131a72.55,72.55,0,1,1-62.57-71.91s-8.78,9.88-4.57,19.19c3.73,8.22,13.42,7.21,13.95,9.16s-9.57,16,3.67,27.11,26.21,1.57,27.78,2.62,2.71,9,11,12.23A28.25,28.25,0,0,0,202.69,131Z"/><path class="cls-1" d="M178.39,56.06c3.48-2.44,9.55-1.27,11.57,1.62s.84,7.2-2.64,9.63-7.94,2.07-10-.81S174.91,58.49,178.39,56.06Z"/><path class="cls-1" d="M180.78,90.83c0,3.24-4.77,5.86-5.86,5.86-3.23,0-6.66-2.62-6.66-5.86S171.69,85,174.92,85A5.86,5.86,0,0,1,180.78,90.83Z"/><path class="cls-1" d="M210.27,100.08c0,1.87-2.32,3.39-4.19,3.39a3.39,3.39,0,0,1-3.39-3.39c0-1.88,1.51-4.2,3.39-4.2A4.92,4.92,0,0,1,210.27,100.08Z"/><path class="cls-2" d="M192,129.36c-8.3-3.27-9.44-11.18-11-12.23-.77-.51-4.25,1.52-9.15,2.42a44.17,44.17,0,0,1,.45,5.6,41,41,0,0,1-41.44,41.45,42.17,42.17,0,0,1-29.26-12.19l3.78-4.77c5.82,5.8,18.48,10.3,24.75,10.19,29.12-.51,38.91-25.09,35.25-40-3.45.17-10-3.53-12.16-5.36C139.93,103.36,150,89.35,149.5,87.4s-10.22-.94-13.95-9.16c-4.21-9.31,4.57-19.19,4.57-19.19A72.61,72.61,0,1,0,202.69,131,28.25,28.25,0,0,1,192,129.36ZM108.12,117c1.78,5-2.51,10-8.17,10m32.23-32.41c0,2.92-1.76,7.6-7.42,7.6"/></svg>