<svg id="Layer_1" data-name="Layer 1" xmlns="http://www.w3.org/2000/svg" viewBox="0 0 258 258"><defs><style>.cls-1,.cls-2{fill:none;stroke:#075e66;stroke-width:2px;}.cls-1{stroke-miterlimit:10;}.cls-2{stroke-linecap:round;stroke-linejoin:round;}</style></defs><title>Jade_Icons_256px</title><circle class="cls-1" cx="128.43" cy="129.08" r="128"/><path class="cls-2" d="M109.91,33.29c1.62,4.7,3.33,9.36,4.82,14.1,1.41,4.47,2.51,10.47,1.83,15.15-1,6.85-7.31,5.95-9.51,3.71-3-3.08-2.67-7.2-2.21-11.14C105.63,48.44,108.56,40.63,109.91,33.29Zm.55,18.32c-1.25,3.43-2.28,6.44-1.55,9.73.27,1.21.72,2.48,2.2,2.36s1.85-1.52,1.9-2.8C113.13,57.72,112.1,54.84,110.46,51.61Z"/><rect class="cls-2" x="108.93" y="83" width="4" height="8"/><polyline class="cls-2" points="138.93 89 151.93 89 151.93 93 138.93 93"/><line class="cls-2" x1="104.93" y1="112" x2="152.28" y2="112"/><path class="cls-2" d="M103.93,97h35V89.46A14.48,14.48,0,0,0,124.35,75H108.54a4.62,4.62,0,0,0-4.61,4.61V217.53A6.49,6.49,0,0,0,110.4,224h36.06a6.49,6.49,0,0,0,6.47-6.47V103.47A6.49,6.49,0,0,0,146.46,97H103.93"/><path class="cls-2" d="M128.83,75.08a8,8,0,1,1,10.32,12"/><line class="cls-2" x1="145.93" y1="96.5" x2="145.93" y2="93.3"/></svg>