<?xml version="1.0" encoding="utf-8"?>
<!-- Generator: Adobe Illustrator 24.1.2, SVG Export Plug-In . SVG Version: 6.00 Build 0)  -->
<svg version="1.1" id="Layer_1" xmlns="http://www.w3.org/2000/svg" xmlns:xlink="http://www.w3.org/1999/xlink" x="0px" y="0px"
	 viewBox="0 0 34 71" style="enable-background:new 0 0 34 71;" xml:space="preserve">
<style type="text/css">
	.st0{fill:none;stroke:#88CBC1;stroke-width:1.1175;stroke-linecap:round;stroke-linejoin:round;}
</style>
<g id="Filigreen-2.5-Source">
	<g id="Marketplace-Brand" transform="translate(-1078.000000, -269.000000)">
		<g id="Group-2" transform="translate(256.000000, 264.000000)">
			<g id="C--Flowers-Copy-8_1_" transform="translate(789.000000, 0.000000)">
				<g id="black-icons-64px-11_1_" transform="translate(42.428571, 14.000000)">
					<path id="Path_11_" class="st0" d="M2.3,0.6c0.4,1.3,0.9,2.5,1.3,3.8s0.6,2.7,0.5,4.1c0,0.6-0.4,1.1-1,1.4s-1.2,0-1.6-0.4
						c-0.7-0.8-0.9-2-0.6-3C1.1,4.7,1.9,2.6,2.3,0.6z"/>
					<rect id="Rectangle_1_" x="2.8" y="14" class="st0" width="1" height="2.2"/>
					<polyline id="Path_10_" class="st0" points="10.2,15.6 13.7,15.6 13.7,16.7 10.2,16.7 					"/>
					<line id="Path_9_" class="st0" x1="0.9" y1="21.8" x2="13.8" y2="21.8"/>
					<path id="Path_8_" class="st0" d="M0.7,17.7h9.5v-2c0-1-0.4-2-1.2-2.8c-0.7-0.7-1.8-1.1-2.8-1.1H1.9c-0.7,0-1.3,0.6-1.3,1.3
						v37.1c0,1,0.8,1.7,1.8,1.7h9.8c1,0,1.8-0.8,1.8-1.7V19.5c0-1-0.8-1.7-1.8-1.7L0.7,17.7"/>
					<path id="Path_7_" class="st0" d="M7.5,11.8c0.6-0.6,1.6-0.8,2.4-0.4c0.8,0.4,1.3,1.2,1.3,2.1c0,0.6-0.4,1.2-0.9,1.6"/>
					<line id="Path_6_" class="st0" x1="12.1" y1="17.6" x2="12.1" y2="16.7"/>
				</g>
			</g>
		</g>
	</g>
</g>
</svg>
