<?xml version="1.0" encoding="utf-8"?>
<!-- Generator: Adobe Illustrator 24.1.2, SVG Export Plug-In . SVG Version: 6.00 Build 0)  -->
<svg version="1.1" id="Layer_1" xmlns="http://www.w3.org/2000/svg" xmlns:xlink="http://www.w3.org/1999/xlink" x="0px" y="0px"
	 viewBox="0 0 69 67" style="enable-background:new 0 0 69 67;" xml:space="preserve">
<style type="text/css">
	.st0{fill:none;stroke:#88CBC1;stroke-width:1.1094;stroke-linecap:round;stroke-linejoin:round;}
</style>
<g id="Filigreen-2.5-Source">
	<g id="Marketplace-Brand" transform="translate(-1357.000000, -272.000000)">
		<g id="Group-2" transform="translate(256.000000, 264.000000)">
			<g id="C--Flowers-Copy-11" transform="translate(1085.000000, 0.000000)">
				<g id="black-icons-64px-12" transform="translate(26.265306, 18.000000)">
					<path id="Path" class="st0" d="M11.1,21l-2.5,2.7l-7.7-3.6c-0.3-0.1-0.5-0.4-0.6-0.7c-0.1-0.3,0-0.7,0.2-0.9
						C1.3,17.2,7.7,6,7.7,6l9-4.4c0,2.4,3.1,4.3,6.8,4.3s6.8-1.9,6.8-4.3l9.6,4.3l8,13.2c0,0,0.3,0.6-0.5,1s-8.1,4-8.1,4l-2.1-3.7"
						/>
					<path id="Path_1_" class="st0" d="M11.2,19.1c-0.3,8.1-1.5,26.6-1.5,26.6s-0.2,1.4,1.1,1.5s25.1,0,25.1,0
						c0.5,0,1.1-0.2,1.4-0.6c0.4-0.4,0.5-0.9,0.5-1.5c0-2.2-0.7-19.5-0.8-26.8"/>
					<path id="Path_2_" class="st0" d="M31.9,2.3c0,2.9-3.7,5.3-8.3,5.3s-8.3-2.4-8.3-5.3"/>
					<path id="Path_3_" class="st0" d="M16.7,1.6c2.3-0.8,4.6-1.2,7-1.2c2.3-0.1,4.5,0.3,6.6,1.2"/>
				</g>
			</g>
		</g>
	</g>
</g>
</svg>
