<?xml version="1.0" encoding="utf-8"?>
<!-- Generator: Adobe Illustrator 24.1.2, SVG Export Plug-In . SVG Version: 6.00 Build 0)  -->
<svg version="1.1" id="Layer_1" xmlns="http://www.w3.org/2000/svg" xmlns:xlink="http://www.w3.org/1999/xlink" x="0px" y="0px"
	 viewBox="0 0 58 67" style="enable-background:new 0 0 58 67;" xml:space="preserve">
<style type="text/css">
	.st0{fill:none;stroke:#88CBC1;stroke-width:1.1094;stroke-linecap:round;stroke-linejoin:round;}
</style>
<g id="Filigreen-2.5-Source">
	<g id="Marketplace-Brand" transform="translate(-1264.000000, -272.000000)">
		<g id="Group-2" transform="translate(256.000000, 264.000000)">
			<g id="C--Flowers-Copy-10" transform="translate(987.000000, 0.000000)">
				<g id="black-icons-64px-10" transform="translate(30.306122, 17.000000)">
					<path id="Path" class="st0" d="M13.5,12.2c-1.1,1-13.1,12.4-12.7,22.2s9,13.6,20.1,13.2s18-4.6,17.5-13.3
						c-0.3-5.6-2.5-9-4.8-12.9c-3.2-5.3-5.8-9.2-6.3-9.2C27.3,12.2,13.5,12.2,13.5,12.2z"/>
					<path id="Rectangle" class="st0" d="M14.3,9.4h12.4c0.8,0,1.4,0.6,1.4,1.4l0,0c0,0.8-0.6,1.4-1.4,1.4H14.3
						c-0.8,0-1.4-0.6-1.4-1.4l0,0C12.9,10.1,13.5,9.4,14.3,9.4z"/>
					<path id="Path_1_" class="st0" d="M27.1,9.4c0,0,4.8-7.1,4-7.8c-0.9-0.7-5.3,2.9-5.6,2.6s-3.2-3.5-4.6-3.5s-4.7,3.1-5.2,3.5
						c-0.5,0.4-5-3.5-5.9-2.9c-1.4,1,4,8.1,4,8.1H27.1z"/>
					<path id="Path_2_" class="st0" d="M16.1,42.8c0.6,0.3,1.2,0.5,1.9,0.5c0.6-0.2,1.3-0.5,1.8-0.9c0.5-0.3,2.1-0.6,1.1-2.6
						c-0.6-1.4-1.5-2.6-2.6-3.7"/>
					<path id="Path_3_" class="st0" d="M17.1,39.8c0,0,2.1-0.5,2-1c-0.2-0.6-0.4-1.3-0.7-1.8c-0.2-0.5-0.1-1.2-0.3-1.6
						c-0.3-0.4-1.2-0.3-1.8-1.4c-0.3-0.5,0-0.9-0.3-1.3c-0.4-0.4-0.9-0.7-1.4-1c-0.7-0.4-1.8-0.4-2-0.7c-0.5-0.6-1.3-0.7-1.9-0.2
						c-0.3,0.4-2.1,0.5-2.2,1.5C8.5,33,8,34.6,8,35.2C8,36.8,8.7,37,8.7,37"/>
					<path id="Path_4_" class="st0" d="M8.2,34.2c-0.5,0.1-0.9,0.5-1.1,1c-0.2,0.7-1,2.3-1,2.8c-0.1,0.6,0.2,1.1,0.8,1.3
						c0.7,0.3,1.3,0.8,1.7,1.4c0.2,0.4,1.2,0.5,2,0.4s1.6-0.1,2.3-0.1"/>
					<path id="Path_5_" class="st0" d="M10.5,41.2c0,0.1,1,0.6,1.2,1c0.2,0.6,0.8,0.9,1.5,0.8c0.4-0.2,0.9-0.3,1.4-0.3
						c0.7,0.2,1.5,0,2.2-0.3"/>
					<path id="Path_6_" class="st0" d="M8.1,34.3c-0.4-0.1-2.6-1.7-2.9-1.8s-0.2-0.3,0-0.6c0.2-0.2,0.3-0.5,0.7-0.3
						c0.4,0.2,2.6,1.5,2.6,1.5"/>
					<path id="Path_7_" class="st0" d="M25.5,39.4c-0.1-0.3-0.9-1.1-0.9-1.6c0.1-0.5,0.2-0.7,0.3-1.1c0.1-0.4,0.1-0.7,0-1.1
						c-0.1-0.3,0-0.7,0.3-1"/>
					<path id="Path_8_" class="st0" d="M24.9,38.5c-0.1,0.4-0.1,0.9-0.1,1.4c0.3,0.7,0.7,1.4,1.2,2c0.3,0.3,1.3,0.6,1.7,0.3
						c0.5-0.6,1.1-1.1,1.8-1.6c0.5-0.2,0.9-0.6,1.1-1.1l0.4-0.7"/>
					<path id="Path_9_" class="st0" d="M29.2,30.2c1,0.1,1.3,0.1,2.5,0.1s1.6,1,2.1,1.4c0.5,0.3,0.6,1,0.3,1.5c-0.3,0.6,0,2.1-0.6,3
						c-0.4,0.6-1,0.4-1.4,0.7c-0.2,0.2-0.4,1.1-0.9,1.8c-0.5,0.5-1,0.8-1.7,1"/>
					<path id="Path_10_" class="st0" d="M29.7,30.2c0-0.4,1.6-3.1,1.6-3.4s0.2-0.3,0.5-0.2c0.3,0.1,0.5,0.1,0.4,0.5
						c0,0.4-0.2,0.8-0.4,1.1c-0.3,0.4-0.5,0.8-0.7,1.3c-0.1,0.2-0.1,0.5,0,0.7"/>
					<path id="Path_11_" class="st0" d="M19.1,30c0.2,0.3,0.5,0.6,0.9,0.7c0.4,0,0.8,0,1.2,0c0.3,0,1.3,0.2,1.2-1.1
						c0-0.9-0.1-1.8-0.5-2.6"/>
					<path id="Path_12_" class="st0" d="M21.3,28.9c0.2,0,0.4-0.1,0.4-0.3c0-0.4,0-0.7,0-1.1c0-0.3,0.3-0.7,0.2-1s-0.6-0.5-0.6-1.2
						c0-0.3,0.2-0.5,0.1-0.8s-0.3-0.6-0.5-0.8c-0.3-0.4-0.9-0.6-0.9-0.9c-0.1-0.4-0.5-0.7-0.9-0.6c-0.3,0.2-1.2-0.2-1.5,0.3
						s-0.9,1.2-1,1.5c-0.3,1,0.8,2,0.8,2"/>
					<path id="Path_13_" class="st0" d="M16.9,23.6c-0.3,0-0.6,0.1-0.8,0.3c-0.3,0.3-1.1,1-1.2,1.2c-0.2,0.3-0.1,0.7,0.1,0.9
						c0.3,0.3,0.5,0.7,0.6,1.2c0,0.3,0.5,0.6,1,0.7c0.7,0.1,1.5,0.1,2.2,0"/>
					<path id="Path_14_" class="st0" d="M16.5,27.9c0,0.1,0.4,0.5,0.4,0.8s0.1,0.7,0.6,0.7c0.3,0,0.6,0.1,0.8,0.2
						c0.4,0.3,0.8,0.4,1.2,0.4"/>
					<path id="Path_15_" class="st0" d="M16.9,23.6c-0.3-0.3-0.6-0.7-0.7-1.1s-0.3-0.7-0.5-1c-0.1-0.1,0-0.2,0.1-0.3
						c0.1-0.1,0.3-0.2,0.4,0s0.2,0.1,0.4,0.6c0.1,0.3,0.2,0.6,0.4,0.9c0.1,0.1,0.2,0.2,0.3,0.3"/>
					<path id="Path_16_" class="st0" d="M30.4,32c-0.6-0.1-1.2-2.2-1.8-2.3c-0.4,0-0.7,0-1.1,0.1c-0.4,0-0.8,0.2-1.1,0.9
						c-0.5,1.1-1.9,1.4-1.5,2.8c0.4,1.4,0.7,2,0.8,2.4c0.4,1.3,1.9,1,1.9,1"/>
				</g>
			</g>
		</g>
	</g>
</g>
</svg>
