<?xml version="1.0" encoding="utf-8"?>
<!-- Generator: Adobe Illustrator 24.1.2, SVG Export Plug-In . SVG Version: 6.00 Build 0)  -->
<svg version="1.1" id="Layer_1" xmlns="http://www.w3.org/2000/svg" xmlns:xlink="http://www.w3.org/1999/xlink" x="0px" y="0px"
	 viewBox="0 0 76 72" style="enable-background:new 0 0 76 72;" xml:space="preserve">
<style type="text/css">
	.st0{fill:none;stroke:#88CBC1;stroke-width:1.408;}
	.st1{fill:none;stroke:#88CBC1;stroke-width:1.408;stroke-linecap:round;stroke-linejoin:round;}
</style>
<g id="Filigreen-2.5-Source">
	<g id="Marketplace-Brand" transform="translate(-663.000000, -268.000000)">
		<g id="Group-2" transform="translate(256.000000, 264.000000)">
			<g id="C--Flowers-Copy-4" transform="translate(395.000000, 0.000000)">
				<g id="black-icons-64px-01" transform="translate(22.224490, 13.000000)">
					<path id="Path" class="st0" d="M51.7,27.7c0,14.1-11.6,25.5-25.8,25.5c-14.3,0-25.8-11.5-25.8-25.6S11.7,2.1,25.9,2.1
						c1.2,0,2.4,0.1,3.5,0.3c0,0-3.1,3.5-1.6,6.8c1.3,2.9,4.8,2.5,4.9,3.2c0.2,0.7-3.4,5.6,1.3,9.5s9.3,0.5,10,0.9
						c0.6,0.4,0.9,3.2,3.9,4.3C49.2,27.5,50.4,27.7,51.7,27.7z"/>
					<path id="Path_1_" class="st0" d="M43.1,1.3c1.3-0.8,3-0.5,4.1,0.6c0.7,1.2,0.3,2.7-0.9,3.4C45.2,6.1,43.6,6,42.7,5
						C41.9,3.8,42,2.2,43.1,1.3L43.1,1.3z"/>
					<path id="Path_2_" class="st0" d="M43.9,13.5c0,1.1-1.7,2.1-2.1,2.1c-1.2,0-2.2-0.9-2.4-2.1c0.1-1.2,1.2-2.1,2.4-2.1
						c0.6,0,1.1,0.2,1.5,0.6C43.7,12.5,43.9,13,43.9,13.5z"/>
					<path id="Path_3_" class="st0" d="M54.4,16.8c0,0.7-0.8,1.2-1.4,1.2c-0.3,0-0.6-0.1-0.9-0.3c-0.2-0.2-0.4-0.5-0.4-0.8
						c0-0.7,0.5-1.5,1.2-1.5C53.8,15.5,54.3,16.1,54.4,16.8L54.4,16.8z"/>
					<path id="Shape" class="st1" d="M47.9,27.1c-3-1.2-3.4-3.9-3.9-4.3c-0.3-0.2-1.5,0.5-3.3,0.9c0.1,0.7,0.2,1.3,0.2,2
						c0,3.9-1.5,7.6-4.3,10.4c-2.8,2.7-6.5,4.3-10.5,4.2c-3.9-0.1-7.6-1.6-10.4-4.4l1.3-1.7c2.5,2.1,5.6,3.3,8.8,3.6
						c10.4-0.2,13.8-8.8,12.5-14.1c-1.6-0.3-3-0.9-4.3-1.9c-4.7-3.9-1.1-8.9-1.3-9.5c-0.2-0.7-3.6-0.3-4.9-3.2
						c-1.6-3.2,1.5-6.7,1.5-6.7c-1.2-0.2-2.3-0.3-3.5-0.3C11.7,2.1,0.1,13.5,0.1,27.6s11.5,25.6,25.8,25.6s25.8-11.4,25.8-25.5
						C50.4,27.7,49.2,27.5,47.9,27.1L47.9,27.1z M18.1,22.8c0.2,0.9,0,1.8-0.5,2.5c-0.6,0.7-1.4,1.1-2.3,1.1 M26.6,14.9
						c0,0.7-0.2,1.4-0.7,1.9s-1.2,0.8-1.9,0.8"/>
				</g>
			</g>
		</g>
	</g>
</g>
</svg>
