<?xml version="1.0" encoding="utf-8"?>
<!-- Generator: Adobe Illustrator 24.1.2, SVG Export Plug-In . SVG Version: 6.00 Build 0)  -->
<svg version="1.1" id="Layer_1" xmlns="http://www.w3.org/2000/svg" xmlns:xlink="http://www.w3.org/1999/xlink" x="0px" y="0px"
	 viewBox="0 0 54 82" style="enable-background:new 0 0 54 82;" xml:space="preserve">
<style type="text/css">
	.st0{fill:none;stroke:#88CBC1;stroke-width:1.4503;stroke-linejoin:round;}
</style>
<g id="Filigreen-2.5-Source">
	<g id="Marketplace-Brand" transform="translate(-772.000000, -265.000000)">
		<g id="Group-2" transform="translate(256.000000, 264.000000)">
			<g id="C--Flowers-Copy-5" transform="translate(493.000000, 0.000000)">
				<g id="black-icons-64px-02" transform="translate(33.412500, 11.025000)">
					<path id="Rectangle" class="st0" d="M17.2,31.8h14.3c0.9,0,1.6,0.7,1.6,1.6v25.8c0,0.9-0.7,1.6-1.6,1.6H17.2
						c-0.9,0-1.6-0.7-1.6-1.6V33.4C15.6,32.5,16.3,31.8,17.2,31.8z"/>
					<rect id="Rectangle_1_" x="18.5" y="28.9" class="st0" width="11.7" height="2.9"/>
					<path id="Path" class="st0" d="M2.7,38.8c1,3.4,1.9,4.3,2,5.8c0.1,2-1.1,2.8-2.5,2.7c-1.3-0.1-2.3-1.2-1.9-3.6
						C0.7,41.9,1.5,40.2,2.7,38.8L2.7,38.8z"/>
					<path id="Path_1_" class="st0" d="M32.1,5.2c0.7-0.9,0.9-2,0.5-3.1c-0.4-1-1.3-1.8-2.4-2S28,0.3,27.3,1.2l-5.4,6.5l4.9,3.9
						L32.1,5.2z"/>
					<path id="Path_2_" class="st0" d="M2.9,33.3c-0.2,0.3-0.4,0.6-0.3,1c0,0.4,0.2,0.7,0.5,0.9s0.6,0.3,1,0.3
						c0.3,0,0.7-0.2,0.9-0.5l16.4-19.7l-2-1.7L2.9,33.3z"/>
					<path id="Rectangle_2_" class="st0" d="M20.4,6.5l7.7,6.3c1.3,1.1,1.5,3,0.4,4.3l0,0l0,0c-1.1,1.3-3,1.5-4.3,0.4l-7.7-6.3
						c-1.3-1.1-1.5-3-0.4-4.3l0,0l0,0C17.1,5.6,19.1,5.5,20.4,6.5z"/>
					<path id="Rectangle_3_" class="st0" d="M17.1,26.7h14.7c0.6,0,1.1,0.5,1.1,1.1l0,0c0,0.6-0.5,1.1-1.1,1.1H17.1
						c-0.6,0-1.1-0.5-1.1-1.1l0,0C16,27.2,16.5,26.7,17.1,26.7z"/>
					<path id="Path_3_" class="st0" d="M33.2,56.5c-1.8,0.9-6.6,0.5-6.5,0.4c0-0.4,0.8-1,1.4-1.3c0.8-0.5,1.7-0.7,2.6-0.6l-3.5-1.7
						c-2-1-3.5-2.6-4.3-4.7c0.7,0.2,7.2,3.8,7,3.3c-1-1.2-2-2.5-2.8-3.9c-0.7-1.8-1.4-3.7-1.9-5.6c0-0.1,2.1,2.5,2.2,2.7
						s4,5.4,3.9,5.2c-0.2-1.4-0.4-2.8-0.4-4.3c0.2-2.9,1-5.8,2.3-8.5"/>
				</g>
			</g>
		</g>
	</g>
</g>
</svg>
