<?xml version="1.0" encoding="utf-8"?>
<!-- Generator: Adobe Illustrator 24.1.2, SVG Export Plug-In . SVG Version: 6.00 Build 0)  -->
<svg version="1.1" id="Layer_1" xmlns="http://www.w3.org/2000/svg" xmlns:xlink="http://www.w3.org/1999/xlink" x="0px" y="0px"
	 viewBox="0 0 70 70" style="enable-background:new 0 0 70 70;" xml:space="preserve">
<style type="text/css">
	.st0{fill:none;stroke:#88CBC1;stroke-width:1.4;stroke-linejoin:round;}
</style>
<g id="Filigreen-2.5-Source">
	<g id="Marketplace-Brand" transform="translate(-567.000000, -272.000000)">
		<g id="Group-2" transform="translate(256.000000, 264.000000)">
			<g id="C--Flowers-Copy-3" transform="translate(296.000000, 0.000000)">
				<g id="black-icons-64px-05" transform="translate(25.987500, 18.375000)">
					<path id="Path" class="st0" d="M38.1,15.2L5,48c-1.1,1.1-2.9,1.1-4,0l0,0c-1.1-1.1-1.1-2.8,0-3.9l33.1-32.8L38.1,15.2z"/>
					<path id="Path_1_" class="st0" d="M49.1,2.6l-6.8,6.7c-0.3,0.3-0.7,0.5-1.1,0.5c-0.4,0-0.8-0.2-1.1-0.5l0,0
						c-0.3-0.3-0.5-0.7-0.5-1.1c0-0.4,0.2-0.8,0.5-1.1l6.8-6.7"/>
					<path id="Path_2_" class="st0" d="M37.9,15.1l-3.6-3.6c-0.1-0.1-0.1-0.2,0-0.3l3.6-3.6l8.6-7.3c0.1-0.1,0.2-0.1,0.3,0l2.5,2.4
						c0.1,0.1,0.1,0.2,0,0.3l-7.4,8.5l-3.6,3.6C38.2,15.1,38,15.1,37.9,15.1z"/>
					<line id="Path_3_" class="st0" x1="32.4" y1="13" x2="36.4" y2="16.9"/>
					<line id="Path_4_" class="st0" x1="19.1" y1="26.1" x2="23.1" y2="30"/>
					<ellipse id="Oval" class="st0" cx="19.1" cy="30.1" rx="1" ry="1"/>
				</g>
			</g>
		</g>
	</g>
</g>
</svg>
