<?xml version="1.0" encoding="utf-8"?>
<!-- Generator: Adobe Illustrator 25.0.1, SVG Export Plug-In . SVG Version: 6.00 Build 0)  -->
<svg version="1.1" id="Layer_1" xmlns="http://www.w3.org/2000/svg" xmlns:xlink="http://www.w3.org/1999/xlink" x="0px" y="0px"
	 viewBox="0 0 512 512" style="enable-background:new 0 0 512 512;" xml:space="preserve">
<style type="text/css">
	.st0{fill:#195458;}
</style>
<path class="st0" d="M443.4,401.6c0-0.2,0.1-0.4,0.1-0.5V25.6C443.5,11.5,432,0,417.9,0H93.6C79.5,0,68,11.5,68,25.6v460.8
	c0,14.1,11.5,25.6,25.6,25.6h238.9c2.3,0,4.4-0.9,6-2.5L441,407.1c0.7-0.7,1.3-1.6,1.7-2.5c0.1-0.3,0.2-0.5,0.3-0.8
	C443.2,403.1,443.3,402.4,443.4,401.6z M85.1,486.4V25.6c0-4.7,3.8-8.5,8.5-8.5h324.3c4.7,0,8.5,3.8,8.5,8.5v366.9h-76.8
	c-14.1,0-25.6,11.5-25.6,25.6v76.8H93.6C88.9,494.9,85.1,491.1,85.1,486.4z M341.1,482.9v-64.7c0-4.7,3.8-8.5,8.5-8.5h64.7
	L341.1,482.9z"/>
<path class="st0" d="M178.9,170.7h-34.1c-4.7,0-8.5-3.8-8.5-8.5c0-4.7-3.8-8.5-8.5-8.5c-4.7,0-8.5,3.8-8.5,8.5
	c0,14.1,11.5,25.6,25.6,25.6h8.5v8.5c0,4.7,3.8,8.5,8.5,8.5c4.7,0,8.5-3.8,8.5-8.5v-8.5h8.5c14.1,0,25.6-11.5,25.6-25.6v-17.1
	c0-14.1-11.5-25.6-25.6-25.6h-34.1c-4.7,0-8.5-3.8-8.5-8.5V93.9c0-4.7,3.8-8.5,8.5-8.5h34.1c4.7,0,8.5,3.8,8.5,8.5
	c0,4.7,3.8,8.5,8.5,8.5c4.7,0,8.5-3.8,8.5-8.5c0-14.1-11.5-25.6-25.6-25.6h-8.5v-8.5c0-4.7-3.8-8.5-8.5-8.5c-4.7,0-8.5,3.8-8.5,8.5
	v8.5h-8.5c-14.1,0-25.6,11.5-25.6,25.6v17.1c0,14.1,11.5,25.6,25.6,25.6h34.1c4.7,0,8.5,3.8,8.5,8.5v17.1
	C187.5,166.8,183.6,170.7,178.9,170.7z"/>
<path class="st0" d="M247.2,93.9h136.5c4.7,0,8.5-3.8,8.5-8.5c0-4.7-3.8-8.5-8.5-8.5H247.2c-4.7,0-8.5,3.8-8.5,8.5
	C238.7,90,242.5,93.9,247.2,93.9z"/>
<path class="st0" d="M247.2,162.1h136.5c4.7,0,8.5-3.8,8.5-8.5c0-4.7-3.8-8.5-8.5-8.5H247.2c-4.7,0-8.5,3.8-8.5,8.5
	C238.7,158.3,242.5,162.1,247.2,162.1z"/>
<path class="st0" d="M247.2,230.4h136.5c4.7,0,8.5-3.8,8.5-8.5c0-4.7-3.8-8.5-8.5-8.5H247.2c-4.7,0-8.5,3.8-8.5,8.5
	C238.7,226.6,242.5,230.4,247.2,230.4z"/>
<path class="st0" d="M127.7,298.7h256c4.7,0,8.5-3.8,8.5-8.5c0-4.7-3.8-8.5-8.5-8.5h-256c-4.7,0-8.5,3.8-8.5,8.5
	C119.2,294.8,123,298.7,127.7,298.7z"/>
<path class="st0" d="M383.7,366.9c4.7,0,8.5-3.8,8.5-8.5c0-4.7-3.8-8.5-8.5-8.5h-256c-4.7,0-8.5,3.8-8.5,8.5c0,4.7,3.8,8.5,8.5,8.5
	H383.7z"/>
</svg>
