<?xml version="1.0" encoding="utf-8"?>
<!-- Generator: Adobe Illustrator 25.0.1, SVG Export Plug-In . SVG Version: 6.00 Build 0)  -->
<svg version="1.1" id="Layer_1" xmlns="http://www.w3.org/2000/svg" xmlns:xlink="http://www.w3.org/1999/xlink" x="0px" y="0px"
	 viewBox="0 0 1200 1200" style="enable-background:new 0 0 1200 1200;" xml:space="preserve">
<style type="text/css">
	.st0{fill:#195458;}
	.st1{display:none;}
	.st2{display:inline;fill:#E7E7E7;}
	.st3{font-family:'Montserrat-Regular';}
	.st4{font-size:55.2713px;}
	.st5{letter-spacing:10;}
</style>
<g id="Layer_1_1_">
	<g>
		<path class="st0" d="M583.9,289.2C583.9,289.2,583.8,289.2,583.9,289.2v0.4l0,0l0,0V289.2L583.9,289.2z"/>
	</g>
	<g>
		<g>
			<path class="st0" d="M759.5,390H581.7c-7.6,0-13.7,6.1-13.7,13.6v41c0,7.5,6.1,13.6,13.7,13.6h6.8v54.6
				c-9.7-2.4-19.9-3.9-30.4-3.9c-71.4,0-129.4,58.1-129.4,129.5c0,21.7,5.4,42,14.8,60.1l-78.3,78.4c-12.9,12.8-12.9,33.9,0,46.7
				l7.7,7.7c6.2,6.3,14.5,9.7,23.3,9.7s17.1-3.5,23.4-9.7l78.3-78.4c18,9.5,38.4,14.8,60.1,14.8c10.6,0,20.9-1.4,30.7-3.8
				c2.5,43,38.2,77.3,81.8,77.3c45.2,0,82-36.7,82-82v-301h6.9c7.5,0,13.6-6.1,13.6-13.6v-41C773.1,396.1,767,390,759.5,390z
				 M410,821.5c-7.4,7.3-20.2,7.3-27.5,0l-7.7-7.5c-7.5-7.7-7.5-19.9,0-27.6l75.9-75.7c9.3,13.8,21.3,25.6,35.1,35.1L410,821.5z
				 M442.2,638.4c0-64,52-115.9,115.8-115.9s115.8,52,115.8,115.9c0,63.7-52,115.7-115.8,115.7S442.2,702.2,442.2,638.4z
				 M670.6,827.6c-37.5,0-68-30.4-68.4-67.8c49.6-18.1,85.3-65.6,85.3-121.4c0-13.4-2.1-26.4-5.9-38.6c9-0.2,18-2.8,25-8.3
				c0.2,0,0.4-0.2,0.6-0.4c8.7-6.1,22.3-6.5,31.7-1.2v169.3C738.9,797,708.2,827.6,670.6,827.6z M738.9,575.1
				c-13.4-4.7-29.4-2.8-40.6,5.7c-0.2,0-0.4,0.2-0.6,0.4c-5.8,4.1-14,5.7-21.5,4.7c-14.2-31.9-41-57-74-69v-58.7h136.7L738.9,575.1
				L738.9,575.1z M581.7,444.6v-41h177.8v41H581.7z"/>
		</g>
		<g>
			<path class="st0" d="M558,549.5c-49,0-88.9,39.8-88.9,88.9c0,48.9,39.9,88.9,88.9,88.9s88.9-40,88.9-88.9
				C646.9,589.3,607,549.5,558,549.5z M558,713.5c-41.5,0-75.2-33.7-75.2-75.1c0-41.4,33.7-75.3,75.2-75.3s75.2,33.9,75.2,75.3
				C633.2,679.8,599.5,713.5,558,713.5z"/>
		</g>
		<g>
			<path class="st0" d="M534.9,642.3c-3.8,0-6.8,3.1-6.8,6.9c0,3.9,3.1,6.7,6.8,6.7c3.8,0,6.9-2.8,6.9-6.7
				C541.8,645.3,538.7,642.3,534.9,642.3z"/>
		</g>
		<g>
			<path class="st0" d="M562.3,663c-3.8,0-6.9,3.1-6.9,6.7c0,3.8,3.1,6.9,6.9,6.9c3.8,0,6.8-3.1,6.8-6.9
				C569.1,666,566.1,663,562.3,663z"/>
		</g>
		<g>
			<path class="st0" d="M575.9,621.8c-3.7,0-6.8,3-6.8,6.9c0,3.7,3.1,6.9,6.8,6.9c3.9,0,6.9-3.2,6.9-6.9
				C582.8,624.8,579.8,621.8,575.9,621.8z"/>
		</g>
		<g>
			<path class="st0" d="M541.8,580.8c-3.9,0-6.9,3.1-6.9,6.9c0,3.9,3,6.9,6.9,6.9c3.7,0,6.8-3,6.8-6.9
				C548.6,583.8,545.5,580.8,541.8,580.8z"/>
		</g>
		<g>
			<path class="st0" d="M507.6,608.2c-3.8,0-6.9,3-6.9,6.9c0,3.6,3.1,6.7,6.9,6.7s6.8-3.1,6.8-6.7
				C514.4,611.2,511.4,608.2,507.6,608.2z"/>
		</g>
		<g>
			<path class="st0" d="M617,635.6c-3.8,0-6.8,3-6.8,6.7c0,3.9,3,6.9,6.8,6.9c3.7,0,6.8-3,6.8-6.9
				C623.8,638.6,620.7,635.6,617,635.6z"/>
		</g>
	</g>
</g>
<g id="Layer_2_1_" class="st1">
	<text transform="matrix(1 0 0 1 258.7792 932.6918)" class="st2 st3 st4 st5">compliance test</text>
</g>
</svg>
