<?xml version="1.0" encoding="utf-8"?>
<!-- Generator: Adobe Illustrator 24.1.2, SVG Export Plug-In . SVG Version: 6.00 Build 0)  -->
<svg version="1.1" id="Layer_1" xmlns="http://www.w3.org/2000/svg" xmlns:xlink="http://www.w3.org/1999/xlink" x="0px" y="0px"
	 viewBox="0 0 20 12.5" style="enable-background:new 0 0 20 12.5;" xml:space="preserve">
<style type="text/css">
	.st0{fill:#74CDC1;}
</style>
<g id="Filigreen-2.5-Source">
	<g id="Left-Icon" transform="translate(15.000000, 11.000000)">
		<g id="handshake" transform="translate(2.000000, 6.000000)">
			<path id="Path" class="st0" d="M-7-4.5c-0.5,0-1.2-0.3-1.5-0.5c-0.4-0.2-2.2-1.6-3.8-2.9c-0.3-0.2-0.6-0.6-1-1
				c-0.3-0.3-0.5-0.6-0.7-0.7c-0.2-0.1-0.2-0.4,0-0.6c0.1-0.2,0.4-0.2,0.6,0c0.1,0.1,0.4,0.4,0.7,0.7c0.3,0.4,0.7,0.8,0.9,0.9
				c1.6,1.3,3.4,2.7,3.7,2.9c0.2,0.2,0.7,0.3,1,0.3c0.4,0,0.4-0.1,0.4-0.1c0-0.1,0.2-0.2,0.3-0.3c0.1,0,0.3,0,0.4,0.1
				c0.2,0.2,0.4,0.1,0.5,0.1c0.3-0.1,0.5-0.4,0.5-0.6c0-0.2,0.1-0.3,0.3-0.4c0.1-0.1,0.3,0,0.4,0.1c0.1,0.1,0.4,0.1,0.6,0
				C-3.5-6.5-3.2-6.7-3.2-7c0-0.2,0.1-0.3,0.2-0.4c0.1-0.1,0.3-0.1,0.5,0c0.1,0.1,0.3,0,0.5-0.1C-2-7.5-1.8-7.7-2-8.1
				c-0.3-0.6-1.7-1.8-2.9-2.8c-0.7-0.5-1.3-1.1-1.8-1.5c-0.1,0-0.2,0.1-0.3,0.1c-0.2,0.1-0.4,0.2-0.6,0.2c-0.6,0.9-1.5,1.2-2.4,0.8
				c-0.4-0.1-0.6-0.4-0.7-0.8c-0.2-0.8,0.6-2,1.1-2.6c1.5-1.5,2.5-2.1,4.5-1.2c1.6,0.7,3.3,1.3,3.3,1.3c0.2,0.1,0.3,0.3,0.3,0.5
				c-0.1,0.2-0.3,0.3-0.5,0.3c0,0-1.7-0.6-3.4-1.3c-1.5-0.7-2.2-0.3-3.5,1c-0.6,0.6-1,1.4-0.9,1.8c0,0.1,0,0.1,0.2,0.2
				c0.4,0.1,1,0.2,1.6-0.7c0.1-0.1,0.2-0.2,0.3-0.2c0.3,0,0.4-0.1,0.6-0.2c0.1-0.1,0.3-0.1,0.6-0.2c0.2-0.1,0.3,0,0.4,0.1
				c0.5,0.5,1.2,1,1.9,1.6c1.4,1.1,2.8,2.2,3.2,3.1c0.3,0.6,0.1,1.2-0.3,1.6c-0.3,0.2-0.6,0.4-1,0.3c-0.1,0.3-0.4,0.6-0.7,0.7
				c-0.3,0.2-0.7,0.2-1,0.2c-0.2,0.4-0.5,0.7-0.9,0.8c-0.3,0.1-0.7,0.1-0.9,0C-6.3-4.6-6.6-4.5-7-4.5z"/>
			<path id="Path_1_" class="st0" d="M-8.7-14.5h-3.7c-0.2,0-0.4-0.2-0.4-0.4c0-0.2,0.2-0.4,0.4-0.4h3.7c0.2,0,0.4,0.2,0.4,0.4
				C-8.2-14.7-8.4-14.5-8.7-14.5z"/>
			<path id="Path_2_" class="st0" d="M-1.6-7.8c-0.1,0-0.3-0.1-0.3-0.2C-2-8.2-2-8.5-1.8-8.6l1.2-0.8C-0.4-9.6-0.1-9.5,0-9.3
				c0.1,0.2,0.1,0.5-0.1,0.6l-1.2,0.8C-1.4-7.9-1.5-7.8-1.6-7.8z"/>
			<path id="Path_3_" class="st0" d="M-2.8-6.6c-0.1,0-0.2,0-0.3-0.1C-3.5-7-5.4-9-5.6-9.2c-0.2-0.2-0.2-0.4,0-0.6
				C-5.5-10-5.2-10-5-9.8c0.8,0.9,2.2,2.2,2.5,2.5c0.2,0.1,0.2,0.4,0.1,0.6C-2.6-6.6-2.7-6.6-2.8-6.6z"/>
			<path id="Path_4_" class="st0" d="M-4.5-5.8c-0.1,0-0.2,0-0.3-0.1C-5.4-6.3-6.9-8-6.9-8C-7-8.1-7-8.4-6.9-8.6
				c0.2-0.2,0.4-0.1,0.6,0c0.3,0.3,1.5,1.6,2,2C-4.1-6.3-4-6.1-4.2-5.9C-4.3-5.8-4.4-5.8-4.5-5.8z"/>
			<path id="Path_5_" class="st0" d="M-6.2-4.9c-0.1,0-0.2,0-0.3-0.1C-7-5.5-8.2-6.8-8.6-7.1c-0.2-0.2-0.1-0.4,0-0.6
				c0.2-0.2,0.4-0.1,0.6,0c0.2,0.3,1.5,1.5,2,2c0.2,0.1,0.2,0.4,0.1,0.6C-5.9-5-6-4.9-6.2-4.9z"/>
			<path id="Shape" class="st0" d="M-14.1-8.7h-2.5c-0.2,0-0.4-0.2-0.4-0.4v-7.5c0-0.1,0-0.2,0.1-0.3c0.1-0.1,0.2-0.1,0.3-0.1
				c0.9,0.1,3.7,0.3,4.4,0.9C-12-16-12-15.8-12-15.7c-0.2,2.2-1.6,6.6-1.7,6.8C-13.7-8.8-13.9-8.7-14.1-8.7z M-16.2-9.5h1.8
				c0.3-1,1.3-4.2,1.5-6c-0.5-0.3-2-0.5-3.3-0.6V-9.5z"/>
			<path id="Shape_1_" class="st0" d="M2.6-7.8H0.1c-0.2,0-0.4-0.1-0.4-0.3c-0.3-1.1-1.9-5.7-2.4-6.6c-0.1-0.1-0.1-0.2,0-0.3
				c0-0.1,0.1-0.2,0.2-0.3c0.1,0,1.9-0.9,5.2-0.9C2.8-16.2,3-16,3-15.8v7.5C3-8,2.8-7.8,2.6-7.8z M0.4-8.7h1.8v-6.7
				c-2,0-3.3,0.4-4,0.6C-1.2-13.3,0-10,0.4-8.7z"/>
		</g>
	</g>
</g>
</svg>
