<?xml version="1.0" encoding="UTF-8"?>
<svg width="41px" height="40px" viewBox="0 0 41 40" version="1.1" xmlns="http://www.w3.org/2000/svg" xmlns:xlink="http://www.w3.org/1999/xlink">
    <title>DF3C2998-A5A3-4CFF-AE69-3F1533D0A27D</title>
    <g id="Filigreen-2.5-Source" stroke="none" stroke-width="1" fill="none" fill-rule="evenodd">
        <g id="Marketplace-Brand" transform="translate(-1308.000000, -12.000000)">
            <g id="add-cart.5" transform="translate(1308.000000, 12.000000)">
                <path d="M36.8333333,18.3333333 C36.3333333,18.1666667 36,18.5 35.8333333,19 L35.1666667,21.8333333 L10.8333333,25 L7.83333333,10 L19.1666667,10 C19.6666667,10 20,9.66666667 20,9.16666667 C20,8.66666667 19.6666667,8.33333333 19.1666667,8.33333333 L7.5,8.33333333 L6.66666667,4 C6.66666667,3.66666667 6.16666667,3.33333333 5.83333333,3.33333333 L0.833333333,3.33333333 C0.333333333,3.33333333 0,3.66666667 0,4.16666667 C0,4.66666667 0.333333333,5 0.833333333,5 L5.16666667,5 L9.16666667,25.3333333 C9.66666667,28 12.1666667,30 14.8333333,30 L34,30 C34.5,30 34.8333333,29.6666667 34.8333333,29.1666667 C34.8333333,28.6666667 34.5,28.3333333 34,28.3333333 L15,28.3333333 C13.6666667,28.3333333 12.3333333,27.6666667 11.6666667,26.5 L36,23.1666667 C36.3333333,23.1666667 36.6666667,22.8333333 36.6666667,22.5 L37.5,19.1666667 C37.6666667,19 37.3333333,18.5 36.8333333,18.3333333 Z" id="Path" fill="#88CBC1" fill-rule="nonzero"></path>
                <path d="M14.1666667,31.6666667 C11.8333333,31.6666667 10,33.5 10,35.8333333 C10,38.1666667 11.8333333,40 14.1666667,40 C16.5,40 18.3333333,38.1666667 18.3333333,35.8333333 C18.3333333,33.5 16.5,31.6666667 14.1666667,31.6666667 Z M14.1666667,38.3333333 C12.8333333,38.3333333 11.6666667,37.1666667 11.6666667,35.8333333 C11.6666667,34.5 12.8333333,33.3333333 14.1666667,33.3333333 C15.5,33.3333333 16.6666667,34.5 16.6666667,35.8333333 C16.6666667,37.1666667 15.5,38.3333333 14.1666667,38.3333333 Z" id="Shape" fill="#88CBC1" fill-rule="nonzero"></path>
                <path d="M30.8333333,31.6666667 C28.5,31.6666667 26.6666667,33.5 26.6666667,35.8333333 C26.6666667,38.1666667 28.5,40 30.8333333,40 C33.1666667,40 35,38.1666667 35,35.8333333 C35,33.5 33.1666667,31.6666667 30.8333333,31.6666667 Z M30.8333333,38.3333333 C29.5,38.3333333 28.3333333,37.1666667 28.3333333,35.8333333 C28.3333333,34.5 29.5,33.3333333 30.8333333,33.3333333 C32.1666667,33.3333333 33.3333333,34.5 33.3333333,35.8333333 C33.3333333,37.1666667 32.1666667,38.3333333 30.8333333,38.3333333 Z" id="Shape" fill="#88CBC1" fill-rule="nonzero"></path>
                <g id="Group-4" transform="translate(21.666667, 0.000000)" fill="#A67131">
                    <g id="Group-5" transform="translate(0.000000, 0.000000)">
                        <path d="M9.16666667,18.3333333 C14.1666667,18.3333333 18.3333333,14.1666667 18.3333333,9.16666667 C18.3333333,4.16666667 14.1666667,9.99200722e-15 9.16666667,9.99200722e-15 C4.16666667,9.99200722e-15 -9.65894031e-14,4.16666667 -9.65894031e-14,9.16666667 C-9.65894031e-14,14.1666667 4.16666667,18.3333333 9.16666667,18.3333333 Z M9.16666667,1.66666667 C13.3333333,1.66666667 16.6666667,5 16.6666667,9.16666667 C16.6666667,13.3333333 13.3333333,16.6666667 9.16666667,16.6666667 C5,16.6666667 1.66666667,13.3333333 1.66666667,9.16666667 C1.66666667,5 5,1.66666667 9.16666667,1.66666667 Z" id="Shape" fill-rule="nonzero"></path>
                        <circle id="Oval" cx="8.95833333" cy="9.375" r="8.125"></circle>
                    </g>
                </g>
            </g>
        </g>
    </g>
</svg>