<?xml version="1.0" encoding="utf-8"?>
<!-- Generator: Adobe Illustrator 24.1.2, SVG Export Plug-In . SVG Version: 6.00 Build 0)  -->
<svg version="1.1" id="Layer_1" xmlns="http://www.w3.org/2000/svg" xmlns:xlink="http://www.w3.org/1999/xlink" x="0px" y="0px"
	 viewBox="0 0 19.2 17.5" style="enable-background:new 0 0 19.2 17.5;" xml:space="preserve">
<style type="text/css">
	.st0{fill:#88CBC1;}
</style>
<g id="Left-Icon" transform="translate(15.000000, 11.000000)">
	<g id="presentation.1" transform="translate(2.000000, 3.000000)">
		<path id="Shape" class="st0" d="M0.9-2.3h-16.7c-0.2,0-0.4-0.2-0.4-0.4v-10.8c0-0.2,0.2-0.4,0.4-0.4H0.9c0.2,0,0.4,0.2,0.4,0.4
			v10.8C1.3-2.5,1.1-2.3,0.9-2.3z M-15.3-3.2H0.5v-10h-15.8V-3.2z"/>
		<path id="Path" class="st0" d="M-15.8-13.2h-0.8c-0.2,0-0.4-0.2-0.4-0.4c0-0.2,0.2-0.4,0.4-0.4h0.8c0.2,0,0.4,0.2,0.4,0.4
			C-15.3-13.4-15.5-13.2-15.8-13.2z"/>
		<path id="Path_1_" class="st0" d="M1.7-13.2H0.9c-0.2,0-0.4-0.2-0.4-0.4c0-0.2,0.2-0.4,0.4-0.4h0.8c0.2,0,0.4,0.2,0.4,0.4
			C2.2-13.4,2-13.2,1.7-13.2z"/>
		<path id="Path_2_" class="st0" d="M-7.4,1.8c-0.2,0-0.4-0.2-0.4-0.4v-4.2c0-0.2,0.2-0.4,0.4-0.4S-7-3-7-2.7v4.2
			C-7,1.6-7.2,1.8-7.4,1.8z"/>
		<path id="Shape_1_" class="st0" d="M-7.4,3.5c-0.7,0-1.3-0.6-1.3-1.2C-8.7,1.6-8.1,1-7.4,1s1.2,0.6,1.2,1.2
			C-6.2,2.9-6.7,3.5-7.4,3.5z M-7.4,1.8c-0.2,0-0.4,0.2-0.4,0.4c0,0.2,0.2,0.4,0.4,0.4S-7,2.5-7,2.2C-7,2-7.2,1.8-7.4,1.8z"/>
		<g id="Group" transform="translate(8.333333, 1.666667)">
			<path id="Shape_2_" class="st0" d="M-9.1-9.8h-3.3c-0.2,0-0.4-0.2-0.4-0.4v-3.3c0-0.2,0.2-0.4,0.4-0.4c2.1,0,3.8,1.7,3.8,3.8
				C-8.7-10-8.9-9.8-9.1-9.8z M-12-10.7h2.5c-0.2-1.3-1.2-2.3-2.5-2.5V-10.7z"/>
			<path id="Path_3_" class="st0" d="M-13.2-5.7c-2.1,0-3.8-1.7-3.8-3.8s1.7-3.8,3.8-3.8c0.2,0,0.4,0.2,0.4,0.4s-0.2,0.4-0.4,0.4
				c-1.6,0-2.9,1.3-2.9,2.9s1.3,2.9,2.9,2.9s2.9-1.3,2.9-2.9c0-0.2,0.2-0.4,0.4-0.4c0.2,0,0.4,0.2,0.4,0.4
				C-9.5-7.3-11.2-5.7-13.2-5.7z"/>
		</g>
		<path id="Path_4_" class="st0" d="M-10.8-4c-0.2,0-0.4-0.2-0.4-0.4v-6.7c0-0.2,0.2-0.4,0.4-0.4c0.2,0,0.4,0.2,0.4,0.4v6.7
			C-10.3-4.2-10.5-4-10.8-4z"/>
		<path id="Path_5_" class="st0" d="M-12.4-4c-0.2,0-0.4-0.2-0.4-0.4v-4.2c0-0.2,0.2-0.4,0.4-0.4c0.2,0,0.4,0.2,0.4,0.4v4.2
			C-12-4.2-12.2-4-12.4-4z"/>
		<path id="Path_6_" class="st0" d="M-14.1-4c-0.2,0-0.4-0.2-0.4-0.4v-2.5c0-0.2,0.2-0.4,0.4-0.4c0.2,0,0.4,0.2,0.4,0.4v2.5
			C-13.7-4.2-13.9-4-14.1-4z"/>
	</g>
</g>
</svg>
