<?xml version="1.0" encoding="utf-8"?>
<!-- Generator: Adobe Illustrator 24.1.2, SVG Export Plug-In . SVG Version: 6.00 Build 0)  -->
<svg version="1.1" id="Layer_1" xmlns="http://www.w3.org/2000/svg" xmlns:xlink="http://www.w3.org/1999/xlink" x="0px" y="0px"
	 viewBox="0 0 20 20" style="enable-background:new 0 0 20 20;" xml:space="preserve">
<style type="text/css">
	.st0{fill:#88CBC1;}
</style>
<g id="Left-Icon" transform="translate(15.000000, 11.000000)">
	<g id="question-app" transform="translate(2.000000, 2.000000)">
		<path id="Shape" class="st0" d="M-1.6-2.2c-2.5,0-4.6,2.1-4.6,4.6S-4.1,7-1.6,7S3,4.9,3,2.4S0.9-2.2-1.6-2.2z M-1.6,6.2
			c-2.1,0-3.8-1.7-3.8-3.7s1.7-3.8,3.8-3.8s3.7,1.7,3.7,3.8S0.5,6.2-1.6,6.2z"/>
		<path id="Path" class="st0" d="M-1.9,4.6C-2,4.7-2,4.8-2,4.9s0,0.2,0.1,0.3c0.1,0.1,0.2,0.1,0.3,0.1c0.1,0,0.2,0,0.3-0.1
			C-1.2,5.1-1.2,5-1.2,4.9s0-0.2-0.1-0.3C-1.4,4.5-1.7,4.5-1.9,4.6z"/>
		<path id="Path_1_" class="st0" d="M-1.6-0.5c-1.1,0-2,0.7-2.1,1.6c0,0.2,0.2,0.4,0.4,0.5c0.2,0,0.4-0.2,0.4-0.4
			c0-0.4,0.6-0.8,1.2-0.8c0.7,0,1.3,0.4,1.3,0.8c0,0.4-0.4,0.7-1.2,0.8l-0.1,0C-1.9,2-2,2.2-2,2.4l0,0.8c0,0.2,0.2,0.4,0.4,0.4
			c0.2,0,0.4-0.2,0.4-0.4l0-0.5C-0.1,2.5,0.5,2,0.5,1.2C0.5,0.2-0.4-0.5-1.6-0.5z"/>
		<path id="Shape_1_" class="st0" d="M-7.4,4.5h-7.5c-0.7,0-1.2-0.6-1.2-1.2V-8.8H0.5V-3c0,0.2,0.2,0.4,0.4,0.4
			c0.2,0,0.4-0.2,0.4-0.4v-7.9c0-1.1-0.9-2.1-2.1-2.1h-14.2c-1.1,0-2.1,0.9-2.1,2.1V3.2c0,1.1,0.9,2.1,2.1,2.1h7.5
			C-7.2,5.3-7,5.1-7,4.9C-7,4.7-7.2,4.5-7.4,4.5z M-14.9-12.2h14.2c0.7,0,1.2,0.6,1.2,1.2v1.2h-16.7v-1.2
			C-16.2-11.6-15.6-12.2-14.9-12.2z"/>
		<circle id="Oval" class="st0" cx="-14.9" cy="-10.9" r="1"/>
		<circle id="Oval_1_" class="st0" cx="-13.2" cy="-10.9" r="1"/>
		<circle id="Oval_2_" class="st0" cx="-11.6" cy="-10.9" r="1"/>
	</g>
</g>
</svg>
