<?xml version="1.0" encoding="utf-8"?>
<!-- Generator: Adobe Illustrator 24.1.2, SVG Export Plug-In . SVG Version: 6.00 Build 0)  -->
<svg version="1.1" id="Layer_1" xmlns="http://www.w3.org/2000/svg" xmlns:xlink="http://www.w3.org/1999/xlink" x="0px" y="0px"
	 viewBox="0 0 20 20" style="enable-background:new 0 0 20 20;" xml:space="preserve">
<style type="text/css">
	.st0{opacity:0.65;}
	.st1{fill:#88CBC1;}
</style>
<g id="Left-Icon" transform="translate(15.000000, 11.000000)" class="st0">
	<g id="house" transform="translate(2.000000, 2.000000)">
		<path id="Shape" class="st1" d="M-4.1-3h-5.8c-0.2,0-0.4,0.2-0.4,0.4v5.8c0,0.2,0.2,0.4,0.4,0.4h5.8c0.2,0,0.4-0.2,0.4-0.4v-5.8
			C-3.7-2.8-3.9-3-4.1-3z M-4.5,2.8h-5v-5h5V2.8z"/>
		<path id="Shape_1_" class="st1" d="M2.9-3.7L0.5-6.1v-6.5c0-0.2-0.2-0.4-0.4-0.4h-3.3c-0.2,0-0.4,0.2-0.4,0.4v2.3L-6-12.6
			c-0.5-0.5-1.5-0.5-2,0l-8.9,8.9C-17-3.6-17-3.4-17-3.3c0.1,0.2,0.2,0.3,0.4,0.3h2.1v9.6c0,0.2,0.2,0.4,0.4,0.4H0.1
			c0.2,0,0.4-0.2,0.4-0.4V-3h2.1C2.8-3,2.9-3.1,3-3.3C3-3.4,3-3.6,2.9-3.7z M0.1-3.8c-0.2,0-0.4,0.2-0.4,0.4v9.6h-13.3v-9.6
			c0-0.2-0.2-0.4-0.4-0.4h-1.5l8.2-8.2c0.2-0.2,0.6-0.2,0.8,0l3,3c0.1,0.1,0.3,0.2,0.5,0.1c0.2-0.1,0.3-0.2,0.3-0.4v-2.9h2.5v6.2
			c0,0.1,0,0.2,0.1,0.3l1.8,1.8H0.1z"/>
	</g>
</g>
</svg>
