<?xml version="1.0" encoding="utf-8"?>
<!-- Generator: Adobe Illustrator 24.1.2, SVG Export Plug-In . SVG Version: 6.00 Build 0)  -->
<svg version="1.1" id="Layer_1" xmlns="http://www.w3.org/2000/svg" xmlns:xlink="http://www.w3.org/1999/xlink" x="0px" y="0px"
	 viewBox="0 0 10 6" style="enable-background:new 0 0 10 6;" xml:space="preserve">
<style type="text/css">
	.st0{opacity:0.65;}
	.st1{fill-rule:evenodd;clip-rule:evenodd;fill:#FFFFFF;}
</style>
<g id="Right-Icon" transform="translate(221.000000, 11.000000)" class="st0">
	<path id="Combined-Shape" class="st1" d="M-211.1-10.9c0.2,0.2,0.2,0.5,0,0.7l-4.5,5c0,0-0.1,0.1-0.1,0.1C-215.7-5-215.9-5-216-5
		c0,0,0,0,0,0c0,0,0,0,0,0c-0.1,0-0.2,0-0.3-0.1c0,0-0.1-0.1-0.1-0.1l-4.5-5c-0.2-0.2-0.2-0.5,0-0.7c0.2-0.2,0.5-0.2,0.7,0l0,0
		l4.2,4.7l4.2-4.7C-211.6-11-211.3-11.1-211.1-10.9z"/>
</g>
</svg>
