<?xml version="1.0" encoding="utf-8"?>
<!-- Generator: Adobe Illustrator 25.1.0, SVG Export Plug-In . SVG Version: 6.00 Build 0)  -->
<svg version="1.1" id="Layer_1" xmlns="http://www.w3.org/2000/svg" xmlns:xlink="http://www.w3.org/1999/xlink" x="0px" y="0px"
	 viewBox="0 0 30 30" style="enable-background:new 0 0 30 30;" xml:space="preserve">
<style type="text/css">
	.st0{fill:#FFFFFF;}
</style>
<path class="st0" d="M28.7,15.5c-0.9-0.2-1.8-0.7-2.5-1.4l-5.7-5.6c-0.5-0.5-1.2-0.8-1.9-0.9l-2.2-3C16.1,4.3,15.5,4,15,4H1.8
	C0.8,4,0,4.8,0,5.7L0,21c0,1.6,1.4,3,3,3h0.2c0.4,1.2,1.5,2,2.8,2s2.4-0.8,2.8-2h12.3c0.4,1.2,1.5,2,2.8,2s2.4-0.9,2.8-2H27
	c1.7,0,3-1.3,3-3v-3.8C30,16.4,29.5,15.7,28.7,15.5z M18,18.5c0-0.3,0.2-0.5,0.5-0.5h1c0.3,0,0.5,0.2,0.5,0.5S19.8,19,19.5,19h-1
	C18.2,19,18,18.8,18,18.5z M15.5,10c0.3,0,0.5,0.2,0.5,0.5V15h7.5c0.3,0,0.5,0.2,0.5,0.5S23.8,16,23.5,16h-8c-0.3,0-0.5-0.2-0.5-0.5
	v-5C15,10.2,15.2,10,15.5,10z M4.5,8h10C14.8,8,15,8.2,15,8.5S14.8,9,14.5,9h-10C4.2,9,4,8.8,4,8.5S4.2,8,4.5,8z M4.5,11h7
	c0.3,0,0.5,0.2,0.5,0.5S11.8,12,11.5,12h-7C4.2,12,4,11.8,4,11.5S4.2,11,4.5,11z M4.5,14h7c0.3,0,0.5,0.2,0.5,0.5S11.8,15,11.5,15
	h-7C4.2,15,4,14.8,4,14.5S4.2,14,4.5,14z M6,25c-0.9,0-1.7-0.6-1.9-1.5c0,0,0,0,0,0c0-0.1,0-0.1,0-0.2c0-0.1,0-0.2,0-0.3v0
	c0-1.1,0.9-2,2-2s2,0.9,2,2c0,0.1,0,0.3,0,0.4l0,0C7.8,24.3,7,25,6,25z M24,25c-0.9,0-1.7-0.7-2-1.5c0,0,0,0,0,0c0-0.1,0-0.1,0-0.2
	c0-0.1,0-0.2,0-0.3v0c0-1,0.7-1.8,1.6-2c0.1,0,0.3,0,0.4,0s0.3,0,0.4,0c0.9,0.2,1.6,1,1.6,2c0,0.1,0,0.3,0,0.4v0
	C25.8,24.3,25,25,24,25z"/>
<g id="XMLID_1_">
</g>
<g id="XMLID_2_">
</g>
<g id="XMLID_3_">
</g>
<g id="XMLID_4_">
</g>
<g id="XMLID_5_">
</g>
<g id="XMLID_6_">
</g>
<g id="XMLID_7_">
</g>
<g id="XMLID_8_">
</g>
<g id="XMLID_9_">
</g>
<g id="XMLID_10_">
</g>
<g id="XMLID_11_">
</g>
<g id="XMLID_12_">
</g>
<g id="XMLID_13_">
</g>
<g id="XMLID_14_">
</g>
<g id="XMLID_15_">
</g>
</svg>
