<?xml version="1.0" encoding="utf-8"?>
<!-- Generator: Adobe Illustrator 24.1.2, SVG Export Plug-In . SVG Version: 6.00 Build 0)  -->
<svg version="1.1" id="Layer_1" xmlns="http://www.w3.org/2000/svg" xmlns:xlink="http://www.w3.org/1999/xlink" x="0px" y="0px"
	 viewBox="0 0 14.7 20" style="enable-background:new 0 0 14.7 20;" xml:space="preserve">
<style type="text/css">
	.st0{opacity:0.65;}
	.st1{fill:#88CBC1;}
</style>
<g id="Left-Icon" transform="translate(15.000000, 11.000000)">
	<g id="Icons-_x2F_-24-_x2F_-ic_x5F_dashboard-_x2F_-active" transform="translate(3.000000, 3.000000)" class="st0">
	</g>
	<g id="clipboard" transform="translate(5.000000, 2.000000)">
		<path id="Shape" class="st1" d="M-17.7-1.7h4c0.2,0,0.3-0.1,0.3-0.3v-4c0-0.2-0.1-0.3-0.3-0.3h-4C-17.9-6.3-18-6.2-18-6v4
			C-18-1.8-17.9-1.7-17.7-1.7z M-17.3-5.7h3.3v3.3h-3.3V-5.7z M-13.7,2.7C-13.9,2.7-14,2.8-14,3v1.3h-3.3V1h2.7
			c0.2,0,0.3-0.1,0.3-0.3s-0.1-0.3-0.3-0.3h-3c-0.2,0-0.3,0.1-0.3,0.3v4c0,0.2,0.1,0.3,0.3,0.3h4c0.2,0,0.3-0.1,0.3-0.3V3
			C-13.3,2.8-13.5,2.7-13.7,2.7z M-7.7,2.3h-4.7c-0.2,0-0.3,0.1-0.3,0.3S-12.5,3-12.3,3h4.7c0.2,0,0.3-0.1,0.3-0.3S-7.5,2.3-7.7,2.3
			z M-13.2,0.4l-2.4,2.4l-0.8-0.8c-0.1-0.1-0.3-0.1-0.5,0c-0.1,0.1-0.1,0.3,0,0.5l1,1c0.1,0.1,0.2,0.1,0.2,0.1c0.1,0,0.2,0,0.2-0.1
			l2.7-2.7c0.1-0.1,0.1-0.3,0-0.5C-12.9,0.3-13.1,0.3-13.2,0.4z M-6.5-11.7h-2.2c-0.1-0.4-0.5-0.7-0.9-0.7h-1.7
			c-0.3-0.4-0.8-0.7-1.3-0.7c-0.5,0-1,0.3-1.3,0.7h-1.7c-0.4,0-0.8,0.3-0.9,0.7h-2.2c-0.6,0-1.2,0.5-1.2,1.2V5.8
			c0,0.7,0.5,1.2,1.2,1.2h12.4c0.6,0,1.2-0.5,1.2-1.2v-16.3C-5.3-11.1-5.9-11.7-6.5-11.7z M-16-11.3c0-0.2,0.1-0.3,0.3-0.3h1.9
			c0.1,0,0.2-0.1,0.3-0.2c0.2-0.3,0.5-0.5,0.9-0.5c0.4,0,0.7,0.2,0.9,0.5c0.1,0.1,0.2,0.2,0.3,0.2h1.9c0.2,0,0.3,0.1,0.3,0.3v0.3
			H-16V-11.3z M-6,5.8c0,0.3-0.2,0.5-0.5,0.5h-12.4c-0.3,0-0.5-0.2-0.5-0.5v-16.3c0-0.3,0.2-0.5,0.5-0.5h2.2v0.3
			c0,0.2,0.1,0.3,0.3,0.3H-9c0.2,0,0.3-0.1,0.3-0.3V-11h2.2c0.3,0,0.5,0.2,0.5,0.5V5.8z M-7.7-4.3h-4.7c-0.2,0-0.3,0.1-0.3,0.3
			s0.1,0.3,0.3,0.3h4.7c0.2,0,0.3-0.1,0.3-0.3S-7.5-4.3-7.7-4.3z"/>
	</g>
</g>
</svg>
