<?xml version="1.0" encoding="utf-8"?>
<!-- Generator: Adobe Illustrator 24.1.2, SVG Export Plug-In . SVG Version: 6.00 Build 0)  -->
<svg version="1.1" id="Layer_1" xmlns="http://www.w3.org/2000/svg" xmlns:xlink="http://www.w3.org/1999/xlink" x="0px" y="0px"
	 viewBox="0 0 26 17" style="enable-background:new 0 0 26 17;" xml:space="preserve">
<style type="text/css">
	.st0{fill-rule:evenodd;clip-rule:evenodd;fill:#195458;}
</style>
<g id="Utility-Icons-_x2F_-preview" transform="translate(512.000000, 18.000000)">
	<g id="_xD83C__xDFA8_-Icon-Color">
		<path id="path-2_1_" class="st0" d="M-486.1-9.9c-2.4-4.8-7.2-8.1-12.9-8.1c-5.7,0-10.6,3.3-12.9,8.1c-0.1,0.3-0.1,0.6,0,0.9
			c2.4,4.8,7.2,8.1,12.9,8.1c5.6,0,10.5-3.3,12.9-8.1C-485.9-9.4-485.9-9.6-486.1-9.9L-486.1-9.9z M-499-4c-3.1,0-5.5-2.4-5.5-5.5
			S-502-15-499-15c3,0,5.5,2.4,5.5,5.5S-495.9-4-499-4L-499-4z M-499-13c-2,0-3.5,1.6-3.5,3.5S-500.9-6-499-6c1.9,0,3.5-1.6,3.5-3.5
			S-497-13-499-13L-499-13z"/>
	</g>
</g>
</svg>
