<?xml version="1.0" encoding="utf-8"?>
<!-- Generator: Adobe Illustrator 24.1.2, SVG Export Plug-In . SVG Version: 6.00 Build 0)  -->
<svg version="1.1" id="Layer_1" xmlns="http://www.w3.org/2000/svg" xmlns:xlink="http://www.w3.org/1999/xlink" x="0px" y="0px"
	 viewBox="0 0 20 20" style="enable-background:new 0 0 20 20;" xml:space="preserve">
<style type="text/css">
	.st0{opacity:0.65;}
	.st1{fill:#88CBC1;}
</style>
<g id="Left-Icon_1_" transform="translate(15.000000, 11.000000)">
	<g id="Icons-_x2F_-24-_x2F_-ic_x5F_dashboard-_x2F_-active_1_" transform="translate(3.000000, 3.000000)" class="st0">
	</g>
	<g id="box-deliver_1_" transform="translate(2.000000, 2.000000)">
		<path id="Shape_1_" class="st1" d="M-10.5,0.5c0,0-0.1-0.1-0.1-0.1c0,0-0.1,0-0.1,0c0,0,0,0-0.1,0c0,0-0.1,0-0.1,0c0,0,0,0-0.1,0
			C-11,0.4-11,0.4-11,0.5l-1.2,1.2c-0.2,0.2-0.2,0.4,0,0.6c0.2,0.2,0.4,0.2,0.6,0l0.5-0.5v1.5c0,0.2,0.2,0.4,0.4,0.4
			s0.4-0.2,0.4-0.4V1.8l0.5,0.5c0.1,0.1,0.2,0.1,0.3,0.1s0.2,0,0.3-0.1C-9,2.1-9,1.9-9.2,1.7L-10.5,0.5L-10.5,0.5z M-6.6,5.9L-7,6
			V-12l8.3,2.3v9.8c0,0.2,0.2,0.4,0.4,0.4s0.4-0.2,0.4-0.4v-10.1c0-0.2-0.1-0.4-0.3-0.4L-7.3-13c0,0,0,0,0,0c0,0,0,0-0.1,0
			s0,0-0.1,0c0,0,0,0,0,0l-9.2,2.5c-0.2,0-0.3,0.2-0.3,0.4V4.1c0,0.2,0.1,0.4,0.3,0.4L-7.5,7c0,0,0.1,0,0.1,0c0,0,0.1,0,0.1,0
			l0.9-0.3C-6.1,6.7-6,6.4-6.1,6.2C-6.1,6-6.4,5.9-6.6,5.9z M-13.7-10.4l2.5-0.7v7.5l-0.4,0.4l-0.5-0.5c-0.2-0.2-0.4-0.2-0.6,0
			l-0.5,0.5l-0.4-0.4V-10.4z M-7.8,6l-8.3-2.3V-9.8l1.7-0.5v6.8c0,0.1,0,0.2,0.1,0.3l0.8,0.8c0.2,0.2,0.4,0.2,0.6,0l0.5-0.5l0.5,0.5
			c0.1,0.1,0.2,0.1,0.3,0.1c0.1,0,0.2,0,0.3-0.1l0.8-0.8c0.1-0.1,0.1-0.2,0.1-0.3v-7.9c0,0,0,0,0,0l2.5-0.7V6z M2.9,3L0.4,0.5
			C0.3,0.4,0.2,0.3,0.1,0.3h-5c-0.2,0-0.4,0.2-0.4,0.4v5c0,0.2,0.2,0.4,0.4,0.4h0.5C-4.3,6.7-3.8,7-3.2,7s1-0.3,1.2-0.8h1.8
			C-0.1,6.7,0.4,7,0.9,7c0.5,0,1-0.3,1.2-0.8h0.5C2.8,6.2,3,6,3,5.8V3.2C3,3.1,3,3,2.9,3z M-3.2,6.2c-0.2,0-0.4-0.2-0.4-0.4
			s0.2-0.4,0.4-0.4s0.4,0.2,0.4,0.4S-3,6.2-3.2,6.2z M0.9,6.2C0.7,6.2,0.5,6,0.5,5.8s0.2-0.4,0.4-0.4c0.2,0,0.4,0.2,0.4,0.4
			S1.1,6.2,0.9,6.2z M2.2,5.3L2.2,5.3C1.9,4.8,1.5,4.5,0.9,4.5c-0.5,0-1,0.3-1.2,0.8h-1.8c-0.2-0.5-0.6-0.8-1.2-0.8s-1,0.3-1.2,0.8
			h-0.1V1.2h4.4l2.3,2.3V5.3z M-0.3,2c0-0.2-0.2-0.4-0.4-0.4S-1.2,1.8-1.2,2v1.2c0,0.2,0.2,0.4,0.4,0.4h1.7c0.2,0,0.4-0.2,0.4-0.4
			S1.1,2.8,0.9,2.8h-1.2V2z"/>
	</g>
</g>
</svg>
