<?xml version="1.0" encoding="utf-8"?>
<!-- Generator: Adobe Illustrator 24.1.2, SVG Export Plug-In . SVG Version: 6.00 Build 0)  -->
<svg version="1.1" id="Layer_1" xmlns="http://www.w3.org/2000/svg" xmlns:xlink="http://www.w3.org/1999/xlink" x="0px" y="0px"
	 viewBox="0 0 20 18.3" style="enable-background:new 0 0 20 18.3;" xml:space="preserve">
<style type="text/css">
	.st0{fill:#88CBC1;}
</style>
<g id="Left-Icon" transform="translate(15.000000, 11.000000)">
	<g id="analytics" transform="translate(2.000000, 3.000000)">
		<path id="Shape" class="st0" d="M0.9-14h-15.8c-1.1,0-2.1,0.9-2.1,2.1V2.2c0,1.1,0.9,2.1,2.1,2.1H0.9C2.1,4.3,3,3.4,3,2.2v-14.2
			C3-13.1,2.1-14,0.9-14z M-14.9-13.2H0.9c0.7,0,1.2,0.6,1.2,1.2v1.2h-18.3v-1.2C-16.2-12.6-15.6-13.2-14.9-13.2z M0.9,3.5h-15.8
			c-0.7,0-1.2-0.6-1.2-1.2V-9.8H2.2V2.2C2.2,2.9,1.6,3.5,0.9,3.5z"/>
		<circle id="Oval" class="st0" cx="-14.9" cy="-11.9" r="1"/>
		<circle id="Oval_1_" class="st0" cx="-13.2" cy="-11.9" r="1"/>
		<circle id="Oval_2_" class="st0" cx="-11.6" cy="-11.9" r="1"/>
		<path id="Shape_1_" class="st0" d="M-10.8-7.3c-0.2,0-0.4,0.2-0.4,0.4v0.4c-1.8,0-3.3,1.5-3.3,3.3s1.5,3.3,3.3,3.3
			s3.3-1.5,3.3-3.3h0.4C-7.2-3.2-7-3.4-7-3.6C-7-5.7-8.7-7.3-10.8-7.3z M-11.2-0.7c-1.4,0-2.5-1.1-2.5-2.5s1.1-2.5,2.5-2.5v2.1
			c0,0.2,0.2,0.4,0.4,0.4h2.1C-8.7-1.8-9.8-0.7-11.2-0.7z M-10.3-4v-2.5C-9.1-6.3-8-5.3-7.9-4H-10.3z"/>
		<path id="Path" class="st0" d="M0.1-6.5h-5c-0.2,0-0.4,0.2-0.4,0.4s0.2,0.4,0.4,0.4h5c0.2,0,0.4-0.2,0.4-0.4S0.3-6.5,0.1-6.5z"/>
		<path id="Path_1_" class="st0" d="M0.1-4h-5c-0.2,0-0.4,0.2-0.4,0.4c0,0.2,0.2,0.4,0.4,0.4h5c0.2,0,0.4-0.2,0.4-0.4
			C0.5-3.8,0.3-4,0.1-4z"/>
		<path id="Path_2_" class="st0" d="M0.1-1.5h-5c-0.2,0-0.4,0.2-0.4,0.4c0,0.2,0.2,0.4,0.4,0.4h5c0.2,0,0.4-0.2,0.4-0.4
			C0.5-1.3,0.3-1.5,0.1-1.5z"/>
	</g>
</g>
</svg>
