<?xml version="1.0" encoding="utf-8"?>
<!-- Generator: Adobe Illustrator 24.1.2, SVG Export Plug-In . SVG Version: 6.00 Build 0)  -->
<svg version="1.1" id="Layer_1" xmlns="http://www.w3.org/2000/svg" xmlns:xlink="http://www.w3.org/1999/xlink" x="0px" y="0px"
	 viewBox="0 0 17.5 17.5" style="enable-background:new 0 0 17.5 17.5;" xml:space="preserve">
<style type="text/css">
	.st0{fill:#195458;stroke:#88CBC1;stroke-width:1.5;}
</style>
<g id="Filigreen-2.5-Source">
	<g id="Marketplace-Brand" transform="translate(-1243.000000, -12.000000)">
		<g id="Group" transform="translate(1243.000000, 12.000000)">
			<g id="search" transform="translate(12.000000, 12.000000)">
				<path id="Shape" class="st0" d="M-5.6,0.1c-3.1,0-5.7-2.5-5.7-5.7s2.5-5.7,5.7-5.7s5.7,2.5,5.7,5.7S-2.5,0.1-5.6,0.1z
					 M-5.6-10.6c-2.8,0-5,2.2-5,5s2.2,5,5,5s5-2.2,5-5S-2.8-10.6-5.6-10.6z"/>
				<path id="Path" class="st0" d="M4.4,4.8c-0.1,0-0.2,0-0.2-0.1L-2-1.6C-2.2-1.7-2.2-1.9-2-2c0.1-0.1,0.3-0.1,0.5,0l6.2,6.2
					c0.1,0.1,0.1,0.3,0,0.5C4.6,4.7,4.5,4.8,4.4,4.8z"/>
			</g>
		</g>
	</g>
</g>
</svg>
