<?xml version="1.0" encoding="utf-8"?>
<!-- Generator: Adobe Illustrator 24.1.2, SVG Export Plug-In . SVG Version: 6.00 Build 0)  -->
<svg version="1.1" id="Layer_1" xmlns="http://www.w3.org/2000/svg" xmlns:xlink="http://www.w3.org/1999/xlink" x="0px" y="0px"
	 viewBox="0 0 14 20" style="enable-background:new 0 0 14 20;" xml:space="preserve">
<style type="text/css">
	.st0{fill:#88CBC1;}
</style>
<g id="Left-Icon" transform="translate(15.000000, 11.000000)">
	<g id="delivery" transform="translate(5.000000, 2.000000)">
		<path id="Shape" class="st0" d="M-13,5.7h1.3c0.2,0,0.3-0.1,0.3-0.3S-11.5,5-11.7,5H-13c-0.2,0-0.3,0.1-0.3,0.3S-13.2,5.7-13,5.7z
			 M-6-6C-6-6-6-6-6-6c0-3.9-3.1-7-7-7c-3.9,0-7,3.1-7,7c0,0,0,0,0,0c0,0,0,0,0,0c0,0,0,0,0,0.1c0,0,0,0,0,0.1c0,0,0,0,0,0.1
			c0,0,0,0,0,0l6.2,6.8h-1.9C-15.9,1-16,1.1-16,1.3v5.3c0,0.2,0.1,0.3,0.3,0.3h5.3c0.2,0,0.3-0.1,0.3-0.3V1.3c0-0.2-0.1-0.3-0.3-0.3
			h-1.9l6.2-6.8c0,0,0,0,0,0c0,0,0,0,0-0.1C-6-5.9-6-5.9-6-6C-6-6-6-6-6-6C-6-6-6-6-6-6z M-13-12.3c3,0,5.5,2.1,6.2,4.9
			C-7.5-8-8.6-8.3-9.7-8.3c-1.4,0-2.7,0.6-3.3,1.4c-0.6-0.8-1.9-1.4-3.3-1.4c-1.1,0-2.1,0.4-2.8,0.9C-18.5-10.2-16-12.3-13-12.3z
			 M-19.3-6.1c0.1-0.7,1.3-1.6,3-1.6c1.7,0,3,1,3,1.7v6.5L-19.3-6.1z M-10.7,1.7v4.7h-4.7V1.7H-10.7z M-12.7,0.5V-6
			c0-0.7,1.3-1.7,3-1.7c1.7,0,2.9,0.9,3,1.6L-12.7,0.5z"/>
	</g>
</g>
</svg>
