<?xml version="1.0" encoding="utf-8"?>
<!-- Generator: Adobe Illustrator 24.1.2, SVG Export Plug-In . SVG Version: 6.00 Build 0)  -->
<svg version="1.1" id="Layer_1" xmlns="http://www.w3.org/2000/svg" xmlns:xlink="http://www.w3.org/1999/xlink" x="0px" y="0px"
	 viewBox="0 0 19.2 17.9" style="enable-background:new 0 0 19.2 17.9;" xml:space="preserve">
<style type="text/css">
	.st0{fill:#88CBC1;}
</style>
<g id="Left-Icon" transform="translate(15.000000, 11.000000)">
	<g id="gear" transform="translate(2.000000, 3.000000)">
		<path id="Shape" class="st0" d="M-4.3,3.9C-4.3,3.9-4.3,3.9-4.3,3.9c-0.8,0-1.4-0.5-1.6-1.3C-5.9,2.2-6.3,2-6.7,2
			c-0.5,0-1,0-1.4,0C-8.5,2-8.9,2.2-9,2.6c-0.1,0.8-0.8,1.3-1.5,1.3c-0.2,0-0.4,0-0.6-0.1c-0.7-0.3-1.4-0.7-2.1-1.2
			c-0.4-0.3-0.6-0.7-0.6-1.2c0-0.5,0.2-0.9,0.6-1.2c0.3-0.2,0.3-0.7,0.1-1c-0.3-0.4-0.5-0.8-0.7-1.2c-0.2-0.4-0.6-0.6-0.9-0.4
			c-1,0.4-2-0.3-2.1-1.3C-17-4.2-17-4.6-17-5s0-0.8,0.1-1.2c0.1-0.8,0.8-1.4,1.6-1.4c0.2,0,0.4,0,0.5,0.1c0.4,0.1,0.8-0.1,0.9-0.4
			c0.2-0.4,0.4-0.9,0.7-1.2c0.2-0.3,0.2-0.8-0.1-1c-0.4-0.3-0.6-0.8-0.6-1.2c0-0.5,0.2-0.9,0.6-1.2c0.6-0.5,1.3-0.9,2.1-1.2
			c0.2-0.1,0.4-0.1,0.6-0.1c0.8,0,1.4,0.5,1.5,1.3c0.1,0.4,0.4,0.6,0.8,0.6c0.5,0,1,0,1.4,0c0.4,0,0.8-0.2,0.8-0.6
			c0.1-0.8,0.8-1.3,1.5-1.3c0.2,0,0.4,0,0.6,0.1c0.7,0.3,1.4,0.7,2.1,1.2c0.4,0.3,0.6,0.7,0.6,1.2c0,0.5-0.2,0.9-0.6,1.2
			c-0.3,0.2-0.3,0.7-0.1,1C-1.4-8.8-1.2-8.4-1-8C-0.8-7.6-0.4-7.4,0-7.5c1-0.4,2,0.3,2.1,1.3C2.1-5.9,2.2-5.5,2.2-5s0,0.8-0.1,1.2
			C2-3.1,1.3-2.5,0.5-2.5c-0.2,0-0.4,0-0.5-0.1C-0.4-2.7-0.8-2.5-1-2.1c-0.2,0.4-0.4,0.9-0.7,1.2c-0.2,0.3-0.2,0.8,0.1,1
			C-1.2,0.4-1,0.9-1,1.3c0,0.5-0.2,0.9-0.6,1.2C-2.3,3.1-3,3.5-3.7,3.8C-3.9,3.9-4.1,3.9-4.3,3.9z M-6.6,1.2c0.8,0,1.4,0.5,1.6,1.3
			C-5,2.8-4.7,3.1-4.3,3.1c0,0,0,0,0,0C-4.2,3.1-4.1,3-4,3c0.7-0.3,1.3-0.6,1.9-1.1c0.2-0.1,0.3-0.4,0.3-0.6c0-0.2-0.1-0.4-0.3-0.6
			c-0.6-0.5-0.8-1.5-0.3-2.2c0.2-0.3,0.5-0.7,0.6-1.1c0.3-0.8,1.2-1.1,2-0.9c0.5,0.2,0.9-0.1,1-0.6c0-0.4,0.1-0.7,0.1-1.1
			s0-0.7-0.1-1.1c-0.1-0.5-0.5-0.8-1-0.6c-0.8,0.3-1.7-0.1-2-0.9C-1.9-8-2.1-8.4-2.4-8.7c-0.5-0.7-0.4-1.6,0.3-2.2
			c0.2-0.1,0.3-0.4,0.3-0.6c0-0.2-0.1-0.4-0.3-0.6c-0.6-0.4-1.2-0.8-1.9-1.1c-0.4-0.2-1,0.1-1,0.5c-0.1,0.8-0.9,1.4-1.7,1.3
			c-0.4,0-0.8,0-1.2,0c-0.9,0.1-1.6-0.5-1.7-1.3c-0.1-0.5-0.6-0.7-1-0.5c-0.7,0.3-1.3,0.6-1.9,1.1c-0.2,0.1-0.3,0.4-0.3,0.6
			c0,0.2,0.1,0.4,0.3,0.6c0.6,0.5,0.8,1.5,0.3,2.2c-0.2,0.3-0.5,0.7-0.6,1.1c-0.3,0.8-1.2,1.1-2,0.9c-0.5-0.2-0.9,0.1-1,0.6
			c0,0.4-0.1,0.7-0.1,1.1s0,0.7,0.1,1.1c0.1,0.5,0.5,0.8,1,0.6c0.8-0.3,1.7,0.1,2,0.9c0.2,0.4,0.4,0.8,0.6,1.1
			c0.5,0.7,0.4,1.6-0.3,2.2C-12.9,0.9-13,1.1-13,1.3c0,0.2,0.1,0.4,0.3,0.6c0.6,0.4,1.2,0.8,1.9,1.1c0.4,0.2,1-0.1,1-0.5
			C-9.6,1.6-8.9,1.1-8,1.2c0.4,0,0.8,0,1.2,0C-6.7,1.2-6.7,1.2-6.6,1.2z"/>
		<path id="Shape_1_" class="st0" d="M-7.4-0.5C-9.9-0.5-12-2.5-12-5s2.1-4.6,4.6-4.6S-2.8-7.6-2.8-5S-4.9-0.5-7.4-0.5z M-7.4-8.8
			c-2.1,0-3.8,1.7-3.8,3.8s1.7,3.8,3.8,3.8S-3.7-3-3.7-5S-5.3-8.8-7.4-8.8z"/>
		<g id="Group" transform="translate(5.833333, 5.833333)">
			<path id="Shape_2_" class="st0" d="M-13.2-9.6c-1.1,0-2.1-0.9-2.1-2.1s0.9-2.1,2.1-2.1s2.1,0.9,2.1,2.1S-12.1-9.6-13.2-9.6z
				 M-13.2-13c-0.7,0-1.2,0.6-1.2,1.2c0,0.7,0.6,1.2,1.2,1.2S-12-11-12-11.7C-12-12.4-12.6-13-13.2-13z"/>
			<path id="Shape_3_" class="st0" d="M-13.2-6.3c-1.2,0-2.4-0.5-3.2-1.3c-0.1-0.1-0.2-0.3-0.1-0.4c0.5-1.4,1.8-2.4,3.3-2.4
				s2.8,1,3.3,2.4c0.1,0.2,0,0.3-0.1,0.4C-10.9-6.8-12-6.3-13.2-6.3z M-15.7-8c1.4,1.2,3.5,1.2,4.9,0c-0.4-1-1.4-1.6-2.5-1.6
				S-15.3-9-15.7-8z"/>
		</g>
	</g>
</g>
</svg>
