<svg width="2000" height="499" viewBox="0 0 2000 499" fill="none" xmlns="http://www.w3.org/2000/svg">
<path fill-rule="evenodd" clip-rule="evenodd" d="M722.285 248.325C722.285 122.658 792.41 40.6351 899.861 40.6351C1008.06 40.6351 1078.19 123.786 1078.19 249.078C1078.19 373.617 1009.57 456.016 899.861 456.016C791.656 456.016 722.285 374.369 722.285 248.325ZM676.289 249.078C676.289 395.439 764.511 498.156 899.861 498.156C1034.83 498.156 1124.19 396.944 1124.19 248.325C1124.19 100.459 1034.08 0 899.861 0C765.642 0 676.289 101.964 676.289 249.078Z" fill="#E3E0CE"/>
<path fill-rule="evenodd" clip-rule="evenodd" d="M177.493 493.265H228.767C230.652 493.265 232.538 492.136 233.292 489.878L328.677 226.503C330.185 222.364 336.218 222.364 338.103 226.503L433.488 489.878C434.242 491.76 436.127 493.265 438.013 493.265H489.287C491.172 493.265 493.057 492.136 493.811 489.878L666.486 14.2976C667.617 10.9114 665.355 7.90137 661.962 7.90137H626.899C624.637 7.90137 623.129 9.03012 622.375 11.2876L465.912 453.006C465.535 454.135 464.404 454.887 463.273 454.887C462.142 454.887 461.011 454.135 460.634 453.006L356.2 153.887C355.823 152.758 355.823 151.629 356.2 150.5L405.589 14.2976C406.72 10.9114 404.458 7.90137 401.065 7.90137H366.002C363.74 7.90137 362.232 9.03012 361.478 11.2876L338.48 76.7552C336.972 81.2702 330.562 81.2702 329.054 76.7552L306.433 11.2876C305.679 9.40637 303.794 7.90137 301.909 7.90137H265.715C262.322 7.90137 260.06 11.2876 261.191 14.2976L310.957 151.629C311.334 152.758 311.334 153.887 310.957 155.015L205.392 453.006C205.015 454.135 203.884 454.887 202.753 454.887C201.622 454.887 200.491 454.135 200.114 453.006L45.5364 11.2876C44.7824 9.40637 42.8973 7.90137 41.0122 7.90137H4.81844C1.42528 7.90137 -0.836834 11.2876 0.294221 14.2976L172.969 489.878C173.346 492.136 175.231 493.265 177.493 493.265Z" fill="#E3E0CE"/>
<path fill-rule="evenodd" clip-rule="evenodd" d="M1647.86 491.383H1614.31C1611.67 491.383 1609.41 489.126 1609.41 486.492V10.9113C1609.41 8.27752 1611.67 6.02002 1614.31 6.02002H1668.98C1670.49 6.02002 1672.37 6.77252 1673.12 8.27752L1956.64 439.837C1957.4 441.342 1959.28 442.094 1960.79 442.094L1956.64 292.347V10.9113C1956.64 8.27752 1958.9 6.02002 1961.54 6.02002H1995.1C1997.74 6.02002 2000 8.27752 2000 10.9113V486.492C2000 489.126 1997.74 491.383 1995.1 491.383H1940.05C1938.55 491.383 1936.66 490.631 1935.91 489.126L1653.52 56.0613C1652.77 54.5563 1650.88 53.8038 1649.37 53.8038L1652.77 198.284V486.492C1652.77 489.126 1650.5 491.383 1647.86 491.383Z" fill="#E3E0CE"/>
<path fill-rule="evenodd" clip-rule="evenodd" d="M1363.97 491.383H1312.7C1310.81 491.383 1308.93 490.254 1308.17 487.997L1135.87 12.4163C1134.74 9.03002 1137 6.02002 1140.4 6.02002H1176.59C1178.85 6.02002 1180.36 7.52502 1181.12 9.40627L1335.32 451.124C1335.69 452.253 1336.82 453.006 1337.96 453.006C1339.09 453.006 1340.22 452.253 1340.59 451.124L1497.06 9.40627C1497.81 7.52502 1499.7 6.02002 1501.58 6.02002H1536.64C1540.04 6.02002 1542.3 9.40627 1541.17 12.4163L1368.49 487.997C1368.12 490.254 1366.23 491.383 1363.97 491.383Z" fill="#E3E0CE"/>
</svg>
