<?xml version="1.0" encoding="UTF-8"?>
<svg width="58px" height="67px" viewBox="0 0 58 67" version="1.1" xmlns="http://www.w3.org/2000/svg" xmlns:xlink="http://www.w3.org/1999/xlink">
    <title>BC4DBCE8-5E6C-4F64-A31F-60635FC57E58</title>
    <defs>
        <filter x="-1.1%" y="-13.3%" width="102.2%" height="126.5%" filterUnits="objectBoundingBox" id="filter-1">
            <feOffset dx="0" dy="0" in="SourceAlpha" result="shadowOffsetOuter1"></feOffset>
            <feGaussianBlur stdDeviation="3" in="shadowOffsetOuter1" result="shadowBlurOuter1"></feGaussianBlur>
            <feColorMatrix values="0 0 0 0 0   0 0 0 0 0   0 0 0 0 0  0 0 0 0.260462194 0" type="matrix" in="shadowBlurOuter1" result="shadowMatrixOuter1"></feColorMatrix>
            <feMerge>
                <feMergeNode in="shadowMatrixOuter1"></feMergeNode>
                <feMergeNode in="SourceGraphic"></feMergeNode>
            </feMerge>
        </filter>
    </defs>
    <g id="Filigreen-2.5-Source" stroke="none" stroke-width="1" fill="none" fill-rule="evenodd" stroke-linecap="round" stroke-linejoin="round">
        <g id="Marketplace-Brand" transform="translate(-1264.000000, -272.000000)" stroke="#195458" stroke-width="1.10943396">
            <g id="Group-2" filter="url(#filter-1)" transform="translate(256.000000, 264.000000)">
                <g id="C--Flowers-Copy-10" transform="translate(987.000000, 0.000000)">
                    <g id="black-icons-64px-10" transform="translate(30.306122, 17.000000)">
                        <path d="M13.5163019,12.2037736 C12.4627925,13.2466415 0.403471698,24.6183396 0.806943396,34.3924528 C1.21041509,44.166566 9.85143396,48.0273962 20.8796604,47.6390943 C31.9078868,47.2507925 38.9238113,43.0571321 38.4082642,34.3258868 C38.0720377,28.6899623 35.9426038,25.3061887 33.5778113,21.4009811 C30.3724528,16.0756981 27.7835094,12.2037736 27.3127925,12.2037736 L13.5163019,12.2037736 Z" id="Path"></path>
                        <rect id="Rectangle" x="12.8886792" y="9.43018868" width="15.1301887" height="2.77358491" rx="1.38679245"></rect>
                        <path d="M27.1334717,9.43018868 C27.1334717,9.43018868 31.9751321,2.36309434 31.1121509,1.66415094 C30.2491698,0.965207547 25.7773585,4.54867925 25.5083774,4.29350943 C25.2393962,4.03833962 22.2918113,0.787698113 20.913283,0.787698113 C19.5347547,0.787698113 16.1949057,3.89411321 15.690566,4.28241509 C15.1862264,4.67071698 10.6471698,0.765509434 9.84022642,1.35350943 C8.43928302,2.36309434 13.8861509,9.43018868 13.8861509,9.43018868 L27.1334717,9.43018868 Z" id="Path"></path>
                        <path d="M16.0604151,42.7908679 C16.6346857,43.1004326 17.2688279,43.2857284 17.9208679,43.3344906 C18.56398,43.0990651 19.1770845,42.7900243 19.7476981,42.4136604 C20.2520377,42.1473962 21.8883396,41.8034717 20.8684528,39.8397736 C20.255196,38.453506 19.3802989,37.1958367 18.290717,36.1342642" id="Path"></path>
                        <path d="M17.1475472,39.8286792 C17.1475472,39.8286792 19.1985283,39.3516226 19.1649057,38.8190943 C19.007465,38.1753779 18.762393,37.5558235 18.4364151,36.977434 C18.2458868,36.5114717 18.3691698,35.7348679 18.0889811,35.3576604 C17.8087925,34.9804528 16.8673585,35.0137358 16.3069811,33.9375849 C16.0492075,33.4383396 16.3069811,33.0833208 15.9707547,32.6173585 C15.5715209,32.2057969 15.0958547,31.8743105 14.5698113,31.6410566 C13.9197736,31.230566 12.7766038,31.2638491 12.5748679,30.9199245 C12.1205176,30.3545022 11.2914308,30.2556212 10.7144151,30.6980377 C10.4006038,31.1196226 8.65222642,31.1529057 8.56256604,32.1624906 C8.49532075,32.9723774 8.01339623,34.6143396 8.02460377,35.2356226 C8.02460377,36.8443019 8.65222642,37.0329057 8.65222642,37.0329057" id="Path"></path>
                        <path d="M8.17030189,34.2482264 C7.65418514,34.3862949 7.23693803,34.7621545 7.04954717,35.2578113 C6.83660377,35.9567547 6.09690566,37.598717 6.01845283,38.0424906 C5.93242462,38.6134327 6.25857849,39.1669059 6.80298113,39.3738113 C7.50396171,39.6841835 8.10221518,40.1841014 8.5289434,40.8160755 C8.75309434,41.2154717 9.77298113,41.3486038 10.568717,41.2043774 C11.3465229,41.1215773 12.1294348,41.0956203 12.9110943,41.126717" id="Path"></path>
                        <path d="M10.5126792,41.2487547 C10.5126792,41.3596981 11.4765283,41.8367547 11.7230943,42.2916226 C11.9395261,42.87742 12.5705467,43.2041583 13.1800755,43.0460377 C13.610997,42.8360494 14.0908593,42.744111 14.5698113,42.7797736 C15.3150984,42.9299345 16.0900557,42.8119146 16.755283,42.4469434" id="Path"></path>
                        <path d="M8.08064151,34.3036981 C7.63233962,34.1927547 5.45807547,32.6395472 5.17788679,32.5175094 C4.89769811,32.3954717 4.9425283,32.2068679 5.17788679,31.9627925 C5.41324528,31.718717 5.43566038,31.4524528 5.82792453,31.6965283 C6.22018868,31.9406038 8.38324528,33.1498868 8.38324528,33.1498868" id="Path"></path>
                        <path d="M25.4971698,39.4070943 C25.3626792,39.1408302 24.5669434,38.2976604 24.6341887,37.8427925 C24.701434,37.3879245 24.8807547,37.1882264 24.9367925,36.7333585 C24.9994951,36.3661516 24.9994951,35.9911314 24.9367925,35.6239245 C24.8730568,35.2799481 24.9768932,34.9263591 25.2169811,34.6698113" id="Path"></path>
                        <path d="M24.8919623,38.5417358 C24.7965393,38.9900936 24.758881,39.4486118 24.7798868,39.9063396 C25.0389046,40.6413875 25.4513159,41.3142367 25.9903019,41.8811321 C26.2816981,42.1363019 27.2567547,42.5246038 27.6602264,42.1806792 C28.1855935,41.5881883 28.7799972,41.0593734 29.4310189,40.605283 C29.9286269,40.3829236 30.3271452,39.9884308 30.5517736,39.4958491 L30.9104151,38.841283" id="Path"></path>
                        <path d="M29.2404906,30.1766038 C30.2267547,30.2542642 30.5629811,30.2653585 31.7173585,30.2875472 C32.8717358,30.3097358 33.2976226,31.2971321 33.7907547,31.6632453 C34.2703078,32.0101291 34.3932127,32.6671116 34.0709434,33.1609811 C33.7683396,33.7267925 34.0709434,35.2356226 33.4321132,36.1897358 C33.0062264,36.7666415 32.4570566,36.6335094 32.0199623,36.9330566 C31.7846038,37.0883774 31.605283,38.0424906 31.0785283,38.6970566 C30.6095275,39.1662129 30.0383136,39.522936 29.4086038,39.7399245" id="Path"></path>
                        <path d="M29.7224151,30.1987925 C29.7224151,29.7883019 31.2802642,27.0590943 31.3363019,26.7928302 C31.3923396,26.526566 31.5492453,26.526566 31.8070189,26.6375094 C32.0647925,26.7484528 32.3001509,26.7595472 32.1656604,27.1589434 C32.1158813,27.5537817 31.9780675,27.932731 31.7621887,28.2683774 C31.4919349,28.6721707 31.2664794,29.1036486 31.0897358,29.5553208 C31.013446,29.7897667 31.013446,30.0420069 31.0897358,30.2764528" id="Path"></path>
                        <path d="M19.0528302,30.0101887 C19.2794679,30.3127832 19.5701752,30.5626895 19.9046038,30.7424151 C20.3031606,30.7853954 20.7052545,30.7853954 21.1038113,30.7424151 C21.4288302,30.7424151 22.3814717,30.9199245 22.3030189,29.6329811 C22.3128863,28.7459825 22.1531732,27.8651406 21.8323019,27.0369057" id="Path"></path>
                        <path d="M21.2943396,28.9451321 C21.4865044,28.9286145 21.6541811,28.8094473 21.731434,28.6344906 C21.7783159,28.2661352 21.7783159,27.893412 21.731434,27.5250566 C21.731434,27.2255094 21.9892075,26.8483019 21.9331698,26.5709434 C21.8771321,26.2935849 21.3727925,26.0938868 21.3279623,25.3949434 C21.3279623,25.0621132 21.5521132,24.9400755 21.4624528,24.6072453 C21.3603379,24.2971365 21.1964691,24.0104333 20.9805283,23.7640755 C20.7227547,23.3868679 20.1175472,23.1316981 20.0839245,22.898717 C19.9789185,22.4915954 19.569583,22.2377346 19.1536981,22.3218113 C18.884717,22.4771321 17.943283,22.0777358 17.6518868,22.5880755 C17.3604906,23.0984151 16.7776981,23.7640755 16.632,24.108 C16.2509434,24.9622642 17.4277358,26.0273208 17.4277358,26.0273208" id="Path"></path>
                        <path d="M16.9346038,23.553283 C16.6320896,23.5239422 16.3321205,23.6297014 16.1164528,23.8417358 C15.8474717,24.1523774 15.0517358,24.8513208 14.9060377,25.0732075 C14.7276302,25.3584593 14.7643664,25.7266566 14.9956981,25.9718491 C15.2970185,26.3023321 15.4988955,26.7096937 15.5784906,27.1478491 C15.5784906,27.4141132 16.1052453,27.7358491 16.5647547,27.8578868 C17.3106632,27.9186638 18.0603556,27.9186638 18.8062642,27.8578868" id="Path"></path>
                        <path d="M16.4975094,27.8578868 C16.4975094,27.9244528 16.878566,28.4015094 16.8897736,28.7010566 C16.9009811,29.0006038 17.0242642,29.4 17.4837736,29.4443774 C17.7692518,29.4406166 18.0509367,29.5093716 18.3019245,29.6440755 C18.6589154,29.908785 19.1014055,30.0350611 19.5459623,29.9990943" id="Path"></path>
                        <path d="M16.878566,23.5643774 C16.5521743,23.2674292 16.3220604,22.8813453 16.2173208,22.4549434 C16.1196459,22.0924207 15.930701,21.7603357 15.6681509,21.4897358 C15.5560755,21.3566038 15.6681509,21.2678491 15.7802264,21.1790943 C15.8923019,21.0903396 16.038,20.9683019 16.1836981,21.1790943 C16.3293962,21.3898868 16.3742264,21.2789434 16.5983774,21.822566 C16.698763,22.1235888 16.8302117,22.4135725 16.9906415,22.6879245 C17.060538,22.8143336 17.1655464,22.9182813 17.2932453,22.9874717" id="Path"></path>
                        <path d="M30.3948679,31.9627925 C29.7896604,31.8629434 29.1844528,29.7439245 28.6016604,29.6884528 C28.2273875,29.6889299 27.8533599,29.7074424 27.4809057,29.7439245 C27.0326038,29.7439245 26.7187925,29.988 26.3601509,30.6536604 C25.8109811,31.7630943 24.4884906,32.0071698 24.8919623,33.4272453 C25.295434,34.8473208 25.542,35.4686038 25.6428679,35.8458113 C26.0015094,37.0994717 27.5593585,36.8110189 27.5593585,36.8110189" id="Path"></path>
                    </g>
                </g>
            </g>
        </g>
    </g>
</svg>