<?xml version="1.0" encoding="UTF-8"?>
<svg width="58px" height="73px" viewBox="0 0 58 73" version="1.1" xmlns="http://www.w3.org/2000/svg" xmlns:xlink="http://www.w3.org/1999/xlink">
    <title>4809BF63-9564-435B-8F59-11D3D9D01B92</title>
    <defs>
        <filter x="-1.1%" y="-13.3%" width="102.2%" height="126.5%" filterUnits="objectBoundingBox" id="filter-1">
            <feOffset dx="0" dy="0" in="SourceAlpha" result="shadowOffsetOuter1"></feOffset>
            <feGaussianBlur stdDeviation="3" in="shadowOffsetOuter1" result="shadowBlurOuter1"></feGaussianBlur>
            <feColorMatrix values="0 0 0 0 0   0 0 0 0 0   0 0 0 0 0  0 0 0 0.260462194 0" type="matrix" in="shadowBlurOuter1" result="shadowMatrixOuter1"></feColorMatrix>
            <feMerge>
                <feMergeNode in="shadowMatrixOuter1"></feMergeNode>
                <feMergeNode in="SourceGraphic"></feMergeNode>
            </feMerge>
        </filter>
    </defs>
    <g id="Filigreen-2.5-Source" stroke="none" stroke-width="1" fill="none" fill-rule="evenodd">
        <g id="Marketplace-Brand" transform="translate(-868.000000, -270.000000)" stroke="#195458" stroke-width="1.38205128">
            <g id="Group-2" filter="url(#filter-1)" transform="translate(256.000000, 264.000000)">
                <g id="C--Flowers-Copy-6" transform="translate(592.000000, 0.000000)">
                    <g id="black-icons-64px-06" transform="translate(30.937500, 15.925000)">
                        <path d="M0.0698076923,38.8909231 L0.0698076923,38.8909231 C0.359133844,37.4100858 1.79427942,36.4322364 3.29492308,36.6934615 L10.0104231,37.9234872 C11.0939784,37.979206 12.0468229,38.6512305 12.4539005,39.6468288 C12.8609781,40.6424272 12.6485759,41.7813182 11.9092155,42.5674044 C11.1698551,43.3534906 10.0374188,43.6444287 9.00519231,43.3134872 L2.28969231,42.0834615 C0.793744421,41.7970579 -0.194083056,40.3764087 0.0698076923,38.8909231 Z" id="Path"></path>
                        <path d="M6.46419231,51.4123077 L6.46419231,51.4123077 C5.84437382,50.0267048 6.46711832,48.4054304 7.86034615,47.7775128 L14.0732308,45.0134103 C15.4209421,44.5778756 16.8844595,45.2111953 17.4767526,46.4862436 C18.0690456,47.761292 17.6021049,49.273335 16.3908462,50.0026154 L10.1919231,52.7667179 C9.51675473,53.0807142 8.74273545,53.11423 8.04244852,52.8597921 C7.34216159,52.6053543 6.7738363,52.0841195 6.46419231,51.4123077 Z" id="Path"></path>
                        <path d="M34.9038462,8.98333333 L19.0993846,8.98333333 C18.6153799,9.01431916 18.1653249,9.2402169 17.8540476,9.60840984 C17.5427703,9.97660278 17.3974456,10.4549471 17.4519231,10.9320256 L17.4519231,40.3282564 C17.451909,40.814497 17.6479889,41.2806236 17.9966295,41.6231477 C18.3452701,41.9656719 18.8176196,42.1562477 19.3088077,42.1526165 L35.1551538,42.1526165 C36.1994927,42.1005637 37.0144427,41.238842 36.9980769,40.2038718 L36.9980769,10.7938205 C36.8952604,9.73617053 35.9764041,8.9418084 34.9038462,8.98333333 Z" id="Path"></path>
                        <polygon id="Path" points="21.6403846 6.21923077 21.6543462 8.98333333 32.8096154 8.98333333 32.7956538 6.21923077"></polygon>
                        <path d="M35.0015769,0.691025606 L19.3786154,0.691025606 C18.6736065,0.775363116 18.1448707,1.37013016 18.149963,2.07307692 L18.149963,6.21923077 L36.3,6.21923077 L36.3,1.94869231 C36.28481,1.24965402 35.7079116,0.690863939 35.0015769,0.691025606 Z" id="Path"></path>
                        <line x1="30.7153846" y1="6.21923077" x2="30.7014231" y2="4.14615385" id="Path"></line>
                        <line x1="28.6211538" y1="6.21923077" x2="28.6071923" y2="4.14615385" id="Path"></line>
                        <line x1="25.8288462" y1="6.21923077" x2="25.8148846" y2="4.14615385" id="Path"></line>
                        <line x1="23.0365385" y1="6.21923077" x2="23.0225769" y2="4.14615385" id="Path"></line>
                        <line x1="20.9423077" y1="6.21923077" x2="20.9283462" y2="4.14615385" id="Path"></line>
                        <line x1="33.5076923" y1="6.21923077" x2="33.4937308" y2="4.14615385" id="Path"></line>
                        <path d="M36.9003462,33.390359 C35.211,34.2334103 29.9195769,33.8878974 29.9195769,33.8187949 C29.9195769,33.390359 30.7433077,32.8651795 31.2459231,32.5473077 C31.9838041,32.1173458 32.8345529,31.9152285 33.6891923,31.9668462 L30.3942692,30.4051282 C28.5175047,29.4722551 27.0591017,27.8807672 26.3035385,25.9411026 C26.9457692,26.1622308 33.1586538,29.5206154 32.9352692,29.0507179 C31.9609098,27.880126 31.0787425,26.6372371 30.2965385,25.333 C29.5830552,23.6054247 28.9723566,21.8379821 28.4675769,20.0397436 C28.4675769,19.9015385 30.4780385,22.4030513 30.6036923,22.5827179 C30.7293462,22.7623846 34.3733077,27.7654103 34.3453846,27.5719231 C34.1483108,26.2205969 34.0271246,24.8594883 33.9823846,23.4948718 C34.3358784,20.4780394 35.3252131,17.5682654 36.8863846,14.9537949" id="Path"></path>
                    </g>
                </g>
            </g>
        </g>
    </g>
</svg>