<?xml version="1.0" encoding="UTF-8"?>
<svg width="70px" height="70px" viewBox="0 0 70 70" version="1.1" xmlns="http://www.w3.org/2000/svg" xmlns:xlink="http://www.w3.org/1999/xlink">
    <title>4FF79756-EA61-40EA-9120-577F79EEF24C</title>
    <defs>
        <filter x="-1.1%" y="-13.3%" width="102.2%" height="126.5%" filterUnits="objectBoundingBox" id="filter-1">
            <feOffset dx="0" dy="0" in="SourceAlpha" result="shadowOffsetOuter1"></feOffset>
            <feGaussianBlur stdDeviation="3" in="shadowOffsetOuter1" result="shadowBlurOuter1"></feGaussianBlur>
            <feColorMatrix values="0 0 0 0 0   0 0 0 0 0   0 0 0 0 0  0 0 0 0.260462194 0" type="matrix" in="shadowBlurOuter1" result="shadowMatrixOuter1"></feColorMatrix>
            <feMerge>
                <feMergeNode in="shadowMatrixOuter1"></feMergeNode>
                <feMergeNode in="SourceGraphic"></feMergeNode>
            </feMerge>
        </filter>
    </defs>
    <g id="Filigreen-2.5-Source" stroke="none" stroke-width="1" fill="none" fill-rule="evenodd" stroke-linejoin="round">
        <g id="Marketplace-Brand" transform="translate(-567.000000, -272.000000)" stroke="#195458" stroke-width="1.4">
            <g id="Group-2" filter="url(#filter-1)" transform="translate(256.000000, 264.000000)">
                <g id="C--Flowers-Copy-3" transform="translate(296.000000, 0.000000)">
                    <g id="black-icons-64px-05" transform="translate(25.987500, 18.375000)">
                        <path d="M38.1008571,15.204 L4.97828571,47.992 C3.87841407,49.0592001 2.11815736,49.0592001 1.01828571,47.992 L1.01828571,47.992 C-0.0598041355,46.9032382 -0.0598041355,45.1607618 1.01828571,44.072 L34.1408571,11.284 L38.1008571,15.204 Z" id="Path"></path>
                        <path d="M49.1322857,2.604 L42.3154286,9.352 C42.0156079,9.64951361 41.6085261,9.81671579 41.184,9.81671579 C40.7594739,9.81671579 40.3523921,9.64951361 40.0525714,9.352 L40.0525714,9.352 C39.752022,9.05520781 39.5831136,8.65223797 39.5831136,8.232 C39.5831136,7.81176203 39.752022,7.40879219 40.0525714,7.112 L46.8694286,0.364" id="Path"></path>
                        <path d="M37.9452857,15.05 L34.2964286,11.438 C34.2138145,11.3516188 34.2138145,11.2163812 34.2964286,11.13 L37.9028571,7.546 L46.4734286,0.252 C46.5605946,0.184235183 46.6832626,0.184235183 46.7704286,0.252 L49.2454286,2.702 C49.3138849,2.78828553 49.3138849,2.90971447 49.2454286,2.996 L41.877,11.48 L38.2564286,15.05 C38.1691659,15.1317796 38.0325483,15.1317796 37.9452857,15.05 Z" id="Path"></path>
                        <line x1="32.4437143" y1="12.964" x2="36.4037143" y2="16.884" id="Path"></line>
                        <line x1="19.1494286" y1="26.124" x2="23.1094286" y2="30.044" id="Path"></line>
                        <ellipse id="Oval" cx="19.0928571" cy="30.1" rx="1" ry="1"></ellipse>
                    </g>
                </g>
            </g>
        </g>
    </g>
</svg>